<svg xmlns="http://www.w3.org/2000/svg" viewBox="0 0 500 500"><g id="freepik--background-complete--inject-17"><path d="M360.94,111.39c-10.41-8.72-26.93-9.92-37.63-1.56-8.8-15.6-29.58-23.21-46.37-17S249.37,118.41,252.87,136a30.52,30.52,0,0,0-35.17,34.31c-16.81-4.08-35.74,2.74-46.09,16.6s-11.52,34-2.84,48.91l176,4.43c14.6-15.78,16.76-41.68,5-59.66,11.39-7.4,20.4-18.94,23.14-32.24S371.35,120.11,360.94,111.39Z" style="fill:#f5f5f5"></path><path d="M449.35,67c-3-7.09-9.9-12.23-17.46-13.71-1.3-10.84-11.8-19.76-22.7-19.28S388.6,44.31,388.25,55.22c-17.6-.88-21.36,13.4-18.44,21.2s12.66,12.26,20.48,9.37c-2.62,9.41,4.34,20.31,14,21.9s19.72-6.5,20.26-16.26c6.52,4.11,15.8,2.64,21.17-2.89S452.35,74.13,449.35,67Z" style="fill:#f5f5f5"></path><circle cx="337.25" cy="50.41" r="10.74" transform="translate(63.13 253.24) rotate(-45)" style="fill:#f5f5f5"></circle><circle cx="173" cy="160.07" r="8.71" transform="translate(-12.78 305.11) rotate(-80.76)" style="fill:#f5f5f5"></circle><circle cx="152.95" cy="53.12" r="8.71" style="fill:#f5f5f5"></circle><circle cx="238.61" cy="95.88" r="4.36" style="fill:#f5f5f5"></circle><path d="M169.29,90.81c-8-6-20.83-5-27.43,2.41,3.39-6.5-6.51-19.09-15.08-21.3-3.54-1.56-10.23-2.74-19.43,1A24.27,24.27,0,0,0,92.73,92.35c-5.45-3.94-13-4.5-19.45-2.35s-11.76,6.74-15.74,12.1c-6.29,8.49-9.38,20-5,29.57S70.24,146.81,79.22,141c-2.6,11.37,5.17,24.05,16.71,27.28S121,164.8,125,153.82c6.35,6,17.64,6.12,24.11.23s7.08-16.83,1.3-23.37c10.08.92,20.63-4.46,25-13.31S177.32,96.78,169.29,90.81Z" style="fill:#f5f5f5"></path><path d="M282.22,58.12a5.92,5.92,0,0,1,1-2.5c.19,0,.23,1.23.09,2.67s-.6,2.56-1,2.5S281.84,59.53,282.22,58.12Z" style="fill:#e0e0e0"></path><path d="M275.91,52.8a7.35,7.35,0,0,1,2.92-.45c.07.16-1.07.79-2.52,1.4s-2.76.81-2.92.44S274.37,53.2,275.91,52.8Z" style="fill:#e0e0e0"></path><path d="M277.88,45.21c1.16,1,2,1.93,1.89,2.06A7.14,7.14,0,0,1,277.16,46c-1.31-.83-2.15-1.75-1.88-2.06S276.73,44.21,277.88,45.21Z" style="fill:#e0e0e0"></path><path d="M286.15,43c-.38,1.4-.84,2.52-1,2.49s-.22-1.22-.08-2.66.6-2.56,1-2.5S286.53,41.55,286.15,43Z" style="fill:#e0e0e0"></path><path d="M292.46,48.28a7.32,7.32,0,0,1-2.91.45c-.07-.16,1.06-.79,2.51-1.4s2.77-.81,2.92-.44S294,47.88,292.46,48.28Z" style="fill:#e0e0e0"></path><path d="M290.49,55.87c-1.15-1-2-1.93-1.88-2.06a7.06,7.06,0,0,1,2.6,1.27c1.31.83,2.16,1.75,1.88,2.06S291.65,56.87,290.49,55.87Z" style="fill:#e0e0e0"></path><path d="M443,128.8c.38-1.4.84-2.53,1-2.5s.22,1.23.09,2.67-.6,2.56-1,2.49S442.64,130.2,443,128.8Z" style="fill:#e0e0e0"></path><path d="M436.71,123.47a7.45,7.45,0,0,1,2.92-.44,7.1,7.1,0,0,1-2.52,1.4c-1.45.61-2.76.81-2.92.44S435.17,123.88,436.71,123.47Z" style="fill:#e0e0e0"></path><path d="M438.68,115.89c1.16,1,2,1.92,1.88,2.06a7.06,7.06,0,0,1-2.6-1.27c-1.31-.83-2.16-1.76-1.88-2.06S437.52,114.89,438.68,115.89Z" style="fill:#e0e0e0"></path><path d="M447,113.63c-.38,1.41-.84,2.53-1,2.5s-.23-1.22-.09-2.66.6-2.56,1-2.5S447.33,112.23,447,113.63Z" style="fill:#e0e0e0"></path><path d="M453.26,119a7.8,7.8,0,0,1-2.92.45,6.93,6.93,0,0,1,2.52-1.4c1.45-.61,2.76-.82,2.92-.45S454.8,118.56,453.26,119Z" style="fill:#e0e0e0"></path><path d="M451.29,126.54c-1.16-1-2-1.92-1.88-2.05a7.14,7.14,0,0,1,2.6,1.27c1.31.83,2.16,1.75,1.88,2S452.45,127.54,451.29,126.54Z" style="fill:#e0e0e0"></path><path d="M199.66,65.53c2.22-.58,4.09-.91,4.16-.74s-1.59,1.11-3.67,2.09-4,1.31-4.16.74S197.44,66.11,199.66,65.53Z" style="fill:#ebebeb"></path><path d="M203.45,55.49c1.23,1.94,2.12,3.62,2,3.73s-1.54-1.17-3.11-2.85-2.47-3.35-2-3.72S202.21,53.56,203.45,55.49Z" style="fill:#ebebeb"></path><path d="M214.17,56c-1.46,1.77-2.77,3.14-2.93,3s.64-1.83,1.74-3.84,2.42-3.38,2.93-3S215.63,54.22,214.17,56Z" style="fill:#ebebeb"></path><path d="M217,66.33c-2.14-.84-3.84-1.66-3.8-1.84s1.94,0,4.2.47,4,1.26,3.8,1.84S219.15,67.17,217,66.33Z" style="fill:#ebebeb"></path><path d="M208.06,72.24c.13-2.29.39-4.17.57-4.18s.57,1.86.86,4.14,0,4.15-.58,4.18S207.92,74.53,208.06,72.24Z" style="fill:#ebebeb"></path></g><g id="freepik--Table--inject-17"><path d="M481,453.57c0,.15-103.44.26-231,.26s-231-.11-231-.26,103.42-.26,231-.26S481,453.43,481,453.57Z" style="fill:#263238"></path></g><g id="freepik--Sparkles--inject-17"><path d="M42.05,177.43a10.81,10.81,0,0,1,1.11-3.07,10.8,10.8,0,0,1,0,3.27c-.15,1.77-.64,3.15-1.11,3.07S41.58,179.15,42.05,177.43Z" style="fill:#F9A8D4"></path><path d="M36.79,171a10.75,10.75,0,0,1,3.26.11,10.76,10.76,0,0,1-3.11,1c-1.73.41-3.2.36-3.27-.1S35,171.1,36.79,171Z" style="fill:#F9A8D4"></path><path d="M41.26,164a10.66,10.66,0,0,1,.91,3.14,10.92,10.92,0,0,1-1.91-2.65c-.92-1.52-1.33-2.93-.91-3.14S40.63,162.36,41.26,164Z" style="fill:#F9A8D4"></path><path d="M49.29,166.11a10.46,10.46,0,0,1-2.7,1.83,10.82,10.82,0,0,1,1.93-2.63c1.16-1.34,2.38-2.17,2.7-1.83S50.68,165,49.29,166.11Z" style="fill:#F9A8D4"></path><path d="M49.79,174.4a11.37,11.37,0,0,1-2.58-2,10.76,10.76,0,0,1,3.1,1c1.64.69,2.8,1.59,2.58,2S51.28,175.38,49.79,174.4Z" style="fill:#F9A8D4"></path><path d="M50.06,259.06c.19-.71.42-1.28.52-1.27a2.92,2.92,0,0,1,0,1.36c-.07.73-.3,1.3-.52,1.26S49.86,259.77,50.06,259.06Z" style="fill:#F9A8D4"></path><path d="M46.85,256.36a3.75,3.75,0,0,1,1.48-.23c0,.08-.54.4-1.27.71s-1.41.41-1.48.23S46.07,256.56,46.85,256.36Z" style="fill:#F9A8D4"></path><path d="M47.85,252.51c.59.51,1,1,1,1a3.52,3.52,0,0,1-1.32-.64c-.67-.42-1.1-.89-1-1S47.27,252,47.85,252.51Z" style="fill:#F9A8D4"></path><path d="M52.05,251.36a3,3,0,0,1-.52,1.27c-.1,0-.12-.62,0-1.35s.3-1.3.52-1.27S52.24,250.65,52.05,251.36Z" style="fill:#F9A8D4"></path><path d="M55.25,254.07a3.81,3.81,0,0,1-1.48.22,3.63,3.63,0,0,1,1.28-.71c.74-.31,1.4-.41,1.48-.22S56,253.86,55.25,254.07Z" style="fill:#F9A8D4"></path><path d="M54.26,257.92c-.59-.51-1-1-1-1.05a3.64,3.64,0,0,1,1.32.65c.67.42,1.1.89,1,1S54.84,258.42,54.26,257.92Z" style="fill:#F9A8D4"></path><path d="M203.5,136.43c.19-.71.42-1.28.52-1.26a2.87,2.87,0,0,1,0,1.35c-.07.73-.3,1.3-.52,1.27S203.3,137.15,203.5,136.43Z" style="fill:#F9A8D4"></path><path d="M200.29,133.73a4,4,0,0,1,1.48-.23c0,.08-.54.4-1.27.71s-1.41.42-1.48.23S199.51,133.93,200.29,133.73Z" style="fill:#F9A8D4"></path><path d="M201.29,129.88c.59.51,1,1,1,1a3.52,3.52,0,0,1-1.32-.64c-.67-.42-1.1-.89-1-1S200.71,129.37,201.29,129.88Z" style="fill:#F9A8D4"></path><path d="M205.49,128.73c-.19.72-.43,1.29-.52,1.27s-.12-.62,0-1.35.3-1.3.52-1.27S205.69,128,205.49,128.73Z" style="fill:#F9A8D4"></path><path d="M208.69,131.44a3.81,3.81,0,0,1-1.48.22,3.7,3.7,0,0,1,1.28-.7c.74-.32,1.4-.42,1.48-.23S209.48,131.23,208.69,131.44Z" style="fill:#F9A8D4"></path><path d="M207.7,135.29c-.59-.51-1-1-1-1a3.85,3.85,0,0,1,1.32.65c.67.42,1.1.89,1,1S208.28,135.8,207.7,135.29Z" style="fill:#F9A8D4"></path><path d="M98.31,54.29c.2-.71.43-1.28.53-1.27a2.94,2.94,0,0,1,0,1.36c-.07.73-.3,1.3-.52,1.26S98.12,55,98.31,54.29Z" style="fill:#F9A8D4"></path><path d="M95.11,51.59a3.73,3.73,0,0,1,1.48-.23c0,.08-.54.4-1.28.71s-1.4.41-1.48.23S94.33,51.79,95.11,51.59Z" style="fill:#F9A8D4"></path><path d="M96.11,47.74c.59.51,1,1,1,1a3.45,3.45,0,0,1-1.32-.64c-.67-.42-1.1-.89-1-1S95.52,47.23,96.11,47.74Z" style="fill:#F9A8D4"></path><path d="M100.31,46.59a2.94,2.94,0,0,1-.52,1.27c-.1,0-.12-.62-.05-1.35s.31-1.3.53-1.27S100.5,45.88,100.31,46.59Z" style="fill:#F9A8D4"></path><path d="M103.51,49.3a3.81,3.81,0,0,1-1.48.22,3.52,3.52,0,0,1,1.28-.71c.74-.31,1.4-.41,1.48-.22S104.29,49.09,103.51,49.3Z" style="fill:#F9A8D4"></path><path d="M102.51,53.15c-.58-.51-1-1-1-1a3.85,3.85,0,0,1,1.32.65c.66.42,1.09.89,1,1S103.1,53.65,102.51,53.15Z" style="fill:#F9A8D4"></path><path d="M423.32,73.49a3,3,0,0,1,.52-1.27c.1,0,.12.62.05,1.35s-.31,1.3-.53,1.27S423.13,74.2,423.32,73.49Z" style="fill:#F9A8D4"></path><path d="M420.12,70.78a3.81,3.81,0,0,1,1.48-.22,3.52,3.52,0,0,1-1.28.71c-.74.31-1.4.41-1.48.22S419.34,71,420.12,70.78Z" style="fill:#F9A8D4"></path><path d="M421.12,66.93c.58.51,1,1,.95,1a3.85,3.85,0,0,1-1.32-.65c-.66-.42-1.09-.89-.95-1S420.53,66.43,421.12,66.93Z" style="fill:#F9A8D4"></path><path d="M425.32,65.79c-.2.71-.43,1.28-.53,1.27a2.94,2.94,0,0,1,0-1.36c.07-.73.3-1.3.52-1.26S425.51,65.08,425.32,65.79Z" style="fill:#F9A8D4"></path><path d="M428.52,68.49a3.73,3.73,0,0,1-1.48.23c0-.08.54-.4,1.28-.71s1.4-.41,1.48-.23S429.3,68.29,428.52,68.49Z" style="fill:#F9A8D4"></path><path d="M427.52,72.34c-.59-.51-1-1-1-1a3.45,3.45,0,0,1,1.32.64c.67.42,1.1.89,1,1S428.11,72.85,427.52,72.34Z" style="fill:#F9A8D4"></path><path d="M406,155.9c.38-1.41.84-2.53,1-2.5s.23,1.22.09,2.66-.6,2.56-1,2.5S405.62,157.3,406,155.9Z" style="fill:#F9A8D4"></path><path d="M399.69,150.57a7.8,7.8,0,0,1,2.92-.45,6.93,6.93,0,0,1-2.52,1.4c-1.45.61-2.76.82-2.92.45S398.15,151,399.69,150.57Z" style="fill:#F9A8D4"></path><path d="M401.66,143c1.16,1,2,1.92,1.88,2a7.14,7.14,0,0,1-2.6-1.27c-1.31-.83-2.16-1.75-1.88-2.05S400.5,142,401.66,143Z" style="fill:#F9A8D4"></path><path d="M409.93,140.73c-.38,1.4-.84,2.53-1,2.5s-.22-1.23-.09-2.67.6-2.56,1-2.49S410.31,139.33,409.93,140.73Z" style="fill:#F9A8D4"></path><path d="M416.24,146.06a7.45,7.45,0,0,1-2.92.44,7.1,7.1,0,0,1,2.52-1.4c1.45-.61,2.76-.81,2.92-.44S417.78,145.65,416.24,146.06Z" style="fill:#F9A8D4"></path><path d="M414.27,153.64c-1.16-1-2-1.93-1.88-2.06a7.06,7.06,0,0,1,2.6,1.27c1.31.83,2.16,1.76,1.88,2.06S415.43,154.64,414.27,153.64Z" style="fill:#F9A8D4"></path><path d="M320.39,92c.38-1.4.84-2.53,1-2.5s.22,1.22.08,2.66-.6,2.57-1,2.5S320,93.36,320.39,92Z" style="fill:#F9A8D4"></path><path d="M314.08,86.63a7.42,7.42,0,0,1,2.91-.44,6.94,6.94,0,0,1-2.52,1.39c-1.45.62-2.76.82-2.91.45S312.54,87,314.08,86.63Z" style="fill:#F9A8D4"></path><path d="M316.05,79.05c1.15,1,2,1.92,1.88,2a7.06,7.06,0,0,1-2.6-1.27c-1.31-.82-2.16-1.75-1.89-2S314.89,78.05,316.05,79.05Z" style="fill:#F9A8D4"></path><path d="M324.32,76.79a5.84,5.84,0,0,1-1,2.5c-.19,0-.23-1.22-.09-2.66s.6-2.57,1-2.5S324.7,75.39,324.32,76.79Z" style="fill:#F9A8D4"></path><path d="M330.63,82.12a7.45,7.45,0,0,1-2.92.44,6.94,6.94,0,0,1,2.52-1.39c1.45-.62,2.76-.82,2.91-.45S332.16,81.72,330.63,82.12Z" style="fill:#F9A8D4"></path><path d="M328.66,89.7c-1.16-1-2-1.92-1.89-2a7.06,7.06,0,0,1,2.6,1.27c1.32.82,2.16,1.75,1.89,2S329.81,90.7,328.66,89.7Z" style="fill:#F9A8D4"></path><path d="M263.75,197.61c.67-2.42,1.37-4.37,1.57-4.33s.18,2.1,0,4.6-.91,4.45-1.56,4.34S263.09,200,263.75,197.61Z" style="fill:#F9A8D4"></path><path d="M256.32,188.56c2.51-.11,4.58,0,4.61.15s-1.95.82-4.39,1.39-4.52.51-4.61-.15S253.82,188.67,256.32,188.56Z" style="fill:#F9A8D4"></path><path d="M262.64,178.68c.88,2.35,1.46,4.34,1.28,4.43s-1.39-1.6-2.69-3.74-1.88-4.13-1.28-4.43S261.75,176.34,262.64,178.68Z" style="fill:#F9A8D4"></path><path d="M274,181.63c-2,1.57-3.68,2.73-3.82,2.59s1.1-1.81,2.73-3.71,3.35-3.07,3.82-2.59S275.93,180.07,274,181.63Z" style="fill:#F9A8D4"></path><path d="M274.68,193.33c-2.1-1.38-3.74-2.65-3.64-2.83s2.06.48,4.37,1.45,3.95,2.24,3.64,2.82S276.77,194.71,274.68,193.33Z" style="fill:#F9A8D4"></path></g><g id="freepik--flask-3--inject-17"><path d="M355.15,246.57H166.59V428.2a25.3,25.3,0,0,0,25.3,25.29H308.26a25.29,25.29,0,0,0,25.29-25.29V265.52h0Z" style="fill:#fff"></path><path d="M355.15,246.57c-.52.47-7.63,6.75-21.53,19l0-.08c0,28.23.07,76.2.12,136.87,0,7.58,0,15.37,0,23.33a40.7,40.7,0,0,1-.27,6l-.23,1.51c-.12.5-.25,1-.38,1.49a23.67,23.67,0,0,1-.95,2.92,25.69,25.69,0,0,1-7.22,10,26.06,26.06,0,0,1-11.32,5.53l-1.59.24a9.56,9.56,0,0,1-1.6.18c-1.07.06-2.15.12-3.22.1H191.88l-1.84-.09a24.56,24.56,0,0,1-7.16-1.57l-.86-.32c-.29-.12-.56-.26-.84-.39-.55-.28-1.12-.52-1.65-.82a26.61,26.61,0,0,1-3.09-2,25.62,25.62,0,0,1-8.65-11.86,29.3,29.3,0,0,1-.9-3.17c-.11-.54-.18-1.08-.27-1.62a15.26,15.26,0,0,1-.19-1.64c-.16-2.19-.08-4.34-.1-6.5V385.4c0-16.78,0-33.2,0-49.16,0-31.93,0-62.05,0-89.67v-.22h.22l188.56.22-188.56.23.23-.23c0,27.62,0,57.74,0,89.67,0,16,0,32.38,0,49.16v38.33c0,2.15,0,4.33.1,6.46a12.25,12.25,0,0,0,.19,1.6c.09.53.15,1.07.26,1.59a25.52,25.52,0,0,0,.89,3.1,23.68,23.68,0,0,0,3.39,6.45,24,24,0,0,0,5.07,5.18,26.35,26.35,0,0,0,3,2c.52.3,1.08.54,1.62.81.27.12.54.27.82.38l.85.31a23.87,23.87,0,0,0,7,1.54l1.8.09H307c1.08,0,2.13,0,3.19-.1a10.33,10.33,0,0,0,1.57-.17l1.56-.24a25.59,25.59,0,0,0,11.11-5.42,25.26,25.26,0,0,0,7.09-9.82,22.9,22.9,0,0,0,.94-2.87c.12-.49.26-1,.37-1.46l.22-1.48a41,41,0,0,0,.28-6c0-8,0-15.75,0-23.33.05-60.67.09-108.64.11-136.87v0l0,0Z" style="fill:#263238"></path><path d="M342.35,246.57H177V417c0,13.11,9.93,23.74,22.17,23.74h102c12.25,0,22.17-10.63,22.17-23.74V264.35h0Z" style="fill:#e0e0e0"></path><path d="M323.41,307.21c-4.81-2.6-8.85-2.39-14.29-1.45s-10.58,3-15.73,4.94c-23.35,8.8-49.56,15-73.3,7.18-5.43-1.79-10.61-4.27-16.09-5.92s-11.47-2.45-16.95-.76-9.7,7.74-10,13.24l10.69,29.66,76.78,13.49,32-6.95Z" style="fill:#455a64"></path><g style="opacity:0.30000000000000004"><path d="M323.41,307.21c-4.81-2.6-8.85-2.39-14.29-1.45s-10.58,3-15.73,4.94c-23.35,8.8-49.56,15-73.3,7.18-5.43-1.79-10.61-4.27-16.09-5.92s-11.47-2.45-16.95-.76-9.34,6.12-9.65,11.62l10.33,31.28,76.78,13.49,32-6.95Z" style="fill:#fff"></path></g><path d="M323.41,307.21V418c0,13.11-9.92,23.73-22.17,23.73h-102C187,441.71,177,431.09,177,418V323.85s8.8,13.44,47.13,12.39S323.41,307.21,323.41,307.21Z" style="fill:#455a64"></path><g style="opacity:0.30000000000000004"><path d="M323.41,246.61l-17.82,19.55V441.25h0a17.84,17.84,0,0,0,17.82-17.85V266.16l19.27-19.26Z" style="fill:#fff"></path></g><path d="M291.11,318c0-.15,9.49-.26,21.2-.26s21.2.11,21.2.26-9.49.26-21.2.26S291.11,318.16,291.11,318Z" style="fill:#263238"></path><path d="M292.11,266c0-.14,9.49-.26,21.2-.26s21.2.12,21.2.26-9.49.26-21.2.26S292.11,266.18,292.11,266Z" style="fill:#263238"></path><path d="M274.34,346.38c0-.14,13.25-.26,29.58-.26s29.59.12,29.59.26-13.24.26-29.59.26S274.34,346.53,274.34,346.38Z" style="fill:#263238"></path><path d="M293.11,374.75c0-.14,9.05-.26,20.2-.26s20.2.12,20.2.26-9,.26-20.2.26S293.11,374.89,293.11,374.75Z" style="fill:#263238"></path><path d="M274.34,403.12c0-.15,13.25-.26,29.58-.26s29.59.11,29.59.26-13.24.26-29.59.26S274.34,403.26,274.34,403.12Z" style="fill:#263238"></path><path d="M355.15,246.57c0,.15-42.21.37-94.27.5s-94.29.12-94.29,0,42.21-.37,94.29-.5S355.15,246.43,355.15,246.57Z" style="fill:#263238"></path><g style="opacity:0.30000000000000004"><path d="M193.88,247.05S192,411.27,195.75,418.13s7.92,13,45.22,16,42.43,6.72,42.43,6.72l-83.9.83a21.89,21.89,0,0,1-22.1-21.89L177,246.57Z"></path></g><path d="M274.34,289.65c0-.14,13.25-.26,29.58-.26s29.59.12,29.59.26-13.24.26-29.59.26S274.34,289.8,274.34,289.65Z" style="fill:#263238"></path><rect x="158.51" y="237.49" width="203.02" height="9.32" rx="4.39" style="fill:#fff"></rect><path d="M357.14,246.81a6.41,6.41,0,0,0,1.06-.16,4.38,4.38,0,0,0,2.5-1.76,4.24,4.24,0,0,0,.74-2.15A5.36,5.36,0,0,0,361,240a4.36,4.36,0,0,0-2.3-2.14,10.32,10.32,0,0,0-3.66-.3l-44.7.09-147.47.07a4.14,4.14,0,0,0-3.88,2.73,3.79,3.79,0,0,0-.24,1.24,7.86,7.86,0,0,0,0,1.29,4.14,4.14,0,0,0,3.21,3.45,15.75,15.75,0,0,0,2.59.09h65.15l66.29.06,44.7.08,12.15,0,3.16,0,1.08,0-1.08,0-3.16,0-12.15,0-44.7.09-66.29.05-39.16,0h-26a16.54,16.54,0,0,1-2.7-.1,4.77,4.77,0,0,1-2.41-1.38,4.55,4.55,0,0,1-1.2-2.51,7.12,7.12,0,0,1,0-1.38,4.34,4.34,0,0,1,.27-1.39,4.67,4.67,0,0,1,4.37-3.08l147.47.08,44.7.08H357a4.76,4.76,0,0,1,1.81.32,4.51,4.51,0,0,1,2.37,2.25,5.43,5.43,0,0,1,.4,2.78,4.38,4.38,0,0,1-3.36,3.95A3.34,3.34,0,0,1,357.14,246.81Z" style="fill:#263238"></path><g style="opacity:0.2"><circle cx="222.04" cy="390.38" r="9.69"></circle></g><g style="opacity:0.2"><path d="M226.88,367.48a4.84,4.84,0,1,1-4.84-4.84A4.85,4.85,0,0,1,226.88,367.48Z"></path></g><g style="opacity:0.2"><path d="M293.75,423.57a4.84,4.84,0,1,1-4.84-4.84A4.84,4.84,0,0,1,293.75,423.57Z"></path></g><g style="opacity:0.2"><path d="M269.18,392.8a2.42,2.42,0,1,1-2.42-2.42A2.42,2.42,0,0,1,269.18,392.8Z"></path></g><g style="opacity:0.2"><path d="M280.54,376.35c0,2.67-2.77,4.84-6.2,4.84s-6.2-2.17-6.2-4.84,2.77-4.84,6.2-4.84S280.54,373.68,280.54,376.35Z"></path></g><path d="M177.35,385.7c-.14,0-.26-21.91-.26-48.92s.12-48.93.26-48.93.26,21.9.26,48.93S177.5,385.7,177.35,385.7Z" style="fill:#263238"></path><path d="M288.28,442.47c0,.15-19,.26-42.39.26s-42.39-.11-42.39-.26,19-.26,42.39-.26S288.28,442.33,288.28,442.47Z" style="fill:#263238"></path></g><g id="freepik--flask-4--inject-17"><path d="M431.79,299V180.34H371.34V299c-30.87,11.66-52.73,40.62-52.73,74.52,0,44.19,37.14,80,82.95,80s83-35.82,83-80C484.52,339.58,462.66,310.62,431.79,299Z" style="fill:#fff"></path><path d="M431.79,299l1.8.73,2.2.91a31.07,31.07,0,0,1,3,1.35l3.73,1.89c1.35.73,2.77,1.64,4.34,2.56A86.29,86.29,0,0,1,457,313.86c.94.72,1.77,1.61,2.69,2.46s1.86,1.72,2.77,2.67c1.74,2,3.7,3.93,5.4,6.26l1.34,1.72.68.88.63.93,2.55,3.83a86.92,86.92,0,0,1,4.56,8.6,78.78,78.78,0,0,1,6.19,20.59c.21,1.89.49,3.81.67,5.77s.16,3.95.24,6a86.08,86.08,0,0,1-1,12.36,78.07,78.07,0,0,1-8.61,25.05A81.71,81.71,0,0,1,457,433.25a83.17,83.17,0,0,1-26.56,15.48A86.29,86.29,0,0,1,365,445.59a83.28,83.28,0,0,1-28.25-21.77,81.94,81.94,0,0,1-10.14-15.39,79.49,79.49,0,0,1-6.32-17.63,74.76,74.76,0,0,1-1.9-18.91c.06-1.59.13-3.19.2-4.79s.38-3.19.58-4.79l.14-1.2c.06-.39.16-.79.23-1.18l.48-2.37.49-2.38c.18-.78.43-1.55.65-2.33l.68-2.37a21.07,21.07,0,0,1,.75-2.33q.86-2.29,1.72-4.59l2-4.43.52-1.1.59-1.07,1.19-2.12,1.19-2.11,1.34-2,1.34-2,.67-1,.74-1,3-3.79,3.21-3.56a88.06,88.06,0,0,1,14.52-12.19,94.47,94.47,0,0,1,16.6-8.48l-.17.24c0-42.78,0-82.8,0-118.62v-.22h.23l60.45,0H432v.19c0,36.61-.07,66.25-.09,86.74,0,10.25,0,18.21-.05,23.62,0,2.7,0,4.76,0,6.16s0,2.1,0,2.1,0-.69,0-2.07,0-3.44,0-6.13c0-5.4,0-13.35-.05-23.59,0-20.52-.06-50.18-.1-86.83l.19.19-60.45,0,.22-.22c0,35.82,0,75.84,0,118.62v.18l-.16.06a93,93,0,0,0-16.5,8.43,87.43,87.43,0,0,0-14.42,12.12c-1.06,1.18-2.13,2.35-3.2,3.53l-2.94,3.77-.74.95-.66,1-1.34,2-1.33,2-1.18,2.1-1.18,2.11-.59,1.05-.51,1.1-2,4.4-1.71,4.56a20.25,20.25,0,0,0-.75,2.32l-.67,2.34c-.21.78-.46,1.54-.65,2.33l-.48,2.35-.48,2.36c-.07.39-.17.78-.22,1.18l-.15,1.19-.57,4.75-.2,4.77a73.71,73.71,0,0,0,1.89,18.77,78.3,78.3,0,0,0,6.27,17.52,81.67,81.67,0,0,0,10.07,15.29,82.86,82.86,0,0,0,28.07,21.65,84.56,84.56,0,0,0,33.06,8,85.58,85.58,0,0,0,32-4.87,82.81,82.81,0,0,0,26.43-15.38,81,81,0,0,0,18-22.17,77.62,77.62,0,0,0,8.61-24.92,85.3,85.3,0,0,0,1-12.3q-.12-3-.23-5.94c-.17-1.94-.45-3.85-.66-5.74a78,78,0,0,0-6.13-20.52,85.44,85.44,0,0,0-4.52-8.58c-.86-1.3-1.71-2.57-2.53-3.82l-.62-.93-.68-.88-1.34-1.72c-1.69-2.33-3.63-4.28-5.37-6.25-.9-1-1.86-1.8-2.75-2.68s-1.74-1.74-2.68-2.46a85.41,85.41,0,0,0-10.07-7.47c-1.57-.93-3-1.85-4.33-2.59l-3.71-1.9a27.73,27.73,0,0,0-3-1.38l-2.19-.94C432.38,299.23,431.79,299,431.79,299Z" style="fill:#263238"></path><path d="M423.92,306.47l-.09-111.18-44.82,0,.86,111.09c-31.81,8.71-50.27,36.49-50.27,65.89,0,38.34,32.22,69.42,72,69.42s72-31.08,72-69.42C473.53,342.91,450.7,316.59,423.92,306.47Z" style="fill:#e0e0e0"></path><path d="M473.53,372.31c-2.35-4.09-4.72-5.24-9.22-6.8a63.4,63.4,0,0,0-24.83-3.31c-11.33.77-22.35,4.58-33.71,4.68-17,.16-32.84-7.88-49.52-11-6.89-1.27-19-.78-25.23,2.46a42.74,42.74,0,0,0,0,19.92l66.46,14.48L439,380.62h21.48Z" style="fill:#F9A8D4"></path><g style="opacity:0.30000000000000004"><path d="M473.53,372.31c-2.35-4.09-4.72-5.24-9.22-6.8a63.4,63.4,0,0,0-24.83-3.31c-11.33.77-22.35,4.58-33.71,4.68-17,.16-32.84-7.88-49.52-11-6.89-1.27-19-.78-25.23,2.46a42.74,42.74,0,0,0,0,19.92l66.46,14.48L439,380.62h21.48Z" style="fill:#fff"></path></g><path d="M329.6,372.31c0,38.34,32.22,69.42,72,69.42s72-31.08,72-69.42c0,0-13-5-33.82-2.53-8.25,1-36.23,9.36-52,10.84-42.56,4-58.15-8.31-58.15-8.31" style="fill:#F9A8D4"></path><rect x="361.8" y="177.19" width="79.52" height="18.14" rx="8.35" style="fill:#fff"></rect><path d="M433,195.33a16.85,16.85,0,0,0,1.82-.26,8.34,8.34,0,0,0,4.39-2.66,8,8,0,0,0,1.73-3.3,14,14,0,0,0,.22-4.45,8.17,8.17,0,0,0-2.07-4.58,8.09,8.09,0,0,0-4.95-2.62,26.63,26.63,0,0,0-3.12-.08h-3.28l-7,0-15.37,0-35.22,0a8.12,8.12,0,0,0-8,6.56,11.36,11.36,0,0,0-.15,2.19,8.74,8.74,0,0,0,.78,4.23,8.11,8.11,0,0,0,6.58,4.61c2.79.08,5.59,0,8.29.05l28.76.06,19.39.08,5.28.05,1.37,0c.31,0,.46,0,.46,0s-.15,0-.46,0l-1.37,0-5.28.05-19.39.08-28.76.06c-2.72,0-5.46.05-8.33,0a8.61,8.61,0,0,1-7-4.89,9.35,9.35,0,0,1-.83-4.45,11.91,11.91,0,0,1,.15-2.29,8.67,8.67,0,0,1,8.46-7l35.22,0,15.37,0H431a27.83,27.83,0,0,1,3.17.1,8.37,8.37,0,0,1,5.14,2.76,8.5,8.5,0,0,1,2.12,4.77,14.38,14.38,0,0,1-.27,4.55,8.16,8.16,0,0,1-1.82,3.36,8.36,8.36,0,0,1-4.52,2.64,7,7,0,0,1-1.37.15Z" style="fill:#263238"></path><g style="opacity:0.2"><path d="M399.23,420.3c-20.68-4.15-39.83-17-50.06-35.43s-10.7-42.37.23-60.41l-1.16.65a68.44,68.44,0,0,0-18.64,47.2c0,38.34,32.22,69.42,72,69.42A73,73,0,0,0,454.82,419a69.64,69.64,0,0,0,5.69-8.54C441.84,420.31,419.91,424.44,399.23,420.3Z"></path></g><g style="opacity:0.30000000000000004"><path d="M401.7,195.33,398.65,308.5s40.52,46.16,25.51,87.72l30.69,1.61s7.81-26.35-4.6-52.74-31.13-38.45-31.13-38.45l.17-111.35Z" style="fill:#fff"></path></g><path d="M346.52,417.18l-.19-.19-.53-.61c-.44-.55-1.16-1.32-1.95-2.41a65,65,0,0,1-6.12-9.6,70.21,70.21,0,0,1-3.28-7.16,73.41,73.41,0,0,1-2.74-8.62,68.25,68.25,0,0,1,2.25-40.8,74.91,74.91,0,0,1,3.67-8.27,74.05,74.05,0,0,1,4.05-6.76,66.45,66.45,0,0,1,7.14-8.87c.91-1,1.71-1.67,2.21-2.17l.59-.55.21-.17a1.36,1.36,0,0,1-.17.21l-.56.58c-.47.52-1.25,1.23-2.13,2.24a70.77,70.77,0,0,0-7,8.94,73.11,73.11,0,0,0-4,6.75,75,75,0,0,0-3.61,8.23,68.61,68.61,0,0,0-2.23,40.52,74.79,74.79,0,0,0,2.67,8.58,73.7,73.7,0,0,0,3.2,7.15,71.4,71.4,0,0,0,6,9.65c.77,1.11,1.46,1.89,1.88,2.46l.48.64A1,1,0,0,1,346.52,417.18Z" style="fill:#263238"></path><path d="M471.87,358.68a5,5,0,0,1,.22.84c.12.57.34,1.39.52,2.46a63,63,0,0,1,1,9.2,67.47,67.47,0,0,1-5.78,29.75,67.88,67.88,0,0,1-8.76,14.32,66.87,66.87,0,0,1-9.6,9.79,62.85,62.85,0,0,1-7.52,5.38c-.92.59-1.68,1-2.18,1.26a4.81,4.81,0,0,1-.78.39,6.57,6.57,0,0,1,.73-.49c.48-.31,1.22-.72,2.12-1.33a67.79,67.79,0,0,0,31.4-59.06,70.71,70.71,0,0,0-.81-9.17c-.14-1.08-.34-1.91-.42-2.48A6,6,0,0,1,471.87,358.68Z" style="fill:#263238"></path><path d="M380.5,291.73c-.14,0-.26-18.44-.26-41.18s.12-41.19.26-41.19.26,18.44.26,41.19S380.64,291.73,380.5,291.73Z" style="fill:#263238"></path><g style="opacity:0.2"><path d="M385,397.84a5.06,5.06,0,1,1-5.06-5.06A5.06,5.06,0,0,1,385,397.84Z"></path></g><g style="opacity:0.2"><path d="M418.6,397.84a5.06,5.06,0,1,1-5.06-5.06A5.06,5.06,0,0,1,418.6,397.84Z"></path></g><g style="opacity:0.2"><circle cx="388.86" cy="409.34" r="2.53"></circle></g><g style="opacity:0.30000000000000004"><path d="M371.36,195.66a17.59,17.59,0,0,0,8.07,4.31,100,100,0,0,0,11.22,1.92,179.53,179.53,0,0,0,20.09-.07c7.43-.35,15-2.08,21-6.49Z"></path></g></g><g id="freepik--flask-1--inject-17"><path d="M74.19,198.91V252L17.47,425.28a21.35,21.35,0,0,0,20.11,28.1H174.8a21.36,21.36,0,0,0,20.11-28.13L137.8,251.56V198.91Z" style="fill:#fff"></path><path d="M74.19,198.91l63.61-.15h.14v.15c0,15.05,0,32.8,0,52.65v-.06l36.67,111.34q5.15,15.66,10.54,32,2.7,8.17,5.44,16.53,1.37,4.17,2.76,8.38a75.66,75.66,0,0,1,2.54,8.57,21.68,21.68,0,0,1-4.41,17.15,21.07,21.07,0,0,1-16,8.08c-12.32.09-24.79,0-37.42.05H38.27c-1,0-2-.1-3-.15s-2-.34-3-.5c-.94-.33-1.92-.56-2.83-1a20,20,0,0,1-2.66-1.33,21.68,21.68,0,0,1-8.07-8.39,22,22,0,0,1-2.57-11.19c0-.24,0-.48,0-.72l.1-.71.19-1.42c.14-.95.46-1.86.68-2.78.55-1.81,1.16-3.58,1.73-5.36L32.38,379c17.29-52.72,31.7-96.63,41.69-127.08V252c.09-34.11.13-52.09.13-53.05,0,1,0,18.94.13,53.05v0C64.37,282.46,50,326.39,32.81,379.13L19.36,420.27c-1.1,3.56-2.62,7.08-2.69,10.86a21.51,21.51,0,0,0,2.52,10.94,21.21,21.21,0,0,0,7.9,8.19,19,19,0,0,0,2.59,1.3c.89.39,1.84.62,2.76.93,1,.16,1.91.41,2.89.5s1.94.16,2.94.13h99.79c12.62,0,25.12,0,37.41,0a20.57,20.57,0,0,0,15.63-7.89,21.1,21.1,0,0,0,4.31-16.75,73.62,73.62,0,0,0-2.52-8.49l-2.75-8.38L184.71,395q-5.39-16.36-10.53-32c-13.71-41.75-26.09-79.48-36.56-111.37v-.06c0-19.85,0-37.6,0-52.65l.15.14Z" style="fill:#263238"></path><path d="M83.38,198.91l.45,54.45L30.77,420.3c-4,11.74.22,21.81,13,21.81H166.81c12.75,0,16.86-8.19,12.85-19.94L128.6,253.36l.45-54.45Z" style="fill:#e0e0e0"></path><path d="M107.87,400.82a4.73,4.73,0,1,1,4.72-4.72A4.72,4.72,0,0,1,107.87,400.82Zm0-8.45a3.73,3.73,0,1,0,3.72,3.73A3.73,3.73,0,0,0,107.87,392.37Z" style="fill:#ae7461"></path><path d="M131,406.3a7.47,7.47,0,1,1,7.47-7.46A7.48,7.48,0,0,1,131,406.3Zm0-13.93a6.47,6.47,0,1,0,6.47,6.47A6.47,6.47,0,0,0,131,392.37Z" style="fill:#ae7461"></path><path d="M76,146.61l7,77.53h46.33l12.42-77.94S122.73,138.67,76,146.61Z" style="fill:#ae7461"></path><path d="M120.23,142.85a7.82,7.82,0,0,0,2.29,7.53,6.72,6.72,0,0,0,7.21.86c2.3-1.15,3.79-4.42,3.63-7Z" style="fill:#6f4439"></path><path d="M97.07,160.12a4.51,4.51,0,1,1-4.51-4.51A4.51,4.51,0,0,1,97.07,160.12Z" style="fill:#6f4439"></path><circle cx="115.1" cy="181.54" r="8.69" transform="translate(-60.98 58.25) rotate(-22.63)" style="fill:#6f4439"></circle><path d="M115.38,172.86a13.68,13.68,0,0,0-3.18.64,9,9,0,0,0-3,1.84,7.84,7.84,0,0,0-2.36,7.75,9,9,0,0,0,1.43,3.17,13.34,13.34,0,0,0,2.29,2.31,2.79,2.79,0,0,1-.8-.41,7.55,7.55,0,0,1-1.79-1.68,8.84,8.84,0,0,1-1.59-3.27,8,8,0,0,1,2.5-8.22,8.55,8.55,0,0,1,3.15-1.83,7.36,7.36,0,0,1,2.41-.4A2.7,2.7,0,0,1,115.38,172.86Z" style="fill:#263238"></path><path d="M93.24,155.55a10.8,10.8,0,0,0-1.87.42,4.83,4.83,0,0,0-2.93,3.19,4.89,4.89,0,0,0,1.07,4.21A10.78,10.78,0,0,0,91,164.62a2.88,2.88,0,0,1-1.72-1,4.76,4.76,0,0,1,2-8A2.84,2.84,0,0,1,93.24,155.55Z" style="fill:#263238"></path><path d="M127.06,152.08a3.29,3.29,0,0,1-1.8.1,6.42,6.42,0,0,1-5.51-6,3.25,3.25,0,0,1,.26-1.78c.09,0,0,.68.1,1.74a6.61,6.61,0,0,0,5.22,5.71C126.37,152.05,127.06,152,127.06,152.08Z" style="fill:#263238"></path><rect x="61.88" y="189.38" width="86.18" height="19.05" rx="8.77" style="fill:#fff"></rect><path d="M139.29,208.43a14.65,14.65,0,0,0,2-.28,8.65,8.65,0,0,0,6.46-6.55,9.54,9.54,0,0,0,.22-2.31,15.31,15.31,0,0,0-.13-2.51,8.59,8.59,0,0,0-8.07-7.19l-69.07,0a8.56,8.56,0,0,0-7.73,5,9.74,9.74,0,0,0-.79,4.66,8.83,8.83,0,0,0,1,4.51,8.6,8.6,0,0,0,7.46,4.43h9l31.06.06,20.93.08,5.7,0,1.48,0,.5,0-.5,0-1.48,0-5.7,0-20.93.08-31.06,0h-9A9.09,9.09,0,0,1,62.74,204a9.47,9.47,0,0,1-1.12-4.76,10.36,10.36,0,0,1,.84-4.88,9,9,0,0,1,3.3-3.8,9.18,9.18,0,0,1,4.9-1.45l69.08.1a8.88,8.88,0,0,1,5.77,2.52,9,9,0,0,1,2.58,5,15.89,15.89,0,0,1,.11,2.55,10.13,10.13,0,0,1-.25,2.37,8.79,8.79,0,0,1-6.68,6.6,7.81,7.81,0,0,1-1.47.18Z" style="fill:#263238"></path><path d="M29.31,424.3l20.26-63A330.17,330.17,0,0,1,103,369.07c33.67,7.76,55.3-16.1,55.3-16.1l23.39,76a10,10,0,0,1-9.58,13l-129.5.17C33.66,442.11,26.7,432.82,29.31,424.3Z" style="fill:#F9A8D4"></path><g style="opacity:0.1"><path d="M34.12,410c.93-.63,54.21-14.36,56.4-17.51s8.76-138,8.76-138l.28-42.31-16,.48.25,40.7Z"></path></g><g style="opacity:0.2"><path d="M156.16,433.24c-8.61-1.55-16.75-5.28-25.38-6.7-13.61-2.25-27.4,1.36-40.83,4.5s-27.62,5.84-40.84,1.85c-7.69-2.32-15.18-7.51-17.61-15.33l-2.17,7.24c-2.55,8.52,3.66,17.14,12.35,17.14H172.33a10,10,0,0,0,9.33-13l-.42-1.39-.74-.63C174.66,433.64,164.76,434.78,156.16,433.24Z"></path></g><g style="opacity:0.2"><circle cx="67.76" cy="417.93" r="6.37"></circle></g><g style="opacity:0.2"><circle cx="137.93" cy="406.34" r="8.89" transform="translate(-288.88 450.73) rotate(-77.19)"></circle></g><g style="opacity:0.2"><path d="M84.79,407.27a2.59,2.59,0,1,1-2.59-2.59A2.59,2.59,0,0,1,84.79,407.27Z"></path></g><g style="opacity:0.30000000000000004"><path d="M108.15,212.09l-.67,48.57,41.66,163.17a3.78,3.78,0,0,0,3.85,2.85l16.43-.86a3.81,3.81,0,0,0,3.39-5L121.53,259.73l-.48-47.64Z" style="fill:#fff"></path></g><path d="M72.45,287.05c.13,0-6.48,22.45-14.77,50S42.54,387,42.41,387s6.47-22.45,14.77-50.05S72.31,287,72.45,287.05Z" style="fill:#263238"></path><path d="M83,248.83c-.15,0-.26-6.59-.26-14.72s.11-14.73.26-14.73.26,6.59.26,14.73S83.09,248.83,83,248.83Z" style="fill:#263238"></path><path d="M118.83,356.94a5.25,5.25,0,1,1-5.25-5.25A5.25,5.25,0,0,1,118.83,356.94Z" style="fill:#F9A8D4"></path><path d="M110.11,316.06a2.63,2.63,0,1,1-2.63-2.63A2.63,2.63,0,0,1,110.11,316.06Z" style="fill:#F9A8D4"></path><path d="M83.8,334a8.69,8.69,0,0,1,.88-2.43,8.34,8.34,0,0,1,0,2.58c-.12,1.4-.51,2.49-.88,2.43S83.43,335.39,83.8,334Z" style="fill:#F9A8D4"></path><path d="M79.64,329a8.62,8.62,0,0,1,2.58.09,9,9,0,0,1-2.46.78c-1.37.32-2.53.28-2.59-.09S78.23,329,79.64,329Z" style="fill:#F9A8D4"></path><path d="M83.18,323.42a8.92,8.92,0,0,1,.72,2.48,8.45,8.45,0,0,1-1.51-2.09c-.73-1.21-1.06-2.32-.72-2.49S82.68,322.11,83.18,323.42Z" style="fill:#F9A8D4"></path><path d="M89.53,325.08a8.79,8.79,0,0,1-2.14,1.45,9,9,0,0,1,1.53-2.08c.92-1.07,1.88-1.72,2.14-1.46S90.63,324.2,89.53,325.08Z" style="fill:#F9A8D4"></path><path d="M89.93,331.63a8.64,8.64,0,0,1-2-1.58,8.69,8.69,0,0,1,2.45.81c1.3.54,2.22,1.26,2,1.59S91.1,332.41,89.93,331.63Z" style="fill:#F9A8D4"></path><path d="M139.23,352.34c.22-.87.47-1.57.58-1.55a4,4,0,0,1,.05,1.65c-.08.89-.34,1.58-.58,1.54S139,353.2,139.23,352.34Z" style="fill:#F9A8D4"></path><path d="M135.72,349a3.87,3.87,0,0,1,1.63-.27,3.93,3.93,0,0,1-1.41.86c-.8.38-1.53.51-1.62.28S134.87,349.29,135.72,349Z" style="fill:#F9A8D4"></path><path d="M136.82,344.36c.64.62,1.11,1.19,1.05,1.27a3.75,3.75,0,0,1-1.45-.78c-.73-.52-1.2-1.09-1-1.27S136.18,343.74,136.82,344.36Z" style="fill:#F9A8D4"></path><path d="M141.42,343a3.8,3.8,0,0,1-.57,1.54,3.61,3.61,0,0,1,0-1.65c.08-.89.33-1.58.57-1.54S141.63,342.1,141.42,343Z" style="fill:#F9A8D4"></path><path d="M144.93,346.26a3.64,3.64,0,0,1-1.62.27c0-.1.59-.48,1.4-.86s1.54-.5,1.63-.28S145.79,346,144.93,346.26Z" style="fill:#F9A8D4"></path><path d="M143.84,350.94c-.65-.62-1.12-1.19-1.05-1.27s.72.27,1.45.79,1.2,1.08,1,1.27S144.48,351.56,143.84,350.94Z" style="fill:#F9A8D4"></path><path d="M156.44,441.94c0,.15-19.68.26-43.94.26s-43.95-.11-43.95-.26,19.67-.26,44-.26S156.44,441.8,156.44,441.94Z" style="fill:#263238"></path></g><g id="freepik--flask-2--inject-17"><path d="M159.7,366.26c0,.67-5.44,26.35-11,52.53-3.2,15-6.45,30.21-8.75,40.92a12.25,12.25,0,0,0,12,14.81h99.23a12.25,12.25,0,0,0,12-14.68l-19-93.58Z" style="fill:#fff"></path><path d="M159.7,366.26l1.49,0,4.42,0,16.94-.06,61.55-.11h.17l0,.17c3.44,16.87,7.33,35.91,11.53,56.48,2.09,10.28,4.27,20.95,6.5,31.92l.84,4.13a15.2,15.2,0,0,1,.43,4.27,11.81,11.81,0,0,1-1,4.21,11.94,11.94,0,0,1-2.4,3.64,12.78,12.78,0,0,1-3.52,2.62,13.31,13.31,0,0,1-4.24,1.21c-1.49.13-2.93.06-4.39.08h-4.39l-81.39,0H153a13,13,0,0,1-8.61-2.53,13.12,13.12,0,0,1-3-3.29,12.51,12.51,0,0,1-1.65-4.07,11.92,11.92,0,0,1-.14-4.33c.21-1.43.57-2.77.84-4.14,2.34-10.87,4.51-21,6.5-30.25,4-18.49,7.17-33.45,9.39-43.8,1.09-5.17,1.95-9.18,2.53-11.92l.86-4.16s0,.37-.16,1.07-.34,1.75-.6,3.11c-.56,2.74-1.38,6.76-2.43,11.94-2.19,10.36-5.34,25.34-9.23,43.84-2,9.25-4.12,19.39-6.44,30.26-.26,1.36-.63,2.74-.82,4.11a11.26,11.26,0,0,0,.13,4.17,12.34,12.34,0,0,0,1.6,3.93A12.2,12.2,0,0,0,153,474.28h9.26l81.39,0H248c1.45,0,2.93,0,4.34-.07a13.06,13.06,0,0,0,4.06-1.17,12.2,12.2,0,0,0,3.37-2.51,11.87,11.87,0,0,0,3.27-7.52,14.57,14.57,0,0,0-.41-4.14c-.29-1.38-.56-2.75-.84-4.12l-6.49-31.93-11.45-56.49.21.16-61.42-.11-17-.05-4.46,0Z" style="fill:#263238"></path><path d="M165.15,369.21c0,1-13.05,67.86-17.81,90.08a6.41,6.41,0,0,0,6.27,7.75h96.26a6,6,0,0,0,5.84-7.15l-17.82-90.68Z" style="fill:#e0e0e0"></path><g style="opacity:0.30000000000000004"><path d="M149.16,420.39s13,8.09,31.29,3.83,44.37-23.63,73.17-11.11l-2.31-11.36s-8.7-10.45-24.95-9-30.88,22.55-44.9,22.95-27.83-15.44-27.83-15.44Z" style="fill:#fff"></path></g><path d="M251.11,436.47l4.6,23.42a6,6,0,0,1-5.84,7.15H153.61a6.41,6.41,0,0,1-6.27-7.75c1.23-5.74,3-14.44,5-24.22a187.21,187.21,0,0,0,40.07,3.73c21.17-.49,57.43-8.89,57.43-8.89Z" style="fill:#F9A8D4"></path><rect x="154.77" y="361.34" width="93.48" height="7.54" rx="3.47" style="fill:#fff"></rect><path d="M244.79,368.88a3.78,3.78,0,0,0,1.85-.6,3.42,3.42,0,0,0,1.39-1.86,4.79,4.79,0,0,0,.14-1.5,3.4,3.4,0,0,0-3.71-3.45l-4.91,0-12,0-69.32.07a3.23,3.23,0,0,0-3.19,2.83,9.75,9.75,0,0,0,0,1.21,3.08,3.08,0,0,0,.28,1.11,3.14,3.14,0,0,0,1.59,1.58,5,5,0,0,0,2.31.3h25.68l31.16.06,21,.08,5.71.05,1.49,0,.51,0-.51,0-1.49,0-5.71.05-21,.08-31.16.05-18.41,0h-7.27c-.42,0-.8,0-1.25,0a3.83,3.83,0,0,1-1.28-.32,3.69,3.69,0,0,1-1.84-1.85,3.56,3.56,0,0,1-.33-1.29,9.42,9.42,0,0,1,0-1.3,3.77,3.77,0,0,1,3.71-3.29l69.32.08,12,0,4.91,0a3.64,3.64,0,0,1,3.5,2,3.58,3.58,0,0,1,.39,1.74,4.53,4.53,0,0,1-.17,1.54,3.56,3.56,0,0,1-1.48,1.91,3.42,3.42,0,0,1-1.41.5A1.89,1.89,0,0,1,244.79,368.88Z" style="fill:#263238"></path><path d="M152.32,435.07s8.18-2,29-3.23,68.3-3.18,68.3-3.18l.24,1.25s-36.19,8.66-61,8.93S152.32,435.07,152.32,435.07Z" style="fill:#F9A8D4"></path><g style="opacity:0.30000000000000004"><path d="M152.32,435.07s8.18-2,29-3.23,68.3-3.18,68.3-3.18l.24,1.25s-36.19,8.66-61,8.93S152.32,435.07,152.32,435.07Z" style="fill:#fff"></path></g><path d="M214.18,406.79c0,.14-8.79.26-19.62.26s-19.61-.12-19.61-.26,8.78-.26,19.61-.26S214.18,406.65,214.18,406.79Z" style="fill:#263238"></path><path d="M214.18,429.91c0,.14-8.79.26-19.62.26s-19.61-.12-19.61-.26,8.78-.26,19.61-.26S214.18,429.76,214.18,429.91Z" style="fill:#263238"></path><path d="M214.18,454.87c0,.15-8.79.26-19.62.26S175,455,175,454.87s8.78-.26,19.61-.26S214.18,454.73,214.18,454.87Z" style="fill:#263238"></path><path d="M214.18,385.36c0,.14-8.79.26-19.62.26S175,385.5,175,385.36s8.78-.26,19.61-.26S214.18,385.22,214.18,385.36Z" style="fill:#263238"></path><path d="M197.61,396.15c0,.15-5.07.26-11.33.26S175,396.3,175,396.15s5.07-.26,11.33-.26S197.61,396,197.61,396.15Z" style="fill:#263238"></path><path d="M197.61,418.12c0,.15-5.07.26-11.33.26s-11.33-.11-11.33-.26,5.07-.26,11.33-.26S197.61,418,197.61,418.12Z" style="fill:#263238"></path><path d="M197.61,442c0,.14-5.07.26-11.33.26S175,442.14,175,442s5.07-.26,11.33-.26S197.61,441.86,197.61,442Z" style="fill:#263238"></path><g style="opacity:0.30000000000000004"><path d="M165.57,369.26l-18.24,90.13a6.43,6.43,0,0,0,6.3,7.7h64.09s-55.16-1.72-59.91-8.73S165.57,369.26,165.57,369.26Z"></path></g><g style="opacity:0.30000000000000004"><path d="M214.18,368.88,224.6,467l23.72.42c1.15-2.2-14.35-98.58-14.35-98.58Z" style="fill:#fff"></path></g><path d="M237,467.51c0,.14-16.4.26-36.62.26s-36.62-.12-36.62-.26,16.39-.27,36.62-.27S237,467.36,237,467.51Z" style="fill:#263238"></path><g style="opacity:0.2"><path d="M212.39,449.14a2.64,2.64,0,1,1-2.63-2.63A2.64,2.64,0,0,1,212.39,449.14Z"></path></g><g style="opacity:0.2"><path d="M169.71,452.57a2.63,2.63,0,1,1-2.63-2.63A2.63,2.63,0,0,1,169.71,452.57Z"></path></g><g style="opacity:0.2"><circle cx="223.81" cy="457.26" r="4.69"></circle></g><g style="opacity:0.2"><circle cx="202.12" cy="447.56" r="1.58"></circle></g><g style="opacity:0.2"><circle cx="247.47" cy="441.33" r="1.58"></circle></g></g></svg>
