<svg xmlns="http://www.w3.org/2000/svg" viewBox="0 0 750 500"><g id="freepik--background-complete--inject-83"><path d="M239.74,312.77v19.9l-42.06,97.51c-5.38,12.48,2.06,27.45,13.66,27.45h90.09c11.64,0,19.08-15.08,13.61-27.56l-42-95.68V312.77Z" style="fill:#fff"></path><path d="M301.43,457.88H211.34c-5.52,0-10.51-3.43-13.37-9.17a22.42,22.42,0,0,1-.47-18.64l42-97.46V312.53h33.72v21.8L315.21,430a22.4,22.4,0,0,1-.39,18.71C312,454.43,307,457.88,301.43,457.88ZM239.94,313v19.71l0,0L197.86,430.3a21.77,21.77,0,0,0,.46,18.16c2.78,5.59,7.64,8.93,13,8.93h90.09c5.4,0,10.28-3.36,13.05-9a21.82,21.82,0,0,0,.38-18.23l-42-95.73V313Z" style="fill:#e0e0e0"></path><path d="M244.22,315.76l-.15,16.41L202.41,432.61c-3.63,8.42,1.39,18.51,9.2,18.51h89.55c7.84,0,12.86-10.17,9.17-18.58l-41-100.37-.22-16.41Z" style="fill:#f5f5f5"></path><path d="M275.46,315.64H237.31c-2.53,0-4.58-2.49-4.58-5.56h0c0-3.08,2.05-5.57,4.58-5.57h38.15c2.53,0,4.58,2.49,4.58,5.57h0C280,313.15,278,315.64,275.46,315.64Z" style="fill:#fff"></path><path d="M275.46,315.64a6.72,6.72,0,0,0,1.05-.18,4.55,4.55,0,0,0,2.51-2,6.13,6.13,0,0,0,.89-2.4,6.93,6.93,0,0,0,0-1.52,6.82,6.82,0,0,0-.32-1.58,5.42,5.42,0,0,0-1.94-2.67,4.07,4.07,0,0,0-1.53-.65,10.8,10.8,0,0,0-1.72-.07l-37.14,0a3.88,3.88,0,0,0-1.3.24,4.57,4.57,0,0,0-1.19.68,5.55,5.55,0,0,0-1,1.07,6.71,6.71,0,0,0-.67,1.34,7.75,7.75,0,0,0-.32,1.52,7.31,7.31,0,0,0,0,1.55,5.91,5.91,0,0,0,1.11,2.71,4.37,4.37,0,0,0,1,1,3.74,3.74,0,0,0,1.13.6,7.43,7.43,0,0,0,2.45.21h4.82l16.7,0,11.25,0,3.06,0,.8,0h-.8l-3.06,0-11.25,0-16.7,0h-6.06a4,4,0,0,1-2.45-.84,4.74,4.74,0,0,1-1-1,6.1,6.1,0,0,1-1.16-2.84,6.75,6.75,0,0,1-.05-1.62,6.26,6.26,0,0,1,1-3,6.33,6.33,0,0,1,1-1.11,4.88,4.88,0,0,1,1.24-.72,4.34,4.34,0,0,1,1.37-.24l37.14,0a10.05,10.05,0,0,1,1.74.08,4.24,4.24,0,0,1,1.57.68,5.46,5.46,0,0,1,2,2.75,6.84,6.84,0,0,1,.33,1.63,7.17,7.17,0,0,1-.07,1.55,6.28,6.28,0,0,1-.92,2.44,4.53,4.53,0,0,1-2.56,2,3.2,3.2,0,0,1-.79.12Z" style="fill:#e0e0e0"></path><path d="M259.48,332.17c-.39,0,14.24,92.77,17.31,93.47s27.13,0,27.13,0l-36.55-93.47L267,315.75l-8.48-.11Z" style="fill:#fafafa"></path><path d="M233,358.92s0,0,0,.12-.08.21-.13.36q-.19.5-.51,1.35c-.45,1.18-1.12,2.86-2,4.94-1.66,4.15-4,9.84-6.72,16.1s-5.07,11.94-6.74,16.1c-.84,2.07-1.5,3.75-2,4.92-.22.57-.4,1-.53,1.34l-.14.35c0,.08,0,.12-.06.11l0-.12.12-.36.5-1.36c.43-1.18,1.08-2.88,1.9-5,1.63-4.18,4-9.87,6.68-16.14s5.08-11.93,6.78-16.06l2-4.9c.23-.57.42-1,.55-1.33l.15-.35Z" style="fill:#e0e0e0"></path><path d="M246.3,315.75l-.11,16.42c-.6,1.72-37.43,96.58-37.43,96.58h14.83l29.85-96.58.21-16.41Z" style="fill:#fafafa"></path><rect x="237.81" y="308.11" width="11.43" height="3.47" rx="1.23" style="fill:#f5f5f5"></rect><path d="M253.37,309.85a1.33,1.33,0,1,1-1.31-1.58A1.47,1.47,0,0,1,253.37,309.85Z" style="fill:#f5f5f5"></path><path d="M129.78,354.28h-56c-5.59,0-10.13-4.88-10.13-10.88h0c0-6,4.54-10.85,10.13-10.85h56Z" style="fill:#ebebeb"></path><path d="M230.55,337.69H115.45v-5.14h115.1a2.49,2.49,0,0,1,2.37,2.57h0A2.5,2.5,0,0,1,230.55,337.69Z" style="fill:#ebebeb"></path><path d="M230.55,354.28H115.45v-5.14h115.1a2.49,2.49,0,0,1,2.37,2.57h0A2.49,2.49,0,0,1,230.55,354.28Z" style="fill:#ebebeb"></path><path d="M229.42,349.14H124.34A5.56,5.56,0,0,1,119,343.4h0a5.55,5.55,0,0,1,5.36-5.71H229.42A9.05,9.05,0,0,0,229.42,349.14Z" style="fill:#f5f5f5"></path><path d="M119,354.28H73.69c-5.55,0-10-4.84-10-10.79h0c0-6,4.58-10.94,10.22-10.94h46.19C109.64,337.32,110.43,348.72,119,354.28Z" style="fill:#e0e0e0"></path><path d="M217.17,342.52s-20.71.38-46.22.15c-24.92-.22-45.16-.4-46.24-.15-.15,0,20.68-.18,46.24-.18S217.17,342.4,217.17,342.52Z" style="fill:#e0e0e0"></path><path d="M226.68,345.6s-20.68.19-46.22.19-46.25,0-46.25-.19,20.72-.18,46.25-.18S226.68,345.51,226.68,345.6Z" style="fill:#e0e0e0"></path><path d="M391.21,137.53a28.41,28.41,0,0,0-17.43-5.81c10.29-5.11,13.93-19.18,9.61-29.82S368.55,84.1,357.48,81c-8.75-2.43-18.26-2.62-26.79.48s-15.94,9.73-19,18.26-1.39,18.88,5,25.32c-10.55-.24-19.46,9.66-20.56,20.15s4.13,20.82,11.43,28.43a17.39,17.39,0,0,0,14.89,29.54c-.07,4.45-.08,16.78-.15,21.23l15.07-.23c-.4-6-.32-21.55-.32-21.55,6,1,10.9-2,14.39-7a16.71,16.71,0,0,0,.75-17.41c10.11,1.59,20.78,2.2,30.31-1.56s17.55-12.89,17.18-23.12A22,22,0,0,0,391.21,137.53Z" style="fill:#f5f5f5"></path><rect x="494.9" y="197.45" width="30.65" height="22.18" style="fill:#f5f5f5"></rect><rect x="645.67" y="199.98" width="30.65" height="22.18" style="fill:#f5f5f5"></rect><rect x="473.96" y="180.16" width="231.38" height="19.83" style="fill:#ebebeb"></rect><path d="M523,74.1V88.67l-34.63,71.4c-4.43,9.14,1.7,20.1,11.25,20.1h74.17c9.59,0,15.72-11,11.21-20.18L550.43,89.92V74.1Z" style="fill:#fff"></path><path d="M573.78,180.35H499.61a12.61,12.61,0,0,1-11-6.71,14.77,14.77,0,0,1-.38-13.65l34.61-71.37V73.92h27.76v16l34.54,70a14.75,14.75,0,0,1-.32,13.7A12.58,12.58,0,0,1,573.78,180.35Z" style="fill:#fff"></path><path d="M573.78,180.35H499.61a12.61,12.61,0,0,1-11-6.71,14.77,14.77,0,0,1-.38-13.65l34.61-71.37V73.92h27.76v16l34.54,70a14.75,14.75,0,0,1-.32,13.7A12.58,12.58,0,0,1,573.78,180.35Z" style="fill:none"></path><path d="M573.78,180.35l.51,0a11.35,11.35,0,0,0,1.47-.17,12,12,0,0,0,5.22-2.26,14,14,0,0,0,5-7.51,14.75,14.75,0,0,0,.4-5.76,14.58,14.58,0,0,0-.75-3.1,28,28,0,0,0-1.42-3.08C576,141.69,564.22,118,550.38,90l0,0v-.05c0-5,0-10.44,0-16l.25.25H522.83l.26-.25V88.68l0,.06c-1.17,2.4-2.42,5-3.68,7.59C509,117.79,499,138.24,490,156.83c-1.1,2.35-2.42,4.56-2.8,7a14.53,14.53,0,0,0,.51,7.24,14,14,0,0,0,3.83,5.91,12.18,12.18,0,0,0,6.11,3,19.93,19.93,0,0,0,3.37.17h9.89l12.26,0,37,.08,10.06.05,2.62,0,.89,0-.89,0-2.62,0-10.06,0-37,.08-12.26,0H501a19.07,19.07,0,0,1-3.44-.17,12.51,12.51,0,0,1-6.34-3.06,14.3,14.3,0,0,1-4-6.09,15,15,0,0,1,.62-11.14l1.67-3.47L518.91,96.1l3.68-7.59,0,.11v-15h28.27v.25c0,5.52,0,10.93,0,16l0-.11c13.77,28,25.45,51.77,33.7,68.53a29.69,29.69,0,0,1,1.41,3.12,14.52,14.52,0,0,1,.74,3.15,14.86,14.86,0,0,1-.43,5.86,14.11,14.11,0,0,1-5.16,7.58,12,12,0,0,1-5.3,2.21A9.61,9.61,0,0,1,573.78,180.35Z" style="fill:#e0e0e0"></path><path d="M526.68,76.28l-.13,12-34.3,73.55c-3,6.16,1.15,13.55,7.58,13.55h73.73c6.46,0,10.59-7.44,7.55-13.61L547.38,88.3l-.17-12Z" style="fill:#f5f5f5"></path><path d="M552.4,76.19H521a3.93,3.93,0,0,1-3.77-4.07h0A3.93,3.93,0,0,1,521,68.05H552.4a3.93,3.93,0,0,1,3.77,4.07h0A3.93,3.93,0,0,1,552.4,76.19Z" style="fill:#fff"></path><path d="M552.4,76.19s.31,0,.87-.16a3.79,3.79,0,0,0,2-1.42,4.27,4.27,0,0,0,.57-3.74,4,4,0,0,0-1.36-2,3.73,3.73,0,0,0-2.56-.69L521,68.31a3.51,3.51,0,0,0-3.2,2.26,4.08,4.08,0,0,0,.43,3.89,3.54,3.54,0,0,0,1.51,1.23,4.49,4.49,0,0,0,1.95.26h4l13.9.06,9.37.08,2.55,0a8.65,8.65,0,0,1,.89,0,5.06,5.06,0,0,1-.89.06l-2.55,0-9.37.08-13.9.05h-4a4.73,4.73,0,0,1-2.14-.29,4.07,4.07,0,0,1-1.74-1.39,4.61,4.61,0,0,1-.49-4.38A4,4,0,0,1,521,67.79l30.92.07a4.06,4.06,0,0,1,2.76.8,4.18,4.18,0,0,1,1.44,2.13,4.43,4.43,0,0,1-.69,3.94,3.72,3.72,0,0,1-2.13,1.4A2.51,2.51,0,0,1,552.4,76.19Z" style="fill:#e0e0e0"></path><path d="M539.24,88.3c-.31,0,11.73,67.93,14.26,68.45s22.34,0,22.34,0L545.74,88.3l-.27-12-7-.09Z" style="fill:#fafafa"></path><path d="M517.42,107.89l0,.09-.11.26-.42,1c-.36.86-.91,2.09-1.6,3.61-1.37,3-3.34,7.21-5.54,11.8s-4.17,8.74-5.54,11.78c-.69,1.52-1.24,2.75-1.62,3.61-.18.42-.33.74-.43,1l-.12.25,0,.09s0,0,0-.09l.11-.27.4-1c.36-.87.89-2.11,1.57-3.64,1.35-3.05,3.3-7.23,5.5-11.81s4.18-8.74,5.58-11.76c.69-1.51,1.26-2.73,1.65-3.59l.45-1,.12-.25A.34.34,0,0,1,517.42,107.89Z" style="fill:#e0e0e0"></path><path d="M528.39,76.28l-.09,12c-.49,1.26-30.82,70.72-30.82,70.72h12.21L534.27,88.3l.17-12Z" style="fill:#fafafa"></path><rect x="521.4" y="70.68" width="9.41" height="2.54" rx="1.23" style="fill:#f5f5f5"></rect><path d="M534.21,72a1.07,1.07,0,1,1-1.07-1.16A1.12,1.12,0,0,1,534.21,72Z" style="fill:#f5f5f5"></path><path d="M491.1,66.72A22.94,22.94,0,0,0,452,52.23a19.76,19.76,0,0,0-36.66-8.14c-4.22,7.1-3.61,19.43,1.82,25.66-6.77.56-12.88,6.32-14.79,12.84a16.94,16.94,0,0,0,25.09,19.23c-2.46,3.24-1.77,8.11.72,11.33s6.38,5,10.28,6.16a42.45,42.45,0,0,0,33.73-4.62c4.51-2.8,8.61-6.65,10.43-11.63s.84-11.21-3.29-14.54A23.47,23.47,0,0,0,491.1,66.72Z" style="fill:#f5f5f5"></path><path d="M89.43,137l4.26,1.6L90,139.62a3.87,3.87,0,0,0-2.62,2.52L86,146.23l-1.64-4.11a3.89,3.89,0,0,0-2.27-2.19l-3.75-1.36,4.06-1.67a3.85,3.85,0,0,0,2.14-2.18L86,130.91l1.06,3.54A3.87,3.87,0,0,0,89.43,137Z" style="fill:#ebebeb"></path><path d="M147.56,300.89l4.27,1.61-3.71,1.05a3.86,3.86,0,0,0-2.61,2.51l-1.34,4.1-1.65-4.11a3.83,3.83,0,0,0-2.27-2.19l-3.74-1.36,4.05-1.67a3.82,3.82,0,0,0,2.14-2.18l1.47-3.81,1.05,3.54A3.83,3.83,0,0,0,147.56,300.89Z" style="fill:#ebebeb"></path><path d="M534.06,267.31l4.26,1.6-3.7,1a3.87,3.87,0,0,0-2.62,2.52l-1.34,4.09L529,272.46a3.89,3.89,0,0,0-2.27-2.19L523,268.91l4.06-1.67a3.85,3.85,0,0,0,2.14-2.18l1.46-3.81,1.05,3.54A3.9,3.9,0,0,0,534.06,267.31Z" style="fill:#ebebeb"></path><path d="M617,287.75l2.41.9-2.09.6a2.17,2.17,0,0,0-1.48,1.42l-.75,2.31-.93-2.32a2.17,2.17,0,0,0-1.28-1.24l-2.12-.77,2.29-.94a2.18,2.18,0,0,0,1.21-1.23l.83-2.15.59,2A2.22,2.22,0,0,0,617,287.75Z" style="fill:#ebebeb"></path><path d="M119.86,68.35l2.67,1-2.32.66a2.38,2.38,0,0,0-1.63,1.57l-.84,2.56-1-2.57a2.4,2.4,0,0,0-1.42-1.37L113,69.35l2.54-1a2.42,2.42,0,0,0,1.33-1.37l.92-2.38.66,2.22A2.4,2.4,0,0,0,119.86,68.35Z" style="fill:#ebebeb"></path><path d="M359.57,220.67l2.67,1-2.32.66a2.4,2.4,0,0,0-1.63,1.57l-.84,2.56-1-2.57a2.46,2.46,0,0,0-1.42-1.37l-2.34-.85,2.54-1a2.43,2.43,0,0,0,1.33-1.36l.92-2.38.65,2.21A2.44,2.44,0,0,0,359.57,220.67Z" style="fill:#ebebeb"></path><path d="M374.71,54.42l2.66,1-2.31.65a2.41,2.41,0,0,0-1.64,1.58l-.84,2.56-1-2.57a2.38,2.38,0,0,0-1.41-1.37l-2.34-.85,2.53-1A2.44,2.44,0,0,0,371.67,53l.91-2.38.66,2.21A2.44,2.44,0,0,0,374.71,54.42Z" style="fill:#ebebeb"></path><path d="M574.15,54.42l2.67,1-2.32.65a2.41,2.41,0,0,0-1.63,1.58L572,60.21l-1-2.57a2.4,2.4,0,0,0-1.42-1.37l-2.34-.85,2.54-1A2.45,2.45,0,0,0,571.11,53l.92-2.38.66,2.21A2.4,2.4,0,0,0,574.15,54.42Z" style="fill:#ebebeb"></path><path d="M168.39,65.82l6.73,2.53L169.28,70a6.11,6.11,0,0,0-4.13,4L163,80.43,160.44,74a6.09,6.09,0,0,0-3.57-3.46L151,68.35l6.4-2.63a6.11,6.11,0,0,0,3.37-3.45l2.31-6,1.66,5.58A6.09,6.09,0,0,0,168.39,65.82Z" style="fill:#ebebeb"></path><path d="M367.87,276l6.73,2.53-5.84,1.65a6.09,6.09,0,0,0-4.13,4l-2.11,6.45-2.6-6.47a6.12,6.12,0,0,0-3.57-3.46l-5.91-2.14,6.4-2.63a6.14,6.14,0,0,0,3.37-3.45l2.31-6,1.66,5.58A6.09,6.09,0,0,0,367.87,276Z" style="fill:#ebebeb"></path><path d="M291.52,210l6.73,2.53-5.84,1.65a6.09,6.09,0,0,0-4.13,4l-2.11,6.45-2.6-6.47a6.06,6.06,0,0,0-3.57-3.46l-5.91-2.14,6.4-2.63a6.11,6.11,0,0,0,3.37-3.45l2.31-6,1.66,5.58A6.09,6.09,0,0,0,291.52,210Z" style="fill:#ebebeb"></path><path d="M645.74,264.55l6.72,2.53-5.84,1.66a6.08,6.08,0,0,0-4.12,4l-2.12,6.46-2.6-6.48a6.07,6.07,0,0,0-3.57-3.45l-5.91-2.15,6.4-2.63a6.06,6.06,0,0,0,3.37-3.44l2.31-6,1.66,5.59A6.06,6.06,0,0,0,645.74,264.55Z" style="fill:#ebebeb"></path><path d="M689.33,82.58H600.82v85.25a11.87,11.87,0,0,0,11.87,11.87h54.63a11.87,11.87,0,0,0,11.87-11.87V91.47h0Z" style="fill:#fff"></path><path d="M689.33,82.58c-.52.45-3.66,3.25-10.08,9l0-.08c0,13.27.06,35.78.11,64.24,0,3.56,0,7.22,0,11a19.46,19.46,0,0,1-.12,2.84,8.51,8.51,0,0,1-.29,1.42,11.26,11.26,0,0,1-.45,1.39,12.12,12.12,0,0,1-8.79,7.37,14.74,14.74,0,0,1-3,.25H625.33c-4.46,0-8.93,0-13.51,0a12.14,12.14,0,0,1-10.57-8.08,12.86,12.86,0,0,1-.43-1.5,13.56,13.56,0,0,1-.21-1.54c-.08-1.05,0-2.05-.05-3.07v-18q0-11.82,0-23.08c0-15,0-29.12,0-42.08v-.23h.23l88.51.23-88.51.22.22-.22c0,13,0,27.1,0,42.08q0,11.25,0,23.08v18c0,1,0,2,0,3a14.62,14.62,0,0,0,.2,1.48,11.88,11.88,0,0,0,.42,1.44,11.6,11.6,0,0,0,10.1,7.73c4.51.08,9,0,13.48,0h38.36a36.86,36.86,0,0,0,6-.23,12,12,0,0,0,5.16-2.52,11.77,11.77,0,0,0,3.29-4.56,10.89,10.89,0,0,0,.44-1.33,9.25,9.25,0,0,0,.28-1.37,18.37,18.37,0,0,0,.12-2.78c0-3.74,0-7.4,0-11,.06-28.46.1-51,.12-64.24v0l0,0Z" style="fill:#e0e0e0"></path><path d="M683.32,82.58h-77.6v80c0,6.15,4.66,11.14,10.41,11.14H664c5.75,0,10.41-5,10.41-11.14V90.92h0Z" style="fill:#f5f5f5"></path><path d="M659.27,116.11a190.52,190.52,0,0,1,19.9,0,190.52,190.52,0,0,1-19.9,0Z" style="fill:#e0e0e0"></path><path d="M659.74,91.71a190.52,190.52,0,0,1,19.9,0,96.71,96.71,0,0,1-9.95.26A96.55,96.55,0,0,1,659.74,91.71Z" style="fill:#e0e0e0"></path><path d="M651.39,129.43c0-.15,6.22-.26,13.89-.26s13.89.11,13.89.26-6.22.26-13.89.26S651.39,129.57,651.39,129.43Z" style="fill:#e0e0e0"></path><path d="M660.21,142.74a173,173,0,0,1,19,0,173,173,0,0,1-19,0Z" style="fill:#e0e0e0"></path><path d="M651.39,156.06c0-.15,6.22-.27,13.89-.27s13.89.12,13.89.27-6.22.26-13.89.26S651.39,156.2,651.39,156.06Z" style="fill:#e0e0e0"></path><path d="M689.33,82.58c0,.14-19.82.31-44.25.37s-44.26,0-44.26-.15,19.81-.31,44.26-.37S689.33,82.43,689.33,82.58Z" style="fill:#263238"></path><path d="M651.39,102.8c0-.15,6.22-.26,13.89-.26s13.89.11,13.89.26-6.22.26-13.89.26S651.39,102.94,651.39,102.8Z" style="fill:#e0e0e0"></path><path d="M690.13,82.69H599.21A2.18,2.18,0,0,1,597,80.5h0a2.18,2.18,0,0,1,2.18-2.19h90.92a2.19,2.19,0,0,1,2.19,2.19h0A2.19,2.19,0,0,1,690.13,82.69Z" style="fill:#fff"></path><path d="M690.13,82.69s.17,0,.5-.09a2.13,2.13,0,0,0,.37-4,3.8,3.8,0,0,0-1.68-.17l-21,.08-69.14.07a2,2,0,0,0-1.77,1.15,1.94,1.94,0,0,0,.33,2.06,1.91,1.91,0,0,0,.92.58,4.73,4.73,0,0,0,1.16.07h12.19l18.36,0,31.08,0,21,.09,5.69,0,1.49,0,.5,0a4.79,4.79,0,0,1-.5,0l-1.49,0-5.69.05-21,.08-31.08.06H599.24a2.65,2.65,0,0,1-.68-.09,2.45,2.45,0,0,1,.66-4.81l69.14.08,21,.08a3.92,3.92,0,0,1,1.75.22,2.26,2.26,0,0,1,.83,3.45,2.17,2.17,0,0,1-1.26.77A1.52,1.52,0,0,1,690.13,82.69Z" style="fill:#e0e0e0"></path><path d="M657.94,174.53c0,.14-8.91.26-19.9.26s-19.9-.12-19.9-.26,8.91-.26,19.9-.26S657.94,174.39,657.94,174.53Z" style="fill:#e0e0e0"></path><path d="M299.39,48.61c-2.14-5-7.55-8-13-8.45s-13.64.81-17.68,4.52c-4.59,2.7-7,10-6.42,15.32a14,14,0,0,0,24.13,8c1.39-1.51,2.49-3.36,4.29-4.35a32.49,32.49,0,0,1,3.66-1.32C299.45,60.32,301.53,53.6,299.39,48.61Z" style="fill:#fafafa"></path></g><g id="freepik--Table--inject-83"><path d="M729.43,458s-158.7.06-354.41.06-354.45,0-354.45-.06,158.66,0,354.45,0S729.43,458,729.43,458Z" style="fill:#263238"></path></g><g id="freepik--tubes-and-flasks--inject-83"><path d="M400.86,345c0,.7-5.68,27.51-11.5,54.83-3.34,15.68-6.74,31.53-9.13,42.72A12.77,12.77,0,0,0,392.72,458H496.3a12.78,12.78,0,0,0,12.53-15.32L489,345Z" style="fill:#fff"></path><path d="M400.86,345l1.56,0,4.61,0,17.69-.06,64.24-.11h.17l0,.17c3.6,17.61,7.65,37.48,12,58.95,2.19,10.74,4.46,21.88,6.79,33.33.29,1.43.58,2.87.88,4.31a16.11,16.11,0,0,1,.45,4.45,13,13,0,0,1-3.56,8.19,13.51,13.51,0,0,1-3.67,2.73,13.91,13.91,0,0,1-4.43,1.27c-1.55.13-3,.05-4.58.07h-4.58l-84.95,0h-9.67a13.56,13.56,0,0,1-9-2.64,13.73,13.73,0,0,1-3.16-3.43,13.39,13.39,0,0,1-1.72-4.25,12.45,12.45,0,0,1-.14-4.51c.22-1.5.59-2.89.88-4.32,2.43-11.35,4.71-21.93,6.78-31.58,4.13-19.3,7.48-34.92,9.79-45.73,1.15-5.39,2-9.58,2.64-12.44l.9-4.34s0,.38-.17,1.12l-.62,3.25c-.59,2.85-1.44,7.05-2.55,12.45-2.27,10.82-5.57,26.45-9.63,45.77-2.06,9.66-4.31,20.23-6.72,31.59-.28,1.42-.66,2.86-.86,4.29a11.59,11.59,0,0,0,.14,4.35,12.88,12.88,0,0,0,1.66,4.11,12.79,12.79,0,0,0,11.76,5.84h9.67l84.95,0h4.58c1.52,0,3.07.05,4.53-.07a13.31,13.31,0,0,0,4.25-1.22,12.78,12.78,0,0,0,3.52-2.62,12.5,12.5,0,0,0,3.42-7.86,15.12,15.12,0,0,0-.44-4.32l-.87-4.31c-2.33-11.45-4.59-22.59-6.77-33.33-4.36-21.47-8.39-41.36-12-59l.21.17-64.11-.11-17.73-.05-4.66,0Z" style="fill:#263238"></path><path d="M108.52,91.7l3.68,40.94h24.46l6.56-41.16S133.22,87.51,108.52,91.7Z" style="fill:#ae7461"></path><path d="M131.9,89.72a4.12,4.12,0,0,0,1.21,4,3.55,3.55,0,0,0,3.81.46,4.13,4.13,0,0,0,1.91-3.69Z" style="fill:#6f4439"></path><circle cx="117.29" cy="98.83" r="2.38" style="fill:#6f4439"></circle><circle cx="129.19" cy="110.14" r="4.59" style="fill:#6f4439"></circle><path d="M129.34,105.57a6.1,6.1,0,0,0-1.68.32,4.9,4.9,0,0,0-1.57,1,4.43,4.43,0,0,0-1.19,1.88,4.24,4.24,0,0,0-.05,2.23,4.75,4.75,0,0,0,.75,1.68,7.57,7.57,0,0,0,1.22,1.21,1.69,1.69,0,0,1-.42-.22,4.34,4.34,0,0,1-.94-.89,4.66,4.66,0,0,1-.84-1.73,4.48,4.48,0,0,1,0-2.35,4.34,4.34,0,0,1,1.28-2,4.57,4.57,0,0,1,1.66-1,4.2,4.2,0,0,1,1.27-.22A1.18,1.18,0,0,1,129.34,105.57Z" style="fill:#263238"></path><path d="M117.65,96.42a6,6,0,0,0-1,.21,2.42,2.42,0,0,0-1,3.93,6,6,0,0,0,.77.65,1.6,1.6,0,0,1-.9-.53,2.51,2.51,0,0,1,1.06-4.21A1.57,1.57,0,0,1,117.65,96.42Z" style="fill:#263238"></path><path d="M135.51,94.59a1.94,1.94,0,0,1-.95,0,3.4,3.4,0,0,1-2-1.07,3.48,3.48,0,0,1-.88-2.11,2,2,0,0,1,.13-.94c.05,0,0,.36.05.93a3.48,3.48,0,0,0,2.76,3C135.14,94.58,135.5,94.55,135.51,94.59Z" style="fill:#263238"></path><rect x="147.49" y="130.55" width="82.7" height="12.9" style="fill:#455a64"></rect><path d="M105.45,126V145.6l-50.33,96a18.45,18.45,0,0,0,16.34,27h107.8a18.45,18.45,0,0,0,16.28-27.14l-50.22-94.17V126Z" style="fill:#fff"></path><path d="M179.26,268.84H71.46a18.69,18.69,0,0,1-16.55-27.37l50.3-95.93V125.78h40.35v21.45l50.2,94.12a18.7,18.7,0,0,1-16.5,27.49ZM105.69,126.26v19.4l0,.05-50.33,96a18.22,18.22,0,0,0,16.13,26.67h107.8a18.21,18.21,0,0,0,16.07-26.78l-50.25-94.23V126.26Z" style="fill:#263238"></path><path d="M110.81,137l-.18,8.11L60.78,244a12.43,12.43,0,0,0,11,18.21H178.94a12.43,12.43,0,0,0,11-18.28l-49-98.79-.26-8.11Z" style="fill:#e0e0e0"></path><path d="M189.91,243.9l-23.12-46.59H84.3L60.78,244a12.43,12.43,0,0,0,11,18.21H178.94A12.43,12.43,0,0,0,189.91,243.9Z" style="fill:#F9A8D4"></path><path d="M148.19,128.84H102.54a5.48,5.48,0,0,1-5.48-5.48h0a5.47,5.47,0,0,1,5.48-5.47h45.65a5.47,5.47,0,0,1,5.47,5.47h0A5.47,5.47,0,0,1,148.19,128.84Z" style="fill:#fff"></path><path d="M148.19,128.84a9.66,9.66,0,0,0,1.26-.18,5.48,5.48,0,0,0,4.06-4.3,5.64,5.64,0,0,0,.06-1.49,5.83,5.83,0,0,0-.38-1.56,5.54,5.54,0,0,0-2.32-2.63,5.37,5.37,0,0,0-1.83-.63A12.7,12.7,0,0,0,147,118l-44.44,0a6.27,6.27,0,0,0-1.56.24,5.77,5.77,0,0,0-1.42.67,5.37,5.37,0,0,0-2,2.37,5.93,5.93,0,0,0-.38,1.49,5.6,5.6,0,0,0,0,1.53A5.33,5.33,0,0,0,98.6,127a5,5,0,0,0,1.15,1,5.59,5.59,0,0,0,1.35.59,11,11,0,0,0,2.93.2h5.77l20,0,13.47,0,3.66,0,1,0h-1l-3.66,0-13.47,0-20,0h-7.25a6.05,6.05,0,0,1-1.52-.21,5.73,5.73,0,0,1-2.61-1.6,5.63,5.63,0,0,1-1.39-2.8,6,6,0,0,1-.06-1.59,6.39,6.39,0,0,1,.4-1.56,6.13,6.13,0,0,1,.84-1.39,6,6,0,0,1,1.21-1.1,6.27,6.27,0,0,1,1.48-.7,6.51,6.51,0,0,1,1.64-.25l44.44,0a14.56,14.56,0,0,1,2.09.08,5.55,5.55,0,0,1,4.25,3.37,5.73,5.73,0,0,1,.31,3.13,5.56,5.56,0,0,1-1.11,2.4,5.41,5.41,0,0,1-3.06,1.93,4.57,4.57,0,0,1-1,.12Z" style="fill:#263238"></path><rect x="104.25" y="128.89" width="43.23" height="16.21" style="fill:#263238"></rect><path d="M166.79,197.31c0,3.05-18.46,5.52-41.24,5.52s-41.25-2.47-41.25-5.52,18.47-5.52,41.25-5.52S166.79,194.26,166.79,197.31Z" style="fill:#F9A8D4"></path><g style="opacity:0.30000000000000004"><path d="M166.79,197.31c0,3.05-18.46,5.52-41.24,5.52s-41.25-2.47-41.25-5.52,18.47-5.52,41.25-5.52S166.79,194.26,166.79,197.31Z" style="fill:#fff"></path></g><g style="opacity:0.30000000000000004"><path d="M129.07,145.11c-.46,0,17,91.31,20.72,92s32.46,0,32.46,0l-43.75-92Z" style="fill:#fff"></path></g><g style="opacity:0.30000000000000004"><path d="M53.23,253.13H197.74c-.74,4.77-7.28,15.2-17.07,15.47H70.53c-8.37,0-16.38-8.13-17.3-15.47Z"></path></g><path d="M97.35,171.44a.67.67,0,0,1,0,.12l-.15.35-.61,1.33c-.53,1.16-1.33,2.82-2.33,4.86-2,4.09-4.85,9.69-8,15.85s-6.06,11.75-8,15.84c-1,2-1.81,3.7-2.35,4.85L75.13,216l-.18.34-.06.11s0,0,0-.12l.15-.35.59-1.34c.52-1.16,1.29-2.83,2.28-4.89,2-4.1,4.79-9.71,8-15.88S92,182.09,94.05,178c1-2,1.83-3.66,2.4-4.82l.65-1.31.18-.34C97.32,171.47,97.34,171.44,97.35,171.44Z" style="fill:#263238"></path><g style="opacity:0.30000000000000004"><path d="M115,145.11h-1.8c-.72,1.69-44.8,95.06-44.8,95.06H86.12l35.72-95.06Z" style="fill:#fff"></path></g><g style="opacity:0.30000000000000004"><path d="M105.43,233.06a2.49,2.49,0,1,1-2.22-2.74A2.49,2.49,0,0,1,105.43,233.06Z"></path></g><g style="opacity:0.30000000000000004"><path d="M140.31,223.2a2.49,2.49,0,1,1-2.21-2.74A2.49,2.49,0,0,1,140.31,223.2Z"></path></g><g style="opacity:0.30000000000000004"><circle cx="108.46" cy="223.8" r="1.47"></circle></g><g style="opacity:0.30000000000000004"><path d="M144.4,231a1.47,1.47,0,1,1-1.47-1.46A1.47,1.47,0,0,1,144.4,231Z"></path></g><g style="opacity:0.30000000000000004"><path d="M129.57,210.4a1.47,1.47,0,1,1-1.47-1.46A1.47,1.47,0,0,1,129.57,210.4Z"></path></g><g style="opacity:0.30000000000000004"><path d="M119,242.45a2.28,2.28,0,1,1-2.28-2.28A2.28,2.28,0,0,1,119,242.45Z"></path></g><path d="M115.1,124.85H104.84a1.71,1.71,0,0,1-1.71-1.71h0a1.72,1.72,0,0,1,1.71-1.71H115.1a1.71,1.71,0,0,1,1.71,1.71h0A1.7,1.7,0,0,1,115.1,124.85Z" style="fill:#e0e0e0"></path><circle cx="120.53" cy="123.36" r="1.56" style="fill:#e0e0e0"></circle><path d="M407.57,348.1c0,1-13.61,70.84-18.58,94a6.69,6.69,0,0,0,6.54,8.09H496a6.22,6.22,0,0,0,6.1-7.47l-18.6-94.65Z" style="fill:#e0e0e0"></path><path d="M497.31,418.31l4.8,24.44a6.22,6.22,0,0,1-6.1,7.47H395.53a6.69,6.69,0,0,1-6.54-8.09c1.28-6,10.75-53,12.8-63.24,0,0,23.93.51,46,0s41.75,0,41.75,0Z" style="fill:#F9A8D4"></path><g style="opacity:0.30000000000000004"><path d="M408,348.15l-19,94.08a6.71,6.71,0,0,0,6.58,8h66.9s-57.58-1.79-62.53-9.11S408,348.15,408,348.15Z"></path></g><path d="M482.52,450.27c0,.07-17.11.13-38.22.13s-38.23-.06-38.23-.13,17.11-.13,38.23-.13S482.52,450.2,482.52,450.27Z" style="fill:#263238"></path><g style="opacity:0.2"><path d="M456.89,431.54a2.75,2.75,0,1,1-2.75-2.75A2.75,2.75,0,0,1,456.89,431.54Z"></path></g><g style="opacity:0.2"><path d="M412.34,435.11a2.75,2.75,0,1,1-2.75-2.74A2.75,2.75,0,0,1,412.34,435.11Z"></path></g><g style="opacity:0.2"><path d="M473.7,440a4.9,4.9,0,1,1-4.89-4.9A4.89,4.89,0,0,1,473.7,440Z"></path></g><g style="opacity:0.2"><path d="M447.81,429.89a1.65,1.65,0,1,1-1.65-1.65A1.65,1.65,0,0,1,447.81,429.89Z"></path></g><g style="opacity:0.2"><path d="M495.16,423.38a1.66,1.66,0,1,1-1.66-1.65A1.65,1.65,0,0,1,495.16,423.38Z"></path></g><path d="M491,347.67H399a3.93,3.93,0,0,1-4-3.81h0a3.94,3.94,0,0,1,4-3.82H491a3.94,3.94,0,0,1,4,3.82h0A3.93,3.93,0,0,1,491,347.67Z" style="fill:#fff"></path><path d="M491,347.67a4.54,4.54,0,0,0,2-.57,3.84,3.84,0,0,0,1.66-1.84,3.56,3.56,0,0,0-.27-3.28,4,4,0,0,0-3.66-1.82l-5.23,0-12.75,0L399,340.3a3.75,3.75,0,0,0-3.7,2.82,3.43,3.43,0,0,0,.35,2.39,3.78,3.78,0,0,0,1.82,1.6,4.5,4.5,0,0,0,1.19.29c.4,0,.86,0,1.29,0h27.35l33.19.06,22.38.08,6.08.05,1.58,0c.36,0,.54,0,.54,0l-.54,0-1.58,0-6.08,0-22.38.09-33.19.05-19.6,0H399.9c-.44,0-.85,0-1.33,0a4.83,4.83,0,0,1-1.35-.32,4.24,4.24,0,0,1-2.07-1.83,4,4,0,0,1-.41-2.76,4.28,4.28,0,0,1,4.21-3.22l73.83.07,12.75,0,5.23,0a4.27,4.27,0,0,1,3.83,2,3.73,3.73,0,0,1,.25,3.45,4,4,0,0,1-1.76,1.88,3.91,3.91,0,0,1-1.52.46A3.16,3.16,0,0,1,491,347.67Z" style="fill:#263238"></path><rect x="226.79" y="68.91" width="10.31" height="389.12" style="fill:#455a64"></rect><rect x="224.55" y="129.74" width="14.52" height="14.52" style="fill:#263238"></rect><rect x="237.79" y="235.06" width="66.47" height="9.89" transform="translate(542.06 480) rotate(180)" style="fill:#455a64"></rect><rect x="225.52" y="233.4" width="14.52" height="14.52" transform="translate(465.56 481.32) rotate(180)" style="fill:#263238"></rect><path d="M336.53,291.38c-9.64-14.93-4.6-60.66-4.6-61.59H309.05c0,.93,4.81,46.66-4.84,61.59s-40.74,21.15-37.94,43.55c2.6,20.85,23.82,37.39,54.1,37.31,30.29.08,51.51-16.46,54.11-37.31C377.28,312.53,346.18,306.31,336.53,291.38Z" style="fill:#fff"></path><path d="M336.53,291.38s.22.29.63.86l.34.49.45.55a18,18,0,0,0,1.19,1.37,54.12,54.12,0,0,0,9.24,7.65c2.14,1.49,4.58,3.07,7.22,4.83s5.51,3.7,8.38,6.06a41.3,41.3,0,0,1,4.22,3.9,26.4,26.4,0,0,1,3.72,4.88,20,20,0,0,1,2.37,6,20.69,20.69,0,0,1,.29,6.82,35.82,35.82,0,0,1-4.71,13.8,41.83,41.83,0,0,1-10.54,11.8,53.29,53.29,0,0,1-14.95,8,68.37,68.37,0,0,1-17.64,3.65,80.48,80.48,0,0,1-18.92-.74,62.28,62.28,0,0,1-18.77-6.07,48.42,48.42,0,0,1-8.51-5.56,42.41,42.41,0,0,1-7.2-7.4l-.78-1-.73-1.09-.36-.54-.34-.57-.67-1.13-.61-1.16c-.21-.38-.41-.78-.59-1.18l-.55-1.2-.48-1.23-.25-.61-.21-.63-.41-1.26c-.22-.86-.5-1.7-.66-2.58a31.17,31.17,0,0,1-.72-5.29,19.78,19.78,0,0,1,1.52-8.3,24.34,24.34,0,0,1,4.57-7,47.37,47.37,0,0,1,6.14-5.56c2.17-1.68,4.42-3.23,6.67-4.73A154.55,154.55,0,0,0,297.93,298a32.48,32.48,0,0,0,5.41-5.59,23.7,23.7,0,0,0,3.37-6.84,69.81,69.81,0,0,0,2.76-14.67c.45-4.88.63-9.68.66-14.37.05-9.38-.46-18.32-1.18-26.75v-.1H332v.09c-1.78,19.24-1.69,34.94-.24,45.64.36,2.68.82,5,1.29,7.05.28,1,.49,1.94.78,2.77.13.42.26.81.38,1.19s.28.72.4,1.05c.24.68.52,1.24.74,1.73.12.24.22.46.32.67l.3.53c.36.63.54,1,.54,1l-.56-.95c-.09-.15-.2-.33-.31-.53l-.32-.67a18.62,18.62,0,0,1-.75-1.72l-.42-1.05c-.12-.38-.25-.77-.38-1.19-.3-.83-.51-1.77-.79-2.77-.49-2-.95-4.38-1.32-7.05-1.48-10.71-1.6-26.44.16-45.66l.09.09H309.05l.1-.1c.73,8.4,1.25,17.37,1.2,26.75,0,4.7-.2,9.5-.65,14.39a69.86,69.86,0,0,1-2.76,14.72,24.07,24.07,0,0,1-3.41,6.91,32.6,32.6,0,0,1-5.44,5.64A153.83,153.83,0,0,1,285,307.44c-2.24,1.51-4.48,3.05-6.65,4.73a47.52,47.52,0,0,0-6.1,5.52,24.2,24.2,0,0,0-4.53,6.93,19.58,19.58,0,0,0-1.5,8.19,30.83,30.83,0,0,0,.71,5.25c.16.87.44,1.71.66,2.56l.41,1.25.21.62.24.61.48,1.22.55,1.19a12.89,12.89,0,0,0,.58,1.18l.61,1.15.67,1.12.33.56.36.54.72,1.08.78,1.05a42.25,42.25,0,0,0,7.15,7.36,48.31,48.31,0,0,0,8.47,5.53,62.44,62.44,0,0,0,18.69,6.06,80.6,80.6,0,0,0,18.87.74,67.81,67.81,0,0,0,17.58-3.63,53,53,0,0,0,14.9-8,41.89,41.89,0,0,0,10.5-11.74,35.63,35.63,0,0,0,4.71-13.72,20.66,20.66,0,0,0-.28-6.77,20.32,20.32,0,0,0-2.34-6,26.94,26.94,0,0,0-3.69-4.85,43.65,43.65,0,0,0-4.21-3.91c-2.86-2.36-5.73-4.28-8.36-6.06s-5.07-3.36-7.21-4.85a53.66,53.66,0,0,1-9.22-7.69c-.47-.5-.85-1-1.18-1.38-.16-.21-.31-.39-.45-.56l-.33-.49C336.73,291.68,336.53,291.38,336.53,291.38Z" style="fill:#263238"></path><path d="M332.25,235.27H308.06a5.48,5.48,0,0,1-5.48-5.48h0a5.47,5.47,0,0,1,5.48-5.47h24.19a5.47,5.47,0,0,1,5.48,5.47h0A5.48,5.48,0,0,1,332.25,235.27Z" style="fill:#fff"></path><path d="M334.35,295.85c-10.48-13.47-6-59.76-6-60.58H312.54c1,0,4.76,45.32-3.72,58.44s-38.66,20.73-36.2,40.41c2.29,18.32,20.93,32.85,47.54,32.77,26.6.08,45.24-14.45,47.54-32.77C370.16,314.44,343.94,308.18,334.35,295.85Z" style="fill:#e0e0e0"></path><path d="M363.44,320h-.86a8.33,8.33,0,0,0-10-2,6.35,6.35,0,0,0-10.82-1.27,12.12,12.12,0,0,0-24,1.17,6.69,6.69,0,0,0-12,.39,9.43,9.43,0,0,0-18.32-.29,7.52,7.52,0,0,0-10,2h-.26c-3.25,4-5.12,8.58-4.44,14.1,2.3,18.32,20.94,32.85,47.54,32.77,26.61.08,45.25-14.45,47.54-32.77C368.51,329.3,366.49,323.08,363.44,320Zm-66.73,7.2a6.76,6.76,0,1,1,6.76-6.76A6.75,6.75,0,0,1,296.71,327.22Zm15-3.36a3.4,3.4,0,1,1,3.4-3.4A3.4,3.4,0,0,1,311.72,323.86Zm7.78,3.4a3.4,3.4,0,1,1,3.4-3.4A3.4,3.4,0,0,1,319.5,327.26Zm10.23-4.15a6.8,6.8,0,1,1,6.79-6.8A6.8,6.8,0,0,1,329.73,323.11ZM347.12,326a4.35,4.35,0,1,1,4.35-4.35A4.35,4.35,0,0,1,347.12,326Z" style="fill:#455a64"></path><g style="opacity:0.30000000000000004"><path d="M308.14,339.1a2.49,2.49,0,0,1-4.95-.53,2.49,2.49,0,0,1,4.95.53Z"></path></g><g style="opacity:0.30000000000000004"><path d="M308.12,325a1.9,1.9,0,1,1-1.69-2.09A1.89,1.89,0,0,1,308.12,325Z"></path></g><g style="opacity:0.30000000000000004"><path d="M315.67,326.66a1.22,1.22,0,0,1-2-1.36,1.22,1.22,0,0,1,2,1.36Z"></path></g><g style="opacity:0.30000000000000004"><path d="M288.21,326.24a2.49,2.49,0,0,1-4.95-.53,2.49,2.49,0,1,1,4.95.53Z"></path></g><g style="opacity:0.30000000000000004"><path d="M329.32,346.73a4.27,4.27,0,1,1-3.79-4.7A4.26,4.26,0,0,1,329.32,346.73Z"></path></g><g style="opacity:0.30000000000000004"><circle cx="317.99" cy="337.55" r="2.1"></circle></g><g style="opacity:0.30000000000000004"><path d="M324.8,271.17l-.17-35.83-5.66-.07s.47,55.67,2.62,61.58c3.84,10.54,16.33,28,16.34,47.95l19.93-4.3s1.46-16-25.13-40.26a3.7,3.7,0,0,1-.36-.4,28.23,28.23,0,0,1-7-16.65C325.12,279.52,324.86,275.2,324.8,271.17Z" style="fill:#fff"></path></g><circle cx="308.32" cy="310.21" r="2.26" style="fill:#455a64"></circle><path d="M316.2,302.74a3.32,3.32,0,1,1-3.32-3.32A3.32,3.32,0,0,1,316.2,302.74Z" style="fill:#455a64"></path><path d="M281,351.46s-.08-.07-.22-.23l-.58-.7c-.49-.61-1.21-1.5-2-2.64a32.8,32.8,0,0,1-2.61-4.21A28.35,28.35,0,0,1,273.4,338a21.29,21.29,0,0,1-.22-10.92A14.73,14.73,0,0,1,274.4,324a7,7,0,0,1,.46-.79l.17-.26s-.2.39-.55,1.09a15.6,15.6,0,0,0-1.12,3.11,21.57,21.57,0,0,0,.29,10.82,29,29,0,0,0,2.1,5.63,35.79,35.79,0,0,0,2.55,4.21c.81,1.15,1.5,2,2,2.68l.54.73A1.61,1.61,0,0,1,281,351.46Z" style="fill:#263238"></path><path d="M313.92,247.63a1.73,1.73,0,0,1,.05.4c0,.28.06.66.1,1.14.07,1,.16,2.44.24,4.23.16,3.57.28,8.51,0,14-.14,2.73-.38,5.32-.65,7.66s-.62,4.46-1,6.21c-.15.88-.34,1.67-.48,2.36s-.29,1.29-.42,1.78-.22.83-.29,1.11a1.89,1.89,0,0,1-.12.38,2.69,2.69,0,0,1,.07-.39c.06-.28.14-.66.25-1.13s.24-1.08.37-1.78.31-1.48.45-2.36c.32-1.76.63-3.86.91-6.2s.49-4.93.63-7.65c.27-5.44.18-10.38.06-14-.05-1.78-.12-3.22-.16-4.22,0-.48,0-.87-.05-1.15Z" style="fill:#263238"></path><path d="M362.12,348.72a2.08,2.08,0,0,1,.16-.33l.51-.91c.44-.8,1.1-1.94,1.86-3.38a36.29,36.29,0,0,0,2.33-5.19,18,18,0,0,0,.92-6.85,21.35,21.35,0,0,0-.51-3.56,22.63,22.63,0,0,0-1-3.2,24.48,24.48,0,0,0-2.79-4.94,31.66,31.66,0,0,0-2.45-3c-.31-.34-.57-.58-.73-.75a1.88,1.88,0,0,1-.24-.28l.28.24c.17.16.44.4.76.72a28.31,28.31,0,0,1,2.52,2.93,22.13,22.13,0,0,1,3.93,8.18,21,21,0,0,1,.52,3.6,17.66,17.66,0,0,1-1,6.94,34.38,34.38,0,0,1-2.38,5.21c-.79,1.43-1.47,2.55-1.93,3.34-.23.37-.42.66-.55.89A1.54,1.54,0,0,1,362.12,348.72Z" style="fill:#263238"></path><path d="M571.19,259.83a61.13,61.13,0,0,0-9.59-23.58,56.48,56.48,0,0,0-17.92-17A49.47,49.47,0,0,0,496,217.67,53.9,53.9,0,0,0,477.5,233a62,62,0,0,0-11.16,23.22,68.15,68.15,0,0,0-1.84,16.12V397.5c0,1.89,1.5,3.69,3.27,3.6a3.5,3.5,0,0,0,3.27-3.6V271.66q0-2.93.27-5.83c.05-.49.12-1,.16-1.49,0,.05,0,.08,0,.11s0-.09,0-.14c0-.33.09-.66.14-1q.22-1.53.54-3a57.68,57.68,0,0,1,1.59-6.11c.31-1,.67-2,1-2.93v0c.11-.25.21-.51.32-.77q.28-.7.6-1.41a57.61,57.61,0,0,1,2.76-5.43c.51-.88,1-1.73,1.58-2.57.25-.39.51-.77.77-1.15l.06-.09,0,0,.47-.66a54.23,54.23,0,0,1,7.89-8.59l.07-.06,0,0,.52-.43q.57-.47,1.14-.9c.77-.6,1.55-1.17,2.35-1.71a47.43,47.43,0,0,1,5-3c.42-.22.85-.44,1.29-.65.11-.05.76-.38.31-.15s.29-.13.42-.19c.89-.39,1.78-.76,2.68-1.09a48.18,48.18,0,0,1,5.57-1.69c1-.22,1.91-.42,2.88-.58.18,0,.36,0,.54-.09l.16,0,1.59-.19a46.15,46.15,0,0,1,5.76-.21c1,0,1.92.08,2.88.16.49,0,1,.09,1.48.15l.68.09.15,0a53.24,53.24,0,0,1,5.7,1.27,46.76,46.76,0,0,1,5.46,2l.62.27.3.13a.45.45,0,0,0,.21,0c.32.15.64.37.91.51.86.43,1.71.9,2.54,1.39a46.6,46.6,0,0,1,4.83,3.22l1.06.82.53.42.54.46.16.14.51.45,1.16,1.07a56.45,56.45,0,0,1,4,4.22c.63.76,1.25,1.53,1.85,2.32.3.4.58.81.88,1.21l0,0,.45.66A59.89,59.89,0,0,1,562,251.33l0,0,.24.67c.19.53.37,1.06.55,1.59q.49,1.49.9,3a62,62,0,0,1,1.34,6.22c.08.49.15,1,.22,1.47,0,.05,0,.1,0,.14v-.11c0,.33.07.66.11,1q.17,1.64.24,3.27c.06,1.07.08,2.15.08,3.23V317c0,1.89,1.5,3.69,3.27,3.6a3.5,3.5,0,0,0,3.27-3.6V274.82A84.5,84.5,0,0,0,571.19,259.83Zm-96.54-8.27a1.48,1.48,0,0,1,.1-.27C474.71,251.41,474.65,251.56,474.65,251.56Zm14.69-21.13a1.55,1.55,0,0,1,.25-.21Zm66.42,9.17a1.91,1.91,0,0,1,.15.21Z" style="fill:#f5f5f5"></path><path d="M571.19,259.83a61.13,61.13,0,0,0-9.59-23.58,56.48,56.48,0,0,0-17.92-17A49.47,49.47,0,0,0,496,217.67,53.9,53.9,0,0,0,477.5,233a62,62,0,0,0-11.16,23.22,68.15,68.15,0,0,0-1.84,16.12V397.5c0,1.89,1.5,3.69,3.27,3.6a3.5,3.5,0,0,0,3.27-3.6V271.66q0-2.93.27-5.83c.05-.49.12-1,.16-1.49,0,.05,0,.08,0,.11s0-.09,0-.14c0-.33.09-.66.14-1q.22-1.53.54-3a57.68,57.68,0,0,1,1.59-6.11c.31-1,.67-2,1-2.93v0c.11-.25.21-.51.32-.77q.28-.7.6-1.41a57.61,57.61,0,0,1,2.76-5.43c.51-.88,1-1.73,1.58-2.57.25-.39.51-.77.77-1.15l.06-.09,0,0,.47-.66a54.23,54.23,0,0,1,7.89-8.59l.07-.06,0,0,.52-.43q.57-.47,1.14-.9c.77-.6,1.55-1.17,2.35-1.71a47.43,47.43,0,0,1,5-3c.42-.22.85-.44,1.29-.65.11-.05.76-.38.31-.15s.29-.13.42-.19c.89-.39,1.78-.76,2.68-1.09a48.18,48.18,0,0,1,5.57-1.69c1-.22,1.91-.42,2.88-.58.18,0,.36,0,.54-.09l.16,0,1.59-.19a46.15,46.15,0,0,1,5.76-.21c1,0,1.92.08,2.88.16.49,0,1,.09,1.48.15l.68.09.15,0a53.24,53.24,0,0,1,5.7,1.27,46.76,46.76,0,0,1,5.46,2l.62.27.3.13a.45.45,0,0,0,.21,0c.32.15.64.37.91.51.86.43,1.71.9,2.54,1.39a46.6,46.6,0,0,1,4.83,3.22l1.06.82.53.42.54.46.16.14.51.45,1.16,1.07a56.45,56.45,0,0,1,4,4.22c.63.76,1.25,1.53,1.85,2.32.3.4.58.81.88,1.21l0,0,.45.66A59.89,59.89,0,0,1,562,251.33l0,0,.24.67c.19.53.37,1.06.55,1.59q.49,1.49.9,3a62,62,0,0,1,1.34,6.22c.08.49.15,1,.22,1.47,0,.05,0,.1,0,.14v-.11c0,.33.07.66.11,1q.17,1.64.24,3.27c.06,1.07.08,2.15.08,3.23V317c0,1.89,1.5,3.69,3.27,3.6a3.5,3.5,0,0,0,3.27-3.6V274.82A84.5,84.5,0,0,0,571.19,259.83Zm-96.54-8.27a1.48,1.48,0,0,1,.1-.27C474.71,251.41,474.65,251.56,474.65,251.56Zm14.69-21.13a1.55,1.55,0,0,1,.25-.21Zm66.42,9.17a1.91,1.91,0,0,1,.15.21Z" style="fill:none"></path><path d="M555.76,239.6a.26.26,0,0,1,.36.06l-.43.28h0v-.06a.42.42,0,0,1,.1-.27.2.2,0,0,1,.18-.06l.1,0,.05,0,0,0h0l-.43.29A.25.25,0,0,1,555.76,239.6Z" style="fill:#263238"></path><path d="M489.34,230.43s0-.1,0-.09a.21.21,0,0,1,0-.11.49.49,0,0,1,0-.11l0-.05,0,0v0h0s0,0-.05.06l.09.36.21,0,.05,0c0,.05,0-.13-.13-.14a.42.42,0,0,0-.25.12s-.07.08-.1,0,.09-.37.23-.44l0,0,.21,0,.09.36-.05.06h0l0,0-.06,0-.12,0a.18.18,0,0,1-.1,0C489.32,230.53,489.3,230.44,489.34,230.43Z" style="fill:#263238"></path><path d="M474.65,251.56a.28.28,0,0,1-.14-.36l.48.2h0v0l0,0-.08.05a.46.46,0,0,1-.21,0,.18.18,0,0,1-.15-.12.25.25,0,0,1,0-.12.2.2,0,0,1,0-.07v-.05h0l.48.21A.28.28,0,0,1,474.65,251.56Z" style="fill:#263238"></path><path d="M571.19,259.83s.15.71.36,2.1.46,3.49.62,6.24.18,6.16.18,10.18,0,8.65,0,13.87,0,11,0,17.36c0,1.59,0,3.21,0,4.86V317a4,4,0,0,1-.83,2.46,3.54,3.54,0,0,1-2.31,1.3,3,3,0,0,1-2.52-.91,4.05,4.05,0,0,1-1.16-2.5c0-.93,0-1.83,0-2.76,0-7.4,0-15.31,0-23.69q0-6.28,0-12.92a117.37,117.37,0,0,0-.44-13.57l.39,0v.11l-.39,0a58,58,0,0,0-1.08-5.84c-.23-1-.48-2-.78-2.93s-.57-2-.93-2.93a56.59,56.59,0,0,0-5.57-11.32,51.69,51.69,0,0,0-8.53-10,46.49,46.49,0,0,0-5.34-4.16c-1.88-1.29-3.94-2.34-6-3.45l.12,0a1.36,1.36,0,0,1-.29-.06l-.19-.08-.35-.15-.7-.31-1.41-.57c-1-.36-1.92-.7-2.9-1a48.27,48.27,0,0,0-6-1.43,45.3,45.3,0,0,0-12.64-.13,45.85,45.85,0,0,0-12.44,3.66l-.1,0,0,0h-.05c-.07,0,.12,0-.17,0-.09-.88,0-.25,0-.45h0l.05,0,.09-.05.09,0h0c0,.18-.15-.36,0,.44h.16l-.05,0-.19.09-.74.37-1.47.76c-1,.53-1.92,1.1-2.86,1.69s-1.84,1.25-2.74,1.91-1.79,1.34-2.66,2.06h0a53.66,53.66,0,0,0-8.35,9.22c-.61.86-1.19,1.78-1.74,2.71s-1.13,1.85-1.64,2.81a60.4,60.4,0,0,0-2.76,6v0c-.34,1-.7,2-1.06,3.08s-.64,2.13-.92,3.24a67.93,67.93,0,0,0-1.31,6.82l-.5-.05v-.11l.5,0c-.63,6.76-.37,13.69-.43,20.7s0,14.13,0,21.33V397.2a4.3,4.3,0,0,1-.49,2.23,3.56,3.56,0,0,1-4,1.82,3.93,3.93,0,0,1-2.6-3.52c0-1.45,0-2.89,0-4.33v-8.58c0-22.76,0-44.72,0-65.64q0-15.69,0-30.57,0-7.44,0-14.65a73.77,73.77,0,0,1,1.09-14.16c3.35-18.42,14.71-33.71,28.67-41.29a51.24,51.24,0,0,1,21.57-6.28,49.81,49.81,0,0,1,19.83,3,51.24,51.24,0,0,1,15.14,8.72,58.46,58.46,0,0,1,10,10.75,59.8,59.8,0,0,1,9,18.22c.66,2.24,1,4,1.29,5.14s.32,1.78.32,1.78l-.38-1.77c-.26-1.16-.66-2.89-1.33-5.12a60.37,60.37,0,0,0-9-18.13,59.17,59.17,0,0,0-10-10.68,51.17,51.17,0,0,0-15.09-8.63,49.48,49.48,0,0,0-19.71-2.94,50.94,50.94,0,0,0-21.41,6.27c-13.84,7.54-25.12,22.75-28.43,41A73.55,73.55,0,0,0,464.72,274q0,7.21,0,14.65,0,14.86,0,30.57c0,20.92,0,42.88,0,65.64v8.58c0,1.43,0,2.86,0,4.3a3.39,3.39,0,0,0,2.23,3.05,3,3,0,0,0,3.36-1.57,3.79,3.79,0,0,0,.42-2V285.06c.06-7-.2-13.94.44-20.74l.5,0v.11l-.5-.05a66.58,66.58,0,0,1,1.33-6.89c.28-1.11.59-2.2.92-3.26s.73-2.09,1.07-3.09h0a58.73,58.73,0,0,1,2.79-6c.51-1,1.07-1.92,1.65-2.84s1.13-1.85,1.76-2.74a54.88,54.88,0,0,1,8.41-9.28h0c.86-.72,1.75-1.43,2.67-2.08s1.82-1.33,2.77-1.92,1.92-1.17,2.9-1.71c.48-.27,1-.52,1.48-.77l.74-.37.19-.09.05,0h0l.18,0c.21.79,0,.26,0,.44h0l-.1.05-.09,0,0,0h0c-.05-.12.09.28-.11-.27-.1-.06-.11-.24-.1-.16h0l0,0,.1,0a43.64,43.64,0,0,1,25.36-3.55,47.77,47.77,0,0,1,6.09,1.45c1,.31,2,.64,2.93,1l1.43.58.7.3.35.16.16.07H537s0,.11,0,.16l.1-.13a68.34,68.34,0,0,1,6,3.5,44.42,44.42,0,0,1,5.39,4.2,51.53,51.53,0,0,1,8.59,10.1,57.28,57.28,0,0,1,5.61,11.42c.36,1,.62,2,.92,2.95s.56,2,.79,2.94a58.93,58.93,0,0,1,1.08,5.89l-.39,0v-.11l.39,0a115.81,115.81,0,0,1,.42,13.6q0,6.63,0,12.92c0,8.38,0,16.29,0,23.69,0,.92,0,1.85,0,2.73a3.8,3.8,0,0,0,1.07,2.31,2.67,2.67,0,0,0,2.27.84,3.23,3.23,0,0,0,2.12-1.19c1.13-1.32.68-3.17.78-4.79v-4.86c0-6.34,0-12.14,0-17.36s0-9.85,0-13.87,0-7.43-.13-10.18-.37-4.83-.56-6.23c-.1-.69-.17-1.22-.23-1.58S571.19,259.83,571.19,259.83Z" style="fill:#263238"></path><path d="M468.29,396.77c0-1.17,0-2.34,0-3.51q0-4.77,0-9.55,0-7,0-14,0-8.52,0-17.05l0-18.56,0-18.54q0-8.49,0-17,0-7,0-14c0-3.16,0-6.33,0-9.49,0-1.24,0-2.47,0-3.71a59.27,59.27,0,0,1,5.33-24.46,54.31,54.31,0,0,1,14.17-18.82,48.08,48.08,0,0,1,20.47-10.24,45.6,45.6,0,0,1,23.1.91,48.6,48.6,0,0,1,19.59,11.66,55.51,55.51,0,0,1,13,19.85,60.24,60.24,0,0,1,3.91,21.57V317a.82.82,0,1,0,1.63,0V274.93a82.49,82.49,0,0,0-.91-14,59.22,59.22,0,0,0-9.18-23A53.61,53.61,0,0,0,542.8,221.8a47.29,47.29,0,0,0-44.93-2.09,52,52,0,0,0-18.13,14.57,58.7,58.7,0,0,0-10.82,21.81,64.46,64.46,0,0,0-2,16.15c0,2.06,0,4.13,0,6.19l0,11.7q0,7.88,0,15.75,0,9,0,18.07l-.05,18.92q0,9.11,0,18.21,0,8,0,15.94,0,6.06,0,12.12l0,6.76v.87a.82.82,0,1,0,1.63,0Z" style="fill:#F9A8D4"></path><g style="opacity:0.30000000000000004"><path d="M320.37,372.24c30.29.08,51.51-16.46,54.11-37.31.08-.58.12-1.14.15-1.7l-.06-.49a73.33,73.33,0,0,1-52.32,26.34c-20.08,1-40.87-5.42-55.1-19.61h0C272.06,358.13,292.33,372.31,320.37,372.24Z" style="fill:#F9A8D4"></path></g><path d="M663.94,433h0a15,15,0,0,1-15-15V322.72h29.93v95.34A15,15,0,0,1,663.94,433Z" style="fill:#fff"></path><path d="M663.94,433l.6,0,.74,0c.29,0,.62-.09,1-.14a15,15,0,0,0,6.22-2.54,14.59,14.59,0,0,0,3.47-3.43,15,15,0,0,0,2.43-5.27,14.63,14.63,0,0,0,.41-3.22c0-1.13,0-2.29,0-3.49,0-2.4,0-4.94,0-7.6,0-21.35,0-51.06,0-84.53l.13.12H649l.12-.12c0,33.48,0,63.19,0,84.53,0,2.67,0,5.21,0,7.6,0,1.2,0,2.37,0,3.49a15.17,15.17,0,0,0,.41,3.22,14.65,14.65,0,0,0,2.44,5.27,14.46,14.46,0,0,0,3.47,3.44,15,15,0,0,0,6.22,2.53c.38.05.71.13,1,.14l.73,0,.6,0h-.6l-.74,0c-.29,0-.63-.08-1-.12a14.86,14.86,0,0,1-6.26-2.51,14.58,14.58,0,0,1-3.51-3.44,15.05,15.05,0,0,1-2.9-8.56c0-1.13,0-2.29,0-3.49,0-2.39,0-4.93,0-7.6,0-21.34,0-51.05,0-84.53v-.13H679v.13c0,33.47,0,63.18,0,84.53,0,2.66,0,5.2,0,7.6,0,1.2,0,2.36,0,3.49a14.82,14.82,0,0,1-.42,3.25,15,15,0,0,1-2.47,5.31,14.89,14.89,0,0,1-9.78,6c-.38,0-.71.12-1,.12l-.74,0Z" style="fill:#263238"></path><path d="M664.43,428.61h-1a11.12,11.12,0,0,1-11.12-11.12V327.44h23.2v90.05A11.11,11.11,0,0,1,664.43,428.61Z" style="fill:#e0e0e0"></path><path d="M664.43,428.61h-1a11.12,11.12,0,0,1-11.12-11.12V353h23.2v64.45A11.11,11.11,0,0,1,664.43,428.61Z" style="fill:#F9A8D4"></path><path d="M680.06,327.44H646.85a5.48,5.48,0,0,1-5.48-5.48h0a5.48,5.48,0,0,1,5.48-5.47h33.21a5.48,5.48,0,0,1,5.48,5.47h0A5.48,5.48,0,0,1,680.06,327.44Z" style="fill:#fff"></path><path d="M680.06,327.44l.26,0,.32,0,.43-.07a5.51,5.51,0,0,0,2.58-1.29,5.41,5.41,0,0,0-1.28-8.93,5.26,5.26,0,0,0-1.64-.47,18.1,18.1,0,0,0-1.82-.05H646.85a5.36,5.36,0,1,0,.14,10.71h2.28l16,0,10.8,0,2.94,0,.76,0H679l-2.94,0-10.8,0-16,0H647a5.94,5.94,0,0,1-2.34-.45,5.6,5.6,0,0,1,2.2-10.75h32.06c.62,0,1.23,0,1.84.05a5.59,5.59,0,0,1,1.7.5,5.53,5.53,0,0,1,1.26,9.16,5.29,5.29,0,0,1-2.63,1.26l-.44.07h-.58Z" style="fill:#263238"></path><path d="M671.23,419.83a1.43,1.43,0,0,0-1.66.69,12.48,12.48,0,0,1-.92,1.36,4.16,4.16,0,0,1-1.84,1,6.46,6.46,0,0,0-1.92.83h0a1.22,1.22,0,0,0,.69,2.16,5.09,5.09,0,0,0,2.34-.41,9.34,9.34,0,0,0,3-2.36,3,3,0,0,0,1-2.11A1.27,1.27,0,0,0,671.23,419.83Z" style="fill:#fff"></path><circle cx="672.57" cy="417.22" r="1.19" style="fill:#fff"></circle><g style="opacity:0.2"><path d="M660.35,414.1a1.94,1.94,0,1,1-1.94-1.94A1.94,1.94,0,0,1,660.35,414.1Z"></path></g><g style="opacity:0.2"><path d="M672.62,394a1.94,1.94,0,1,1-1.94-1.94A1.94,1.94,0,0,1,672.62,394Z"></path></g><g style="opacity:0.2"><path d="M672.62,381.06a1.94,1.94,0,1,1-1.94-1.94A1.94,1.94,0,0,1,672.62,381.06Z"></path></g><g style="opacity:0.2"><path d="M662.59,418.41a1,1,0,1,1-1-1A1,1,0,0,1,662.59,418.41Z"></path></g><g style="opacity:0.2"><path d="M668,387.8a1,1,0,1,1-1-1A1,1,0,0,1,668,387.8Z"></path></g><g style="opacity:0.2"><rect x="648.98" y="335.6" width="29.93" height="6.82"></rect></g><path d="M675.54,353c0,.85-5.19,1.53-11.6,1.53s-11.6-.68-11.6-1.53,5.19-1.52,11.6-1.52S675.54,352.2,675.54,353Z" style="fill:#F9A8D4"></path><g style="opacity:0.30000000000000004"><path d="M675.54,353c0,.85-5.19,1.53-11.6,1.53s-11.6-.68-11.6-1.53,5.19-1.52,11.6-1.52S675.54,352.2,675.54,353Z" style="fill:#fff"></path></g><g style="opacity:0.30000000000000004"><path d="M655.13,335.6v74.48l7.46-5.51V335.7Z" style="fill:#fff"></path></g><path d="M568.9,433.09h0a15,15,0,0,1-15-15V322.79h29.94v95.34A15,15,0,0,1,568.9,433.09Z" style="fill:#fff"></path><path d="M568.9,433.09l.6,0,.73,0c.3,0,.63-.09,1-.14a14.92,14.92,0,0,0,6.21-2.54,14.44,14.44,0,0,0,3.48-3.43,15,15,0,0,0,2.43-5.27,14.63,14.63,0,0,0,.41-3.22c0-1.13,0-2.3,0-3.49,0-2.4,0-4.94,0-7.6,0-21.35,0-51.06,0-84.53l.13.12H553.93l.13-.12c0,33.48,0,63.19,0,84.53,0,2.67,0,5.21,0,7.6,0,1.2,0,2.37,0,3.49a14.55,14.55,0,0,0,.41,3.22,14.73,14.73,0,0,0,2.44,5.27,14.46,14.46,0,0,0,3.47,3.44,15,15,0,0,0,6.22,2.53c.38.05.71.13,1,.14l.73,0,.6,0h-.6l-.74,0a9,9,0,0,1-1-.13,14.84,14.84,0,0,1-9.77-5.94,15.16,15.16,0,0,1-2.48-5.31,14.82,14.82,0,0,1-.42-3.25c0-1.13,0-2.29,0-3.49,0-2.39,0-4.93,0-7.6,0-21.34,0-51.05,0-84.53v-.13H584v.13c0,33.47,0,63.18,0,84.53,0,2.66,0,5.2,0,7.6,0,1.2,0,2.36,0,3.49a14.9,14.9,0,0,1-.42,3.25A15.15,15.15,0,0,1,581,427a14.84,14.84,0,0,1-9.78,5.94,9,9,0,0,1-1,.13l-.74,0Z" style="fill:#263238"></path><path d="M569.38,428.68h-1a11.12,11.12,0,0,1-11.12-11.12V327.51h23.2v90.05A11.12,11.12,0,0,1,569.38,428.68Z" style="fill:#e0e0e0"></path><path d="M569.38,428.68h-1a11.12,11.12,0,0,1-11.12-11.12v-9.29h23.2v9.29A11.12,11.12,0,0,1,569.38,428.68Z" style="fill:#F9A8D4"></path><path d="M585,327.64H551.81a5.48,5.48,0,0,1-5.48-5.48h0a5.47,5.47,0,0,1,5.48-5.47H585a5.47,5.47,0,0,1,5.47,5.47h0A5.47,5.47,0,0,1,585,327.64Z" style="fill:#fff"></path><path d="M585,327.64l.26,0,.32,0,.43-.08a5.32,5.32,0,0,0,2.58-1.29,5.39,5.39,0,0,0,1-6.79,5.4,5.4,0,0,0-4-2.61c-.58-.06-1.2,0-1.82,0H551.81a5.35,5.35,0,0,0-2.1,10.28,5.54,5.54,0,0,0,2.23.43h2.29l16,0,10.8,0,2.93,0h.77l.26,0h-1l-2.93,0-10.8,0-16,0h-2.29a5.56,5.56,0,0,1-5.5-4,5.61,5.61,0,0,1,5.37-7.17h32.06c.62,0,1.23,0,1.84.05a5.76,5.76,0,0,1,1.7.5,5.53,5.53,0,0,1,1.26,9.16,5.42,5.42,0,0,1-2.63,1.26l-.44.06-.32,0Z" style="fill:#263238"></path><path d="M561.46,409.08l16.27,1.07c-1.87-1.31-3.8-2.71-4.58-4.52a3.57,3.57,0,0,1,2.46-4.86,3.14,3.14,0,0,0,1.52-.63c.44-.53-.24-1.27-1.07-1.37a3.57,3.57,0,0,0-2.29.65,18.13,18.13,0,0,1-1.86,1.23,3.19,3.19,0,0,1-2.36.25,1.71,1.71,0,0,1-1.07-2c.15-.76.63-1.46.82-2.22s-.25-1.49-1.07-1.36a1.18,1.18,0,0,0-.88.8,6.05,6.05,0,0,0-.17,4.37,4.87,4.87,0,0,1-2.79-1.45,11.89,11.89,0,0,0-2.24-2,3.65,3.65,0,0,0-3.24-.28c-1.3,1.86,4.84,3.32,5.34,5.69A6.78,6.78,0,0,1,561.46,409.08Z" style="fill:#F9A8D4"></path><path d="M571.27,349.78c-.38-2.72-1.86-5.13-3.31-7.45-1.66,2.29-3.13,5.41-3,8.23a6.36,6.36,0,0,0,.6,2.73,3.15,3.15,0,0,0,2.13,1.69,3.1,3.1,0,0,0,3.08-1.61A5.68,5.68,0,0,0,571.27,349.78Z" style="fill:#F9A8D4"></path><path d="M572,392.84a1.24,1.24,0,0,1-2.48,0,1.24,1.24,0,0,1,2.48,0Z" style="fill:#F9A8D4"></path><circle cx="571.98" cy="397.19" r="0.75" style="fill:#F9A8D4"></circle><path d="M576.19,419.9a1.43,1.43,0,0,0-1.66.69,14.09,14.09,0,0,1-.92,1.36,4.16,4.16,0,0,1-1.84,1,6.63,6.63,0,0,0-1.93.83h0a1.22,1.22,0,0,0,.69,2.16,4.91,4.91,0,0,0,2.33-.42,9.22,9.22,0,0,0,3-2.35,3,3,0,0,0,1-2.11A1.31,1.31,0,0,0,576.19,419.9Z" style="fill:#fff"></path><circle cx="577.53" cy="417.29" r="1.19" style="fill:#fff"></circle><g style="opacity:0.2"><path d="M565.31,414.17a1.94,1.94,0,1,1-1.94-1.94A1.93,1.93,0,0,1,565.31,414.17Z"></path></g><g style="opacity:0.2"><path d="M567.54,418.47a1,1,0,1,1-1-1A1,1,0,0,1,567.54,418.47Z"></path></g><g style="opacity:0.2"><rect x="553.93" y="335.67" width="29.93" height="6.82"></rect></g><rect x="534.52" y="328.34" width="7.43" height="129.82" style="fill:#263238"></rect><rect x="692.16" y="329.38" width="7.43" height="128.59" style="fill:#263238"></rect><path d="M616.69,433.09h0a15,15,0,0,1-15-15V322.79h29.93v95.34A15,15,0,0,1,616.69,433.09Z" style="fill:#fff"></path><path d="M616.69,433.09l.6,0,.73,0c.3,0,.63-.09,1-.14a14.9,14.9,0,0,0,6.22-2.54,14.62,14.62,0,0,0,3.48-3.43,15,15,0,0,0,2.43-5.27,14.63,14.63,0,0,0,.41-3.22c0-1.13,0-2.3,0-3.49,0-2.4,0-4.94,0-7.6,0-21.35,0-51.06,0-84.53l.12.12H601.72l.13-.12c0,33.48,0,63.19,0,84.53,0,2.67,0,5.21,0,7.6,0,1.2,0,2.37,0,3.49a14.55,14.55,0,0,0,.41,3.22,14.89,14.89,0,0,0,2.43,5.27,14.67,14.67,0,0,0,3.48,3.44,15,15,0,0,0,6.21,2.53c.39.05.72.13,1,.14l.73,0,.6,0h-.6l-.74,0a9,9,0,0,1-1-.13,14.71,14.71,0,0,1-6.27-2.5,15,15,0,0,1-3.51-3.44,15.15,15.15,0,0,1-2.47-5.31,14.82,14.82,0,0,1-.42-3.25c0-1.13,0-2.29,0-3.49,0-2.39,0-4.93,0-7.6,0-21.34,0-51.05,0-84.53v-.13h30.18v.13c0,33.47,0,63.18,0,84.53,0,2.66,0,5.2,0,7.6,0,1.2,0,2.36,0,3.49a14.9,14.9,0,0,1-.42,3.25,15.15,15.15,0,0,1-2.47,5.31,14.84,14.84,0,0,1-9.78,5.94,9,9,0,0,1-1,.13l-.74,0Z" style="fill:#263238"></path><path d="M617.17,428.68h-1a11.12,11.12,0,0,1-11.12-11.12V327.51h23.2v90.05A11.12,11.12,0,0,1,617.17,428.68Z" style="fill:#e0e0e0"></path><path d="M617.17,428.68h-1a11.12,11.12,0,0,1-11.12-11.12V353.11h23.2v64.45A11.12,11.12,0,0,1,617.17,428.68Z" style="fill:#F9A8D4"></path><path d="M632.81,327.64H599.6a5.48,5.48,0,0,1-5.48-5.48h0a5.47,5.47,0,0,1,5.48-5.47h33.21a5.47,5.47,0,0,1,5.47,5.47h0A5.47,5.47,0,0,1,632.81,327.64Z" style="fill:#fff"></path><path d="M632.81,327.64l.26,0,.32,0,.43-.08a5.32,5.32,0,0,0,2.58-1.29,5.39,5.39,0,0,0,1.05-6.79,5.39,5.39,0,0,0-4-2.61c-.57-.06-1.19,0-1.81,0H599.6a5.35,5.35,0,0,0-2.1,10.28,5.54,5.54,0,0,0,2.23.43H602l16,0,10.81,0,2.93,0h.77l.26,0h-1l-2.93,0-10.81,0-16,0h-2.29a5.56,5.56,0,0,1-5.5-4,5.6,5.6,0,0,1,5.37-7.17h32.06c.62,0,1.23,0,1.84.05a5.76,5.76,0,0,1,1.7.5,5.53,5.53,0,0,1,1.26,9.16,5.42,5.42,0,0,1-2.63,1.26l-.44.06-.32,0Z" style="fill:#263238"></path><path d="M624,419.9a1.43,1.43,0,0,0-1.66.69,16.19,16.19,0,0,1-.92,1.36,4.16,4.16,0,0,1-1.84,1,6.63,6.63,0,0,0-1.93.83h0a1.22,1.22,0,0,0,.69,2.16,4.93,4.93,0,0,0,2.33-.42,9.08,9.08,0,0,0,3-2.35,3,3,0,0,0,1-2.11A1.31,1.31,0,0,0,624,419.9Z" style="fill:#fff"></path><circle cx="625.32" cy="417.29" r="1.19" style="fill:#fff"></circle><g style="opacity:0.2"><path d="M613.09,414.17a1.94,1.94,0,1,1-1.93-1.94A1.92,1.92,0,0,1,613.09,414.17Z"></path></g><g style="opacity:0.2"><path d="M625.36,394.08a1.94,1.94,0,1,1-1.94-1.94A1.93,1.93,0,0,1,625.36,394.08Z"></path></g><g style="opacity:0.2"><path d="M625.36,381.13a1.94,1.94,0,1,1-1.94-1.94A1.94,1.94,0,0,1,625.36,381.13Z"></path></g><g style="opacity:0.2"><circle cx="614.36" cy="418.47" r="0.97"></circle></g><g style="opacity:0.2"><circle cx="619.8" cy="387.87" r="0.97"></circle></g><g style="opacity:0.2"><rect x="601.72" y="335.67" width="29.93" height="6.82"></rect></g><path d="M628.29,353.11c0,.85-5.19,1.53-11.6,1.53s-11.6-.68-11.6-1.53,5.19-1.53,11.6-1.53S628.29,352.27,628.29,353.11Z" style="fill:#F9A8D4"></path><g style="opacity:0.30000000000000004"><path d="M628.29,353.11c0,.85-5.19,1.53-11.6,1.53s-11.6-.68-11.6-1.53,5.19-1.53,11.6-1.53S628.29,352.27,628.29,353.11Z" style="fill:#fff"></path></g><g style="opacity:0.30000000000000004"><path d="M607.88,335.67v74.48l7.45-5.51V335.77Z" style="fill:#fff"></path></g><g style="opacity:0.30000000000000004"><path d="M558.3,335.67v70.89l7.46-5.51-.85-65.28Z" style="fill:#fff"></path></g><rect x="522.22" y="327.78" width="188.94" height="7.99" rx="2.87" style="fill:#263238"></rect><path d="M436.54,300c0,.4,0,.44,0,.35s0-.2,0-.3Z" style="fill:#fafafa"></path><path d="M436.54,300s0-.08.07,0l.12.13a.47.47,0,0,1,.12.3l-.2.25-.32-.19h0v0h0v-.15a.25.25,0,0,1,0-.13.49.49,0,0,0,0-.07s0-.1.07-.11.06,0,.07,0,0,.09.07.1a.1.1,0,0,0,.08,0s0,0,0,0a.35.35,0,0,1,.07.12l0,.07v.05h0l-.26.05a1.93,1.93,0,0,0-.25,0h0v-.11a.5.5,0,0,1,0-.13s0-.09.1,0S436.54,300,436.54,300Z" style="fill:#263238"></path><path d="M446.23,339.45c-.32-11-.74-22-1.77-32.9-.61-6.39-1.27-13.42-3.23-19.87.47-.58.92-1.17,1.35-1.78,7.59-10.72,8.31-25.57,3.64-37.61A41.33,41.33,0,0,0,435,230.88c-.86-.75-1.76-1.44-2.67-2.12.19-1.5.33-3,.42-4.54a169.07,169.07,0,0,0-.87-25.35,230.16,230.16,0,0,0-3.85-25.45c-1.46-7-3.36-14.4-8.41-19.75-5.49-5.81-13.53-7.1-21.07-8.1a234.53,234.53,0,0,0-51.35-1.13c-7.57.67-16,1-22.16,6.06-5.76,4.74-7,12.67-7.44,19.67-.5,8-.55,16-.66,24-.14,10.2-.19,20.39-.22,30.59q0,14.49,0,29,0,9.3.08,18.6c0,.88,0,1.76,0,2.64a3.6,3.6,0,0,0,7.2,0q-.12-16.11-.12-32.22c0-18.83,0-37.66.36-56.48q.1-5.37.28-10.75c.19-5.08.19-9.63,1.76-14.33a11.56,11.56,0,0,1,4.36-6,21.44,21.44,0,0,1,8.48-2.71c.82-.13.82-.13,1.8-.24l3-.33q3-.3,6-.53,6-.46,12-.61a231.69,231.69,0,0,1,24.58.68c4,.33,8,.74,12,1.28a51.84,51.84,0,0,1,9.48,2,16,16,0,0,1,7.14,4.74,22.86,22.86,0,0,1,3.9,7.78c2.24,7,3.39,14.47,4.44,21.74a214.74,214.74,0,0,1,2,23.49,120.7,120.7,0,0,1,0,12.18,42.89,42.89,0,0,0-8.67-3.11,46.33,46.33,0,0,0-20.46-.24c-6.79,1.44-13.8,4.46-17.78,10.41a11.87,11.87,0,0,0-1.48,10.6,19.17,19.17,0,0,0,7,8.64,25.84,25.84,0,0,0,9.77,4,42,42,0,0,0,11.88,1.06c7.57-.52,14.88-3.38,19.65-9.46a31.75,31.75,0,0,0,5.18-10c.6.54,1.18,1.1,1.73,1.69s1,1.07,1.46,1.63c.21.25.42.5.62.76l.6.82a37.54,37.54,0,0,1,2.16,3.4c.36.64.7,1.29,1,2,.16.33.32.67.47,1s.2.44.29.66l.07.17a42.21,42.21,0,0,1,2.41,8.52,29,29,0,0,1,.4,3.82,38.35,38.35,0,0,1,0,4.42c0,.67-.11,1.35-.19,2,0,.17-.08.65-.09.67-.05.36-.12.72-.19,1.08a32.7,32.7,0,0,1-1.09,4.25c-.22.7-.48,1.38-.74,2.07l-.09.25a2.6,2.6,0,0,0-.12.24c-.15.33-.31.66-.47,1-.3.62-.63,1.23-1,1.83a27.15,27.15,0,0,0-3.73-5c-5.2-5.52-13.3-8.09-20.75-8-7.24.09-14.45,2.31-19.82,7.31a14.81,14.81,0,0,0-4.92,9.07c-.45,3.83,1.23,7.42,3.63,10.3,4.37,5.22,11.36,7.59,18,8.12a36.05,36.05,0,0,0,25-8c.54,2.44.95,4.91,1.31,7.38l0-.2c0,.09,0,.17,0,.25v0c0,.08,0,.2,0,.27l0,.15c.07.48.12.95.18,1.43.13,1.1.25,2.19.36,3.29q.33,3.33.58,6.68c.38,5.07.66,10.14.88,15.22,1,22,1.07,44.08,1,66.12l0,11.69a3.6,3.6,0,1,0,7.2,0c0-9.66,0-19.31,0-29C446.74,363.79,446.59,351.62,446.23,339.45ZM412.9,247.28c-6.49,2.49-13.45,1.94-20,0-.39-.12-.78-.23-1.17-.37l-.64-.24c-.5-.23-1-.48-1.47-.76a13.53,13.53,0,0,1-3.53-2.76,7,7,0,0,1-1.11-1.34c-.2-.31-.39-.63-.57-.95,0,0-.29-.64-.31-.64-.05-.16-.11-.32-.16-.47s-.13-.66-.16-.72c0-.28,0-.56,0-.84,0-.08,0-.12,0-.17,0-.2.08-.4.14-.6,0,0,.21-.62.21-.67a8.14,8.14,0,0,1,.41-.77,5.36,5.36,0,0,1,1-1.37,13.3,13.3,0,0,1,3.13-2.69,25.82,25.82,0,0,1,8.27-3.32q2-.48,3.93-.78l.7-.09,1.13-.11c.88-.07,1.76-.12,2.64-.14a35.92,35.92,0,0,1,8.43.74,37.82,37.82,0,0,1,10.77,3.94c-.24,1-.52,2-.86,3C421.82,240.44,418.23,245.24,412.9,247.28Zm17.74,39.89-.53.4c-.46.34-.94.66-1.42,1a36.36,36.36,0,0,1-3.9,2.19l-.94.43-.19.09-.22.08c-.64.24-1.28.48-1.93.69a31.54,31.54,0,0,1-4,1c-.33.07-.66.12-1,.18l-.21,0-.17,0c-.68.07-1.35.13-2,.17a28.66,28.66,0,0,1-4-.07l-.74-.07-.65-.1c-.66-.11-1.32-.25-2-.41s-1.31-.35-2-.57c-.33-.1-.65-.21-1-.33l-.61-.24-.11-.05a19,19,0,0,1-3.51-2.06c-.05-.06-.61-.54-.57-.5q-.43-.39-.84-.81c-.24-.25-.48-.52-.71-.79,0,0-.53-.75-.6-.86-.19-.31-.36-.64-.54-1-.06-.11-.1-.19-.13-.23s0-.14-.06-.25c-.1-.35-.2-.69-.28-1.05a1,1,0,0,1,0-.14v-.14c0-.31,0-.61,0-.91a1.56,1.56,0,0,0,0-.25,2.42,2.42,0,0,0,.09-.26c.08-.25.15-.49.23-.73,0,.12.32-.7.39-.82a9.54,9.54,0,0,1,.54-.86c.05-.09.09-.15.11-.2l.17-.17a18.17,18.17,0,0,1,1.5-1.54,16.45,16.45,0,0,1,3.14-2.24,21.32,21.32,0,0,1,8-2.6,25.66,25.66,0,0,1,9.78.47,22.17,22.17,0,0,1,4.05,1.44,25.54,25.54,0,0,1,2.35,1.3c.34.21.66.43,1,.65l.22.17c.15.12.31.25.45.38a15.27,15.27,0,0,1,1.52,1.49c.2.21.38.44.57.66,0,.05.42.55.43.56a25.51,25.51,0,0,1,2.19,3.75c.16.34.31.67.45,1-.54.52-1.1,1-1.67,1.5Z" style="fill:#fafafa"></path><path d="M446.23,339.45c-.32-11-.74-22-1.77-32.9-.61-6.39-1.27-13.42-3.23-19.87.47-.58.92-1.17,1.35-1.78,7.59-10.72,8.31-25.57,3.64-37.61A41.33,41.33,0,0,0,435,230.88c-.86-.75-1.76-1.44-2.67-2.12.19-1.5.33-3,.42-4.54a169.07,169.07,0,0,0-.87-25.35,230.16,230.16,0,0,0-3.85-25.45c-1.46-7-3.36-14.4-8.41-19.75-5.49-5.81-13.53-7.1-21.07-8.1a234.53,234.53,0,0,0-51.35-1.13c-7.57.67-16,1-22.16,6.06-5.76,4.74-7,12.67-7.44,19.67-.5,8-.55,16-.66,24-.14,10.2-.19,20.39-.22,30.59q0,14.49,0,29,0,9.3.08,18.6c0,.88,0,1.76,0,2.64a3.6,3.6,0,0,0,7.2,0q-.12-16.11-.12-32.22c0-18.83,0-37.66.36-56.48q.1-5.37.28-10.75c.19-5.08.19-9.63,1.76-14.33a11.56,11.56,0,0,1,4.36-6,21.44,21.44,0,0,1,8.48-2.71c.82-.13.82-.13,1.8-.24l3-.33q3-.3,6-.53,6-.46,12-.61a231.69,231.69,0,0,1,24.58.68c4,.33,8,.74,12,1.28a51.84,51.84,0,0,1,9.48,2,16,16,0,0,1,7.14,4.74,22.86,22.86,0,0,1,3.9,7.78c2.24,7,3.39,14.47,4.44,21.74a214.74,214.74,0,0,1,2,23.49,120.7,120.7,0,0,1,0,12.18,42.89,42.89,0,0,0-8.67-3.11,46.33,46.33,0,0,0-20.46-.24c-6.79,1.44-13.8,4.46-17.78,10.41a11.87,11.87,0,0,0-1.48,10.6,19.17,19.17,0,0,0,7,8.64,25.84,25.84,0,0,0,9.77,4,42,42,0,0,0,11.88,1.06c7.57-.52,14.88-3.38,19.65-9.46a31.75,31.75,0,0,0,5.18-10c.6.54,1.18,1.1,1.73,1.69s1,1.07,1.46,1.63c.21.25.42.5.62.76l.6.82a37.54,37.54,0,0,1,2.16,3.4c.36.64.7,1.29,1,2,.16.33.32.67.47,1s.2.44.29.66l.07.17a42.21,42.21,0,0,1,2.41,8.52,29,29,0,0,1,.4,3.82,38.35,38.35,0,0,1,0,4.42c0,.67-.11,1.35-.19,2,0,.17-.08.65-.09.67-.05.36-.12.72-.19,1.08a32.7,32.7,0,0,1-1.09,4.25c-.22.7-.48,1.38-.74,2.07l-.09.25a2.6,2.6,0,0,0-.12.24c-.15.33-.31.66-.47,1-.3.62-.63,1.23-1,1.83a27.15,27.15,0,0,0-3.73-5c-5.2-5.52-13.3-8.09-20.75-8-7.24.09-14.45,2.31-19.82,7.31a14.81,14.81,0,0,0-4.92,9.07c-.45,3.83,1.23,7.42,3.63,10.3,4.37,5.22,11.36,7.59,18,8.12a36.05,36.05,0,0,0,25-8c.54,2.44.95,4.91,1.31,7.38l0-.2c0,.09,0,.17,0,.25v0c0,.08,0,.2,0,.27l0,.15c.07.48.12.95.18,1.43.13,1.1.25,2.19.36,3.29q.33,3.33.58,6.68c.38,5.07.66,10.14.88,15.22,1,22,1.07,44.08,1,66.12l0,11.69a3.6,3.6,0,1,0,7.2,0c0-9.66,0-19.31,0-29C446.74,363.79,446.59,351.62,446.23,339.45ZM412.9,247.28c-6.49,2.49-13.45,1.94-20,0-.39-.12-.78-.23-1.17-.37l-.64-.24c-.5-.23-1-.48-1.47-.76a13.53,13.53,0,0,1-3.53-2.76,7,7,0,0,1-1.11-1.34c-.2-.31-.39-.63-.57-.95,0,0-.29-.64-.31-.64-.05-.16-.11-.32-.16-.47s-.13-.66-.16-.72c0-.28,0-.56,0-.84,0-.08,0-.12,0-.17,0-.2.08-.4.14-.6,0,0,.21-.62.21-.67a8.14,8.14,0,0,1,.41-.77,5.36,5.36,0,0,1,1-1.37,13.3,13.3,0,0,1,3.13-2.69,25.82,25.82,0,0,1,8.27-3.32q2-.48,3.93-.78l.7-.09,1.13-.11c.88-.07,1.76-.12,2.64-.14a35.92,35.92,0,0,1,8.43.74,37.82,37.82,0,0,1,10.77,3.94c-.24,1-.52,2-.86,3C421.82,240.44,418.23,245.24,412.9,247.28Zm17.74,39.89-.53.4c-.46.34-.94.66-1.42,1a36.36,36.36,0,0,1-3.9,2.19l-.94.43-.19.09-.22.08c-.64.24-1.28.48-1.93.69a31.54,31.54,0,0,1-4,1c-.33.07-.66.12-1,.18l-.21,0-.17,0c-.68.07-1.35.13-2,.17a28.66,28.66,0,0,1-4-.07l-.74-.07-.65-.1c-.66-.11-1.32-.25-2-.41s-1.31-.35-2-.57c-.33-.1-.65-.21-1-.33l-.61-.24-.11-.05a19,19,0,0,1-3.51-2.06c-.05-.06-.61-.54-.57-.5q-.43-.39-.84-.81c-.24-.25-.48-.52-.71-.79,0,0-.53-.75-.6-.86-.19-.31-.36-.64-.54-1-.06-.11-.1-.19-.13-.23s0-.14-.06-.25c-.1-.35-.2-.69-.28-1.05a1,1,0,0,1,0-.14v-.14c0-.31,0-.61,0-.91a1.56,1.56,0,0,0,0-.25,2.42,2.42,0,0,0,.09-.26c.08-.25.15-.49.23-.73,0,.12.32-.7.39-.82a9.54,9.54,0,0,1,.54-.86c.05-.09.09-.15.11-.2l.17-.17a18.17,18.17,0,0,1,1.5-1.54,16.45,16.45,0,0,1,3.14-2.24,21.32,21.32,0,0,1,8-2.6,25.66,25.66,0,0,1,9.78.47,22.17,22.17,0,0,1,4.05,1.44,25.54,25.54,0,0,1,2.35,1.3c.34.21.66.43,1,.65l.22.17c.15.12.31.25.45.38a15.27,15.27,0,0,1,1.52,1.49c.2.21.38.44.57.66,0,.05.42.55.43.56a25.51,25.51,0,0,1,2.19,3.75c.16.34.31.67.45,1-.54.52-1.1,1-1.67,1.5Z" style="fill:none"></path><path d="M430.64,287.17a4.19,4.19,0,0,1,.58-.54l1.67-1.56,0,.11a25.1,25.1,0,0,0-3.11-5.28v0a11.52,11.52,0,0,0-1.08-1.14c-.39-.37-.77-.79-1.21-1.16a15.1,15.1,0,0,0-1.47-1l-1.66-.91a17.3,17.3,0,0,0-3.75-1.52,24.3,24.3,0,0,0-4.32-.83,27.29,27.29,0,0,0-9.61.82,19.48,19.48,0,0,0-4.77,2,18.19,18.19,0,0,0-2.21,1.49,21.6,21.6,0,0,0-1.94,1.89l-.4.42,0-.06-.58.93a2.2,2.2,0,0,0-.23.46l-.11.25-.06.13,0,.06,0,.05v0a.3.3,0,0,1-.2.12.28.28,0,0,1-.23-.1.29.29,0,0,1-.05-.21l.5.12c-.1.34-.18.64-.32,1l0-.12c0,.45,0,.91,0,1.36v-.1c.13.48.25,1,.38,1.44l0-.08.59,1.06a4.55,4.55,0,0,0,.32.49l.18.24.09.13,0,.06,0,0,0,0v0s0,0,0,.17a.27.27,0,0,1-.2.2c-.07,0-.09,0-.11,0l.25-.41.74.82.79.76-.34.37,0,0,.33-.37,0,0h0l0,0,.08.07.14.12.31.28,0,0a17.59,17.59,0,0,0,4.13,2.31c.73.28,1.46.5,2.19.7s1.45.36,2.17.52a27.42,27.42,0,0,0,8.1.18h0a36,36,0,0,0,4-.86c1.22-.33,2.31-.76,3.34-1.11h0a35,35,0,0,0,5.27-2.79l1.32-.87a4.17,4.17,0,0,1,.46-.29,2.87,2.87,0,0,1-.41.36c-.28.22-.72.53-1.28.93a31.89,31.89,0,0,1-5.23,2.93h0c-1,.36-2.12.82-3.34,1.17a34.62,34.62,0,0,1-4,.9h0a27.49,27.49,0,0,1-8.22-.13c-.73-.16-1.47-.28-2.21-.52s-1.48-.42-2.23-.7a18,18,0,0,1-4.27-2.36l.07-.13-.1.1h0l0,0-.07-.06-.15-.13-.14-.12-.07-.06,0,0,0,0h0s0,0,0,0l.05-.06v0l.23-.25s0,0,0-.05l-.32.35-.81-.78-.77-.84.2-.17s0-.06-.07,0,0,.06-.08.09l-.08,0h0l0,0,0-.06-.09-.12-.17-.25a3.82,3.82,0,0,1-.35-.51l-.59-1.06,0,0v0c-.13-.47-.25-1-.38-1.42l.06-.09-.07,0h0v-1.29l0-.05c.11-.28.21-.65.31-1l.36.1a.07.07,0,0,0-.08,0l0,0v0s-.06,0-.11-.05l-.1-.06v0l0,0,.05-.12.11-.24a3.5,3.5,0,0,1,.26-.51l.58-.93,0,0,0,0,.38-.4a24.35,24.35,0,0,1,2-1.94,19.82,19.82,0,0,1,2.28-1.54,20.1,20.1,0,0,1,4.9-2.06,27.33,27.33,0,0,1,9.79-.79,23.22,23.22,0,0,1,4.39.88,17.21,17.21,0,0,1,3.82,1.58l1.67.93a15.24,15.24,0,0,1,1.49,1.06c.45.38.84.81,1.23,1.19a10.69,10.69,0,0,1,1.08,1.18h0a24.05,24.05,0,0,1,3,5.37l0,.07-.05,0-1.74,1.5A6,6,0,0,1,430.64,287.17Z" style="fill:#263238"></path><path d="M412.9,247.28s.44-.21,1.25-.62a15.8,15.8,0,0,0,3.27-2.22,19.76,19.76,0,0,0,3.93-4.77,22.69,22.69,0,0,0,1.67-3.46c.51-1.26.82-2.67,1.25-4.1l.1.23a38,38,0,0,0-10.3-3.8,38.8,38.8,0,0,0-12.54-.55l0-.52-.17,0-.07,0s0,0,0,0,.07,0,.13.15a.25.25,0,0,1-.11.31,1.34,1.34,0,0,1-.3.07l-.19,0-.73.15-1.5.3a30.28,30.28,0,0,0-3,.7,23.53,23.53,0,0,0-6.6,2.8,13.08,13.08,0,0,0-2.69,2.13,15.9,15.9,0,0,0-1.11,1.26,15.62,15.62,0,0,0-.81,1.44l0-.11-.21.69-.15.62v.13c0,.28,0,.56,0,.83l0-.1c.11.43.21.86.34,1.21l-.19-.15a.21.21,0,0,1,.17.11v0l0,0,0,.05,0,.07.07.15.13.29c.08.16.21.36.31.53a10.79,10.79,0,0,0,.68,1,21.38,21.38,0,0,0,1.69,1.74,16.57,16.57,0,0,0,3.9,2.48h0A35.93,35.93,0,0,0,407,248.61a26.12,26.12,0,0,0,4.41-.88c.5-.13.88-.28,1.14-.35a1.64,1.64,0,0,1,.39-.1,1.55,1.55,0,0,1-.37.17c-.25.09-.62.25-1.12.41a25,25,0,0,1-4.42,1,35.47,35.47,0,0,1-16-2h0a17.49,17.49,0,0,1-4-2.53,22.84,22.84,0,0,1-1.75-1.79,10.67,10.67,0,0,1-.72-1.08c-.11-.19-.23-.35-.34-.57l-.13-.29-.07-.15,0-.07,0,0h0l.1-.07a.08.08,0,0,0,.09-.07l-.23.08a7.91,7.91,0,0,1-.31-1.15l0-.1c0-.28,0-.57,0-.86h0V238h0l.15-.65.19-.57,0-.1a15,15,0,0,1,.85-1.51,14.36,14.36,0,0,1,3.94-3.55,24.3,24.3,0,0,1,6.73-2.86c1-.3,2.05-.51,3.08-.71l1.52-.3.74-.15.18,0s.17-.05.08,0a.25.25,0,0,0-.07.3.29.29,0,0,0,.19.15h.37s0-.18,0-.26l0-.26a39.19,39.19,0,0,1,12.7.6,38,38,0,0,1,10.4,3.91l.15.08-.05.15a42,42,0,0,1-1.3,4.14,21.84,21.84,0,0,1-1.74,3.49,19.18,19.18,0,0,1-4.05,4.77,15.05,15.05,0,0,1-3.37,2.16,9.3,9.3,0,0,1-1,.4Z" style="fill:#263238"></path><path d="M446.23,339.45s0,1.08.08,3.19.1,5.26.17,9.38.16,9.23.26,15.26q.08,4.53.15,9.75v11.1q0,5.89,0,12.43v3.31a10.91,10.91,0,0,1-.06,1.7,3.63,3.63,0,0,1-.71,1.59,3.7,3.7,0,0,1-3.11,1.48,3.79,3.79,0,0,1-3-1.82,3.6,3.6,0,0,1-.54-1.76v-1.83c0-1.22,0-2.45,0-3.7,0-2.49,0-5,0-7.63q0-7.78,0-16.17c0-11.17-.19-23.13-.57-35.81-.19-6.34-.44-12.86-.87-19.55s-.77-13.56-1.7-20.54l.37-.05,0,.2-.37,0c-.39-2.23-.85-4.79-1.3-7.37l.3.11a38.28,38.28,0,0,1-12,6.44,34.06,34.06,0,0,1-13.91,1.53,28.82,28.82,0,0,1-13.56-4.68,19.64,19.64,0,0,1-5.14-5.3,13.58,13.58,0,0,1-2.37-7.08,13.25,13.25,0,0,1,2.15-7.24,19.83,19.83,0,0,1,5.37-5.47,29.45,29.45,0,0,1,14.55-5.21,32.42,32.42,0,0,1,15.65,2.29,25.51,25.51,0,0,1,6.87,4.3,26,26,0,0,1,5.11,6.39h-.4c.5-.92,1.07-1.95,1.56-3.05v0a34.34,34.34,0,0,0,2.22-8.49c0-.75.17-1.49.16-2.24s0-1.52,0-2.28a30.58,30.58,0,0,0-.29-4.57,38,38,0,0,0-2.37-9,35.79,35.79,0,0,0-2.1-4.26l-2.66-4.17,0,.18a39,39,0,0,0-3.78-4.06l.39-.1a29.48,29.48,0,0,1-8,13A27.3,27.3,0,0,1,408.73,256a40.4,40.4,0,0,1-15.84-1,26.68,26.68,0,0,1-7.53-2.94,22.79,22.79,0,0,1-6.07-5.43,17,17,0,0,1-2.09-3.56,11.08,11.08,0,0,1-.92-4.06,12.76,12.76,0,0,1,2.48-7.85,21.09,21.09,0,0,1,6.1-5.65,31.88,31.88,0,0,1,7.65-3.43,45.89,45.89,0,0,1,33.17,2.36l-.37.21a130.24,130.24,0,0,0,0-13.4q-.25-6.74-.93-13.51c-.45-4.51-1.09-9-1.79-13.55a127.65,127.65,0,0,0-2.72-13.48,49.71,49.71,0,0,0-2.16-6.55,15.61,15.61,0,0,0-3.78-5.65,15.87,15.87,0,0,0-5.85-3.5,41.75,41.75,0,0,0-6.78-1.58c-2.3-.39-4.63-.6-7-.85l-7-.75c-4.68-.43-9.4-.65-14.13-.77q-4.59-.1-9.18,0c-3.06,0-6.1.27-9.14.4l-4.56.23-4.54.4a78.71,78.71,0,0,0-9,1.15,20.1,20.1,0,0,0-4.26,1.34,9.78,9.78,0,0,0-3.55,2.56c-2,2.22-2.83,5.19-3.35,8.1a61.51,61.51,0,0,0-.72,8.9c-.08,3-.16,6-.24,8.94s-.11,5.93-.13,8.89,0,5.91,0,8.86c0,5.88-.08,11.75-.12,17.58-.05,11.66-.21,23.2-.12,34.61q0,8.55.06,17c0,1.41,0,2.81,0,4.22a5.13,5.13,0,0,1-.27,2.17,4,4,0,0,1-1.38,1.73,3.76,3.76,0,0,1-4.23.11,3.92,3.92,0,0,1-1.45-1.65,4.38,4.38,0,0,1-.37-2.14q0-16.71-.09-33,0-8.13,0-16.15t.12-15.91c.08-10.53.09-20.89.4-31.08.08-2.54.19-5.08.34-7.6a59.25,59.25,0,0,1,.84-7.52,27.35,27.35,0,0,1,2.27-7.15,17,17,0,0,1,4.6-5.85,21.62,21.62,0,0,1,6.49-3.5,37.35,37.35,0,0,1,7.11-1.63c2.39-.34,4.78-.54,7.16-.74s4.74-.4,7.1-.54a231.43,231.43,0,0,1,27.73-.11c4.51.25,9,.63,13.35,1.12a121.1,121.1,0,0,1,12.94,2,23.38,23.38,0,0,1,18.31,15.78,72.47,72.47,0,0,1,3.15,11.66q1.18,5.82,2.05,11.53c1.16,7.61,1.88,15,2.33,22.21a117.72,117.72,0,0,1-.29,20.8l-.06-.14a39,39,0,0,1,12,14.29,44.81,44.81,0,0,1,4.68,16.34c.92,10.82-2.26,20.76-7.8,27.48l0-.1a71.3,71.3,0,0,1,2.38,12c.47,3.79.78,7.33,1.07,10.62.55,6.57.83,12.13,1,16.61.37,9,.43,13.62.43,13.62,0-.38-.18-4.7-.54-13.62-.21-4.47-.51-10-1.08-16.6-.29-3.28-.61-6.83-1.08-10.6a73.71,73.71,0,0,0-2.4-11.91l0-.06,0,0c5.48-6.7,8.63-16.57,7.7-27.33a44.65,44.65,0,0,0-4.67-16.23,38.87,38.87,0,0,0-11.91-14.17l-.08-.06v-.09a117.06,117.06,0,0,0,.27-20.74c-.46-7.17-1.19-14.58-2.35-22.17q-.87-5.7-2.06-11.52a71.83,71.83,0,0,0-3.14-11.59,23,23,0,0,0-18.05-15.53,119.77,119.77,0,0,0-12.89-2c-4.38-.49-8.83-.87-13.34-1.11a230.47,230.47,0,0,0-27.67.12c-2.36.15-4.72.34-7.09.55s-4.77.4-7.14.73a37.91,37.91,0,0,0-7,1.62,21,21,0,0,0-6.35,3.43,16.53,16.53,0,0,0-4.47,5.7,27.13,27.13,0,0,0-2.23,7,57.51,57.51,0,0,0-.83,7.46q-.22,3.77-.34,7.59c-.3,10.17-.31,20.54-.39,31.06q0,7.89-.1,15.91v16.15q.06,16.26.1,33a4,4,0,0,0,.33,1.94,3.34,3.34,0,0,0,1.27,1.44,3.24,3.24,0,0,0,3.67-.1,3.37,3.37,0,0,0,1.2-1.51,4.76,4.76,0,0,0,.24-2c0-1.4,0-2.81,0-4.22q0-8.46-.06-17c-.1-11.41.06-23,.11-34.62q.06-8.75.11-17.58l.06-8.86c0-3,0-5.92.12-8.9s.16-5.95.25-8.94a61.63,61.63,0,0,1,.72-9,25.9,25.9,0,0,1,1.15-4.4,13.15,13.15,0,0,1,2.31-4,10.43,10.43,0,0,1,3.73-2.68,21.13,21.13,0,0,1,4.37-1.38,83.68,83.68,0,0,1,9-1.16l4.55-.4,4.57-.23c3.05-.13,6.1-.37,9.16-.4s6.13,0,9.21,0c4.74.12,9.46.34,14.16.77l7,.75c2.33.25,4.67.46,7,.85a43.68,43.68,0,0,1,6.85,1.61,16,16,0,0,1,10,9.44,50.61,50.61,0,0,1,2.18,6.61,130.34,130.34,0,0,1,2.73,13.54c.7,4.53,1.35,9,1.79,13.58s.76,9,.94,13.54a131.38,131.38,0,0,1,0,13.46l0,.38-.34-.17a45.42,45.42,0,0,0-32.8-2.34,32.28,32.28,0,0,0-7.53,3.37,20.68,20.68,0,0,0-6,5.52,12.19,12.19,0,0,0-2.39,7.55,13.12,13.12,0,0,0,2.9,7.33,22.45,22.45,0,0,0,5.94,5.31,26.11,26.11,0,0,0,7.39,2.88,39.86,39.86,0,0,0,15.65,1,26.79,26.79,0,0,0,13.92-6.19,29,29,0,0,0,7.83-12.78l.12-.36.27.26a40.17,40.17,0,0,1,3.84,4.11l.05.19a5.31,5.31,0,0,1,.66.8l.65,1,1.29,2a35.26,35.26,0,0,1,2.12,4.32,38,38,0,0,1,2.4,9.14,31.6,31.6,0,0,1,.29,4.64c0,.77,0,1.54,0,2.3s-.11,1.52-.17,2.27a34.24,34.24,0,0,1-2.24,8.59h0v0c-.48,1.09-1.07,2.15-1.57,3.08l-.19.35-.21-.35a25.3,25.3,0,0,0-5-6.28,24.8,24.8,0,0,0-6.74-4.22,31.93,31.93,0,0,0-15.44-2.28,29.06,29.06,0,0,0-14.34,5.13,19.5,19.5,0,0,0-5.26,5.34,13,13,0,0,0-2.09,7,13.25,13.25,0,0,0,2.29,6.86,19.41,19.41,0,0,0,5,5.19,28.47,28.47,0,0,0,13.38,4.62,33.57,33.57,0,0,0,13.73-1.5,37.76,37.76,0,0,0,11.85-6.37l.25-.2.06.31c.45,2.59.91,5.16,1.3,7.39l-.37,0,0-.19.37-.05c.92,7,1.32,13.88,1.68,20.57s.67,13.22.86,19.56c.37,12.69.48,24.64.52,35.82q0,8.38,0,16.17c0,2.59,0,5.14,0,7.63,0,1.25,0,2.48,0,3.7s-.18,2.48.5,3.46A3.53,3.53,0,0,0,443,408.4a3.47,3.47,0,0,0,2.91-1.39,3.43,3.43,0,0,0,.67-1.48,11.42,11.42,0,0,0,.06-1.66v-3.31q0-6.54,0-12.43c0-3.92,0-7.63,0-11.1s-.08-6.73-.12-9.75c-.08-6-.15-11.14-.21-15.26s-.09-7.26-.11-9.38S446.23,339.45,446.23,339.45Z" style="fill:#263238"></path><path d="M319.47,239.31v-.95c0-2.89,0-5.78,0-8.67C319.44,219,319.44,250,319.47,239.31Z" style="fill:#455a64"></path><path d="M445.63,254.93a40.55,40.55,0,0,0-8.85-18.46,37.08,37.08,0,0,0-7.26-6.44c1-6.33.77-13,.51-19.28a226.26,226.26,0,0,0-2.91-27.85c-.75-4.47-1.58-9-2.69-13.34a37.61,37.61,0,0,0-4-10.41,19.22,19.22,0,0,0-7.91-7.41,37.25,37.25,0,0,0-11.18-3.09,228.81,228.81,0,0,0-28.27-2.35,233.07,233.07,0,0,0-28.58,1.1c-7.36.74-15.83,1.45-20.34,8.16-3.47,5.15-3.73,11.83-4,17.83-.12,2.92-.19,5.84-.25,8.76-.18,8.51-.26,17-.33,25.55q-.11,15.33-.13,30.66l0,18.16c0,5.32,0,10.65.06,16,0,.72,0,1.43,0,2.15a.9.9,0,0,0,1.8,0q0-3.92,0-7.83,0-10.21-.06-20.43c0-1.47,0-1.9,0-1.63q0-7.77,0-15.55,0-14.5.18-29c.07-7.37.15-14.74.35-22.1.09-3.17.17-6.34.43-9.5a28.11,28.11,0,0,1,2.5-10.5,14,14,0,0,1,8.09-6.86c3.73-1.3,7.74-1.64,11.65-2q6.74-.67,13.52-1a233.08,233.08,0,0,1,27.34.46q6.82.51,13.61,1.42a46.46,46.46,0,0,1,11.18,2.52,17.73,17.73,0,0,1,8.64,7.25A36.35,36.35,0,0,1,422.7,170a192.71,192.71,0,0,1,4.44,26.13,184.82,184.82,0,0,1,1.21,26.61,58.85,58.85,0,0,1-.54,6.17,40.62,40.62,0,0,0-8.53-3.91,43.15,43.15,0,0,0-21.19-1.29c-6.63,1.25-14.62,4.15-17.83,10.61-3.35,6.76,2.48,13.35,8.37,16.14a34.75,34.75,0,0,0,11.28,2.75,32.33,32.33,0,0,0,12.34-1c7.36-2.16,12.48-7.53,15.24-14.6a35.18,35.18,0,0,0,1.66-5.68,34.73,34.73,0,0,1,4.24,3.52,38.86,38.86,0,0,1,9.9,37.48,31.54,31.54,0,0,1-5.86,11.18,28.81,28.81,0,0,0-3-5.74c-4.31-6.28-11.78-9.52-19.25-9.86-7.25-.33-14.95,1.74-20.17,7-2.24,2.25-3.92,5.21-3.67,8.48.26,3.43,2.37,6.44,4.94,8.61,10.24,8.62,26.33,6.08,36.4-1.38a33.63,33.63,0,0,0,4.06-3.55,79.57,79.57,0,0,1,2.79,14.6c.59,5.1,1,10.23,1.29,15.36.76,12.52,1.08,25.06,1.28,37.6.2,12.14.25,24.28.24,36.42q0,6.61,0,13.25a.9.9,0,0,0,1.8,0c0-11,.06-22,0-33.05-.09-13.56-.3-27.12-.82-40.67-.42-11.11-.89-22.3-2.51-33.32a69.71,69.71,0,0,0-2.58-11.73,33.2,33.2,0,0,0,6.19-10.63A39.19,39.19,0,0,0,445.63,254.93Zm-124.38,5.12v0Zm99.53-14.88c-5.5,5.81-14.11,7.14-21.75,6.17-3.71-.46-7.72-1.27-11-3.19-2.94-1.74-5.88-4.47-6.8-7.87-1-3.61,1.34-7,4-9.2a25.33,25.33,0,0,1,9.47-4.68,40.79,40.79,0,0,1,32.8,4.45C426.51,236.13,424.54,241.2,420.78,245.17Zm-5.28,50.9c-6.28.6-13.39-.69-18.25-5-2.59-2.27-4.76-5.63-4-9.22.68-3.2,3.33-5.72,5.95-7.48,6.18-4.15,14.55-5.11,21.67-3.16a21.8,21.8,0,0,1,9.87,5.49,24.46,24.46,0,0,1,5.23,8.73l.09.27A32.36,32.36,0,0,1,415.5,296.07Z" style="fill:#455a64"></path><g style="opacity:0.4"><polygon points="476.62 409.43 435.29 409.43 439.16 379.02 474.09 378.66 476.62 409.43" style="fill:#F9A8D4"></polygon></g><g style="opacity:0.30000000000000004"><path d="M458.35,347.67,468.9,447l24,.43c1.16-2.23-14.52-99.77-14.52-99.77Z" style="fill:#fff"></path></g><path d="M332.25,235.27s.3,0,.84-.1a5.43,5.43,0,0,0,4.36-3.89,5.4,5.4,0,0,0-3.15-6.46,6.15,6.15,0,0,0-1.49-.38c-.51,0-1.06,0-1.61,0H308.06a5.41,5.41,0,0,0-3.74,1.52,5.38,5.38,0,0,0-.43,7.19,5.49,5.49,0,0,0,3.11,1.9,9.12,9.12,0,0,0,1.81.1H314l6.12,0,8.87,0,2.41,0H332a.85.85,0,0,1,.21,0h-.84l-2.41,0-8.87,0-6.12,0h-5.2a8.93,8.93,0,0,1-1.85-.11,5.69,5.69,0,0,1-3.26-2,5.6,5.6,0,0,1,4.36-9.11H331.2c.55,0,1.09,0,1.63,0a5.62,5.62,0,0,1,1.54.39,5.5,5.5,0,0,1,2.33,1.81,5.42,5.42,0,0,1,1,2.48,5.46,5.46,0,0,1-4.64,6.29,4.28,4.28,0,0,1-.62.05Z" style="fill:#263238"></path><rect x="297.97" y="234.15" width="38.78" height="11.88" style="fill:#263238"></rect></g><g id="freepik--Fire--inject-83"><path d="M327,399.43c-.15-5.59-3.46-11.06-6.21-15.92a9.4,9.4,0,0,0-2.15-2.83,3.39,3.39,0,0,0-3.34-.64c-1.68.73-2,2.89-2.41,4.69a41.4,41.4,0,0,1-3,8.09,32,32,0,0,0-2.76,8.18,11.67,11.67,0,0,0,1.52,8.31,9.8,9.8,0,0,0,8.43,4.34C324.68,413.3,327.12,405,327,399.43Z" style="fill:#F9A8D4"></path><g style="opacity:0.30000000000000004"><path d="M322.46,405.83c-.08-3.08-1.9-6.08-3.41-8.76a5.22,5.22,0,0,0-1.19-1.56,1.86,1.86,0,0,0-1.83-.35c-.93.4-1.12,1.59-1.33,2.58a22.86,22.86,0,0,1-1.64,4.45,17.7,17.7,0,0,0-1.52,4.5,6.48,6.48,0,0,0,.83,4.57,5.39,5.39,0,0,0,4.64,2.39C321.21,413.46,322.54,408.9,322.46,405.83Z" style="fill:#fff"></path></g><g style="opacity:0.30000000000000004"><path d="M324.51,403.31c-.11-4.18-2.58-8.27-4.64-11.91a6.85,6.85,0,0,0-1.61-2.11,2.51,2.51,0,0,0-2.5-.48c-1.25.54-1.52,2.16-1.8,3.5a30.88,30.88,0,0,1-2.24,6.06,24.32,24.32,0,0,0-2.06,6.11,8.74,8.74,0,0,0,1.14,6.22,7.32,7.32,0,0,0,6.3,3.25C322.81,413.69,324.63,407.5,324.51,403.31Z" style="fill:#fff"></path></g><path d="M308.32,401.45c.08,0-.16,1.31,0,2.92s.57,2.86.49,2.88a7.08,7.08,0,0,1-.74-2.86A7,7,0,0,1,308.32,401.45Z" style="fill:#fff"></path><path d="M345.28,431.47h-17s-.09-12.67,0-13l-10.46.09h-1.48l-10.46-.09c.09.3,0,13,0,13h-17a2.23,2.23,0,0,0-2.23,2.23v22.1A2.23,2.23,0,0,0,288.9,458h56.38a2.23,2.23,0,0,0,2.23-2.23V433.7A2.23,2.23,0,0,0,345.28,431.47Z" style="fill:#fff"></path><path d="M345.28,431.47a1.65,1.65,0,0,1,.51,0,2.24,2.24,0,0,1,1.28.78,2.43,2.43,0,0,1,.47,1,11.31,11.31,0,0,1,0,1.33c0,1,0,2.07,0,3.32,0,2.49,0,5.54.05,9.07,0,1.77,0,3.67,0,5.67,0,1,0,2,0,3.1a2.42,2.42,0,0,1-2.12,2.42l-31.32.07-18.48,0H289.7a8,8,0,0,1-1.27-.05,2.49,2.49,0,0,1-1.93-1.77,2.67,2.67,0,0,1-.09-.69V437.71c0-1.44,0-2.81,0-4.27a2.5,2.5,0,0,1,1.23-1.89,2.43,2.43,0,0,1,1.11-.33h17.13l-.25.25q0-3.37,0-6.62c0-1.08,0-2.15,0-3.21v-1.57c0-.51,0-1,0-1.5v-.3h.23l11.81.11,10.59-.07h.19v.25c-.06,2.33,0,4.71,0,6.85s0,4.18,0,6.06l-.15-.15,12.52.07,3.33,0,.85,0a1.64,1.64,0,0,1,.29,0l-.29,0-.85,0-3.33,0-12.52.07h-.14v-.15q0-2.82-.06-6.06c0-1.08,0-2.2,0-3.35s0-2.29.05-3.62l.18.25-10.59.11-11.83-.07.23-.3c.06.64,0,1.08.05,1.63v4.79c0,2.17,0,4.37,0,6.62v.25H288.78a1.93,1.93,0,0,0-.87.27,2,2,0,0,0-1,1.5c0,1.39,0,2.79,0,4.21v18.07a2,2,0,0,0,.07.55,2,2,0,0,0,1.52,1.41,7.55,7.55,0,0,0,1.18,0h24.55l31.28,0a2.05,2.05,0,0,0,1.81-2.05c0-1.06,0-2.09,0-3.1,0-2,0-3.9,0-5.67,0-3.53,0-6.58,0-9.07,0-1.25,0-2.35,0-3.32a9.34,9.34,0,0,0,0-1.31,2.11,2.11,0,0,0-.43-1,2.16,2.16,0,0,0-1.2-.78C345.46,431.48,345.28,431.49,345.28,431.47Z" style="fill:#263238"></path><path d="M342.8,433.51l-14.41-.06a1.69,1.69,0,0,1-1.69-1.7V420.41H308.15c.06.19,0,7.91,0,11.41a1.71,1.71,0,0,1-1.7,1.69H291.11a2,2,0,0,0-2.05,1.89v18.74a2,2,0,0,0,2.05,1.89H342.8a2,2,0,0,0,2.05-1.89V435.4A2,2,0,0,0,342.8,433.51Z" style="fill:#e0e0e0"></path><path d="M328.58,420.41H304.73a1.85,1.85,0,0,1-1.85-1.85h0a1.85,1.85,0,0,1,1.85-1.85h23.85a1.84,1.84,0,0,1,1.84,1.85h0A1.84,1.84,0,0,1,328.58,420.41Z" style="fill:#fff"></path><path d="M328.58,420.41s.21,0,.57-.15a1.82,1.82,0,0,0,1.09-1.17,1.75,1.75,0,0,0-1-2.1,5,5,0,0,0-1.64-.11l-1.91,0-21,.07a1.59,1.59,0,1,0,.18,3.18l5.56,0,9.43.05,6.35.08,1.73.05a2.41,2.41,0,0,1,.6.06,4.13,4.13,0,0,1-.6,0l-1.73.05-6.35.08-9.43.06h-5.56a2.15,2.15,0,0,1-1.53-.49,2.09,2.09,0,0,1-.75-1.46,2.12,2.12,0,0,1,2.1-2.26l21,.08,1.91,0h.88a2.28,2.28,0,0,1,.87.16,2,2,0,0,1,1.06,1.13,1.88,1.88,0,0,1,0,1.3,1.92,1.92,0,0,1-1.24,1.21A1.24,1.24,0,0,1,328.58,420.41Z" style="fill:#263238"></path><rect x="314.81" y="416.06" width="4.69" height="37.59" style="fill:#ae7461"></rect><rect x="308.15" y="413.95" width="16.36" height="2.76" rx="0.99" style="fill:#455a64"></rect><path d="M289.06,445.68h55.79a0,0,0,0,1,0,0v7.47A2.87,2.87,0,0,1,342,456h-50a2.86,2.86,0,0,1-2.86-2.86v-7.48A0,0,0,0,1,289.06,445.68Z" style="fill:#F9A8D4"></path><g style="opacity:0.30000000000000004"><path d="M347.51,455.8v-3.54l-60.84-.64v4.18A2.23,2.23,0,0,0,288.9,458h56.38A2.23,2.23,0,0,0,347.51,455.8Z"></path></g><g style="opacity:0.30000000000000004"><path d="M332.2,434.85V450s11.2-.09,11.2,0,0-13.5-.62-14.29S332.2,434.85,332.2,434.85Z" style="fill:#fff"></path></g><path d="M310.68,418a13.42,13.42,0,0,0-4.77-.14l-.18.1a.44.44,0,0,0-.12.57.71.71,0,0,0,.51.28,9.82,9.82,0,0,0,4.6-.26c.11,0,.24-.1.25-.25S310.82,418.07,310.68,418Z" style="fill:#e0e0e0"></path></g><g id="freepik--Books--inject-83"><path d="M119.05,389.17H62.58c-8.66,0-15.68-7.74-15.68-17.3h0c0-9.55,7-17.3,15.68-17.3h56.47Z" style="fill:#F9A8D4"></path><path d="M228.9,360.33H103.34v-5.76H228.9a2.76,2.76,0,0,1,2.61,2.88h0A2.76,2.76,0,0,1,228.9,360.33Z" style="fill:#F9A8D4"></path><path d="M228.9,389.17H103.34v-5.72H228.9a2.72,2.72,0,0,1,2.61,2.81v0h0A2.75,2.75,0,0,1,228.9,389.17Z" style="fill:#F9A8D4"></path><path d="M227.68,383.45h-110c-5.78,0-10.46-5.2-10.46-11.58h0c0-6.37,4.69-11.52,10.46-11.54h110A31.4,31.4,0,0,0,227.68,383.45Z" style="fill:#ebebeb"></path><g style="opacity:0.30000000000000004"><path d="M107.24,389.17H62.65c-8.68,0-15.73-7.72-15.75-17.3v0h0c0-9.53,7-17.25,15.65-17.27h45.88C97.06,362.17,97.93,380.36,107.24,389.17Z"></path></g><path d="M214.32,372.94s-22.54.21-50.42.21-50.42,0-50.42-.21,22.54-.18,50.42-.18S214.32,372.83,214.32,372.94Z" style="fill:#263238"></path><path d="M224.68,378.09s-22.53.21-50.38.21-50.42,0-50.42-.21,22.54-.21,50.42-.21S224.68,378,224.68,378.09Z" style="fill:#263238"></path><path d="M221.62,365.66s-22.53.21-50.38.21-50.42,0-50.42-.21,22.54,0,50.42,0S221.62,365.55,221.62,365.66Z" style="fill:#263238"></path><path d="M101.7,386.76s-10.56.21-23.57.21-23.63,0-23.63-.21,10.59-.22,23.63-.22S101.7,386.65,101.7,386.76Z" style="fill:#263238"></path><path d="M101.7,357.45s-10.56.21-23.57.21-23.63,0-23.63-.21,10.59-.21,23.63-.21S101.7,357.34,101.7,357.45Z" style="fill:#263238"></path><path d="M110.71,458h-70c-11.15,0-20.18-10-20.18-22.27h0c0-12.3,9-22.28,20.18-22.28h70a2.82,2.82,0,0,1,2.71,2.92v38.68a2.82,2.82,0,0,1-2.67,2.95Z" style="fill:#F9A8D4"></path><path d="M254.91,420.86H93.3v-7.39H254.91a3.4,3.4,0,0,1,3.22,3.56h0a3.47,3.47,0,0,1-2.95,3.82Z" style="fill:#F9A8D4"></path><path d="M254.91,458H93.3v-7.39H254.91a3.4,3.4,0,0,1,3.22,3.55h0a3.47,3.47,0,0,1-2.95,3.83Z" style="fill:#F9A8D4"></path><path d="M253.34,450.63H111.68c-7.43,0-13.47-6.61-13.49-14.81v-.07h0c0-8.22,6-14.89,13.49-14.89H253.34A40.3,40.3,0,0,0,253.34,450.63Z" style="fill:#ebebeb"></path><g style="opacity:0.4"><path d="M98.22,458H40.5c-11,0-20-9.86-20-22h0c0-12.44,9.13-22.53,20.41-22.53H99.73C85.12,423.31,86.21,446.65,98.22,458Z"></path></g><path d="M236.11,437.13s-29,.22-64.9.22-64.94,0-64.94-.22,29-.21,64.94-.21S236.11,437,236.11,437.13Z" style="fill:#263238"></path><path d="M249.5,443.74s-29,.21-64.93.21-64.94,0-64.94-.21,29-.21,64.94-.21S249.5,443.63,249.5,443.74Z" style="fill:#263238"></path><path d="M245.54,431s-29,.21-64.9.21-64.94,0-64.94-.21,29-.22,64.94-.22S245.54,430.88,245.54,431Z" style="fill:#263238"></path><path d="M91.11,454.9s-13.62.21-30.4.21-30.39,0-30.39-.21,13.62-.18,30.39-.18S91.11,454.79,91.11,454.9Z" style="fill:#263238"></path><path d="M91.11,417.17s-13.62.21-30.4.21-30.39,0-30.39-.21S43.94,417,60.71,417,91.11,417.06,91.11,417.17Z" style="fill:#263238"></path><path d="M137.53,413.65H73.62c-6.38,0-11.55-5.74-11.55-12.79h0c0-7,5.17-12.75,11.55-12.75h63.91Z" style="fill:#455a64"></path><path d="M252.5,394.15H121.18v-6H252.5a2.89,2.89,0,0,1,2.7,3h0A2.89,2.89,0,0,1,252.5,394.15Z" style="fill:#455a64"></path><path d="M252.5,413.65H121.18v-6H252.5a2.89,2.89,0,0,1,2.7,3h0A2.89,2.89,0,0,1,252.5,413.65Z" style="fill:#455a64"></path><path d="M251.21,407.61H131.32c-3.38,0-6.12-3-6.12-6.75h0c0-3.71,2.75-6.71,6.12-6.71H251.21A10.9,10.9,0,0,0,251.21,407.61Z" style="fill:#fafafa"></path><g style="opacity:0.30000000000000004"><path d="M125.2,413.65H73.53c-6.34,0-11.46-5.69-11.46-12.68h0c0-7.1,5.21-12.86,11.65-12.86h52.7C114.54,393.72,115.45,407.11,125.2,413.65Z"></path></g><path d="M237.24,399.83s-23.63.18-52.74.18-52.76,0-52.76-.18,23.59-.21,52.76-.21S237.24,399.69,237.24,399.83Z" style="fill:#263238"></path><path d="M248.09,403.45s-23.6.22-52.74.22-52.76,0-52.76-.22,23.63-.21,52.76-.21S248.09,403.35,248.09,403.45Z" style="fill:#263238"></path><path d="M119.41,411.09s-11,.22-24.7.22-24.69,0-24.69-.22,11.07-.21,24.69-.21S119.41,411,119.41,411.09Z" style="fill:#263238"></path><path d="M119.41,391.13s-11,.21-24.7.21-24.69,0-24.69-.21,11.07-.22,24.69-.22S119.41,391,119.41,391.13Z" style="fill:#263238"></path><path d="M253.62,388.11s-40.53.21-90.56.21-90.56,0-90.56-.21,40.53,0,90.56,0S253.62,388,253.62,388.11Z" style="fill:#263238"></path><polygon points="153.85 365.83 153.85 379.69 158.2 376.6 163.06 379.69 163.06 365.83 153.85 365.83" style="fill:#F9A8D4"></polygon></g></svg>
