<svg id="visual" viewBox="0 0 900 600" width="900" height="600" xmlns="http://www.w3.org/2000/svg" xmlns:xlink="http://www.w3.org/1999/xlink" version="1.1"><path d="M0 504L21.5 497.7C43 491.3 86 478.7 128.8 483.2C171.7 487.7 214.3 509.3 257.2 512.7C300 516 343 501 385.8 500.7C428.7 500.3 471.3 514.7 514.2 520.8C557 527 600 525 642.8 527.8C685.7 530.7 728.3 538.3 771.2 532.3C814 526.3 857 506.7 878.5 496.8L900 487L900 601L878.5 601C857 601 814 601 771.2 601C728.3 601 685.7 601 642.8 601C600 601 557 601 514.2 601C471.3 601 428.7 601 385.8 601C343 601 300 601 257.2 601C214.3 601 171.7 601 128.8 601C86 601 43 601 21.5 601L0 601Z" fill="#ec4899" stroke-linecap="round" stroke-linejoin="miter"></path></svg>