<svg xmlns="http://www.w3.org/2000/svg"  viewBox="0 0 500 500"><g id="freepik--Floor--inject-16"><path id="freepik--floor--inject-16" d="M91.41,265.86C4,316.34,4,398.19,91.41,448.67s229.22,50.49,316.66,0,87.43-132.33,0-182.81S178.85,215.37,91.41,265.86Z" style="fill:#fafafa"></path></g><g id="freepik--Shadows--inject-16"><path id="freepik--Shadow--inject-16" d="M199.55,225.41c-32.54,18.79-32.54,49.25,0,68s85.29,18.78,117.83,0,32.54-49.25,0-68S232.09,206.63,199.55,225.41Z" style="fill:#e0e0e0"></path><path id="freepik--shadow--inject-16" d="M233.48,406.69c-25.27,14.6-25.27,38.26,0,52.85s66.26,14.6,91.54,0,25.27-38.25,0-52.85S258.76,392.1,233.48,406.69Z" style="fill:#e0e0e0"></path><polygon id="freepik--shadow--inject-16" points="142.85 451.27 278.21 373.12 250.34 357.03 114.98 435.18 142.85 451.27" style="fill:#e0e0e0"></polygon><path id="freepik--shadow--inject-16" d="M60.57,332.44c-23.83,14.07-23.83,36.89,0,51s62.45,14.07,86.28,0,23.82-36.89,0-51S84.39,318.37,60.57,332.44Z" style="fill:#e0e0e0"></path><path id="freepik--shadow--inject-16" d="M332.53,340.55c-29,17.16-29,45,0,62.14s76.16,17.16,105.21,0,29.05-45,0-62.13S361.58,323.4,332.53,340.55Z" style="fill:#e0e0e0"></path></g><g id="freepik--flask-2--inject-16"><g id="freepik--conical-flask--inject-16"><path d="M278.71,126.07V86l-40.47.08v40L181.91,248.69a14,14,0,0,0-1.21,7.55,1.5,1.5,0,0,0,0,.24c1.55,10.17,9.06,20.09,22.54,27.88,30.47,17.59,79.88,17.59,110.36,0,15.33-8.85,22.93-20.47,22.84-32.07Z" style="fill:#F9A8D4"></path><path d="M278.71,126.07V86l-40.47.08v40L181.91,248.69a14,14,0,0,0-1.21,7.55,1.5,1.5,0,0,0,0,.24c1.55,10.17,9.06,20.09,22.54,27.88,30.47,17.59,79.88,17.59,110.36,0,15.33-8.85,22.93-20.47,22.84-32.07C336.49,252.17,278.71,126.07,278.71,126.07Z" style="fill:#fff;opacity:0.7000000000000001"></path><path d="M278.7,86l-16.18,0v42.88s26.61,64.05,36.19,87.91,14.59,63.63-13.84,72.49c-27.43,8.54-48.23,6.26-50.21,6.09,26.93,5,57.61,1.3,79-11,14.68-8.48,22.27-19.48,22.81-30.59a5.59,5.59,0,0,0-.48-2.61L278.71,126.07Z" style="fill:#F9A8D4;opacity:0.30000000000000004"></path><path d="M327.16,248.11l-34.81-78.78H224.59l-34.81,78.78a10.26,10.26,0,0,0-.68,3.5,9.68,9.68,0,0,0,.39,3,.59.59,0,0,0,0,.17c1.67,8.15,8.3,16,19.88,22.29,27.09,14.62,71,14.62,98.13,0,11.53-6.23,18.16-14.1,19.87-22.21a.15.15,0,0,1,0-.08,9.73,9.73,0,0,0,.41-3.27,0,0,0,0,0,0-.07A10.34,10.34,0,0,0,327.16,248.11Z" style="fill:#F9A8D4"></path><path d="M327.16,248.11l-34.81-78.78H224.59l-34.81,78.78a10.26,10.26,0,0,0-.68,3.5,9.68,9.68,0,0,0,.39,3,.59.59,0,0,0,0,.17c1.67,8.15,8.3,16,19.88,22.29,27.09,14.62,71,14.62,98.13,0,11.53-6.23,18.16-14.1,19.87-22.21a.15.15,0,0,1,0-.08,9.73,9.73,0,0,0,.41-3.27,0,0,0,0,0,0-.07A10.34,10.34,0,0,0,327.16,248.11Z" style="opacity:0.30000000000000004"></path><g style="opacity:0.30000000000000004"><path d="M237.93,231.93a3.74,3.74,0,0,1,.5,4.54,4,4,0,0,1-4.18,2,3.75,3.75,0,0,0,3.68-6.53Z" style="fill:#fff;opacity:0.6000000000000001"></path><g style="opacity:0.30000000000000004"><path d="M236.09,231.69a3.48,3.48,0,0,1,1.72.45,3.5,3.5,0,0,1-1.72,6.56,3.51,3.51,0,0,1-3.38-2.56,3.51,3.51,0,0,1,3.38-4.45m0-.24a3.75,3.75,0,0,0-1.84,7,3.8,3.8,0,0,0,1.84.48,3.75,3.75,0,1,0,0-7.49Z" style="fill:#fff"></path></g><path d="M235.2,232.55c-1.45.61-2.37,2-2,3.23.07.2.38.45.58.25s.45-.65.79-.93a2.66,2.66,0,0,1,1-.54c.8-.19,1.29-.2,1.6-.89C237.59,232.78,236.72,231.92,235.2,232.55Z" style="fill:#fff;opacity:0.5"></path><path d="M236.87,233.12a.57.57,0,0,1-.45.66.56.56,0,0,1-.66-.44.57.57,0,0,1,.44-.67A.59.59,0,0,1,236.87,233.12Z" style="fill:#fff;opacity:0.30000000000000004"></path><path d="M258.37,267.45a5.32,5.32,0,0,1,.72,6.45,5.69,5.69,0,0,1-5.93,2.82,5.32,5.32,0,0,0,5.21-9.27Z" style="fill:#fff;opacity:0.6000000000000001"></path><g style="opacity:0.30000000000000004"><path d="M255.77,267.11a5,5,0,0,1,2.44.64,5,5,0,0,1,1.89,6.78,5,5,0,0,1-4.34,2.54,5.11,5.11,0,0,1-2.44-.64,5,5,0,0,1-2.35-3,4.9,4.9,0,0,1,.46-3.78,5,5,0,0,1,4.34-2.54m0-.34a5.32,5.32,0,0,0-2.61,10,5.22,5.22,0,0,0,2.6.69,5.32,5.32,0,1,0,0-10.64Z" style="fill:#fff"></path></g><path d="M254.5,268.34c-2.06.86-3.36,2.89-2.78,4.58.1.28.54.63.83.36s.64-.93,1.11-1.33a4,4,0,0,1,1.39-.77c1.12-.27,1.82-.27,2.27-1.26C257.9,268.66,256.65,267.43,254.5,268.34Z" style="fill:#fff;opacity:0.5"></path><path d="M256.87,269.15a.8.8,0,1,1-.94-.64A.8.8,0,0,1,256.87,269.15Z" style="fill:#fff;opacity:0.30000000000000004"></path><path d="M309.65,255.59a5.32,5.32,0,0,1,.43,6.47,5.71,5.71,0,0,1-6.06,2.56,5.32,5.32,0,1,0,5.63-9Z" style="fill:#fff;opacity:0.6000000000000001"></path><g style="opacity:0.30000000000000004"><path d="M307.07,255.13a5,5,0,1,1-4.46,2.34,5,5,0,0,1,4.46-2.34m0-.34a5.32,5.32,0,1,0,2.57.8,5.33,5.33,0,0,0-2.57-.8Z" style="fill:#fff"></path></g><path d="M305.74,256.3c-2.09.77-3.49,2.74-3,4.46.08.28.51.65.81.39s.68-.9,1.17-1.28a4,4,0,0,1,1.42-.7c1.13-.22,1.83-.19,2.33-1.16C309.12,256.77,307.93,255.5,305.74,256.3Z" style="fill:#fff;opacity:0.5"></path><path d="M308.07,257.22a.8.8,0,1,1-1.59.23.8.8,0,0,1,1.59-.23Z" style="fill:#fff;opacity:0.30000000000000004"></path><path d="M265.25,246.78a2.3,2.3,0,0,1,.32,2.79A2.5,2.5,0,0,1,263,250.8a2.31,2.31,0,0,0,2.26-4Z" style="fill:#fff;opacity:0.6000000000000001"></path><g style="opacity:0.30000000000000004"><path d="M264.12,246.63a2.16,2.16,0,0,1,0,4.32,2.21,2.21,0,0,1-1.06-.28,2.16,2.16,0,0,1,1.06-4m0-.15a2.31,2.31,0,1,0,0,4.61,2.31,2.31,0,0,0,0-4.61Z" style="fill:#fff"></path></g><path d="M263.57,247.16a1.75,1.75,0,0,0-1.2,2c0,.12.23.27.36.15s.27-.4.48-.57a1.7,1.7,0,0,1,.6-.34c.49-.11.79-.12,1-.54S264.51,246.77,263.57,247.16Z" style="fill:#fff;opacity:0.5"></path><path d="M264.6,247.51a.35.35,0,0,1-.28.41.35.35,0,0,1-.13-.69A.36.36,0,0,1,264.6,247.51Z" style="fill:#fff;opacity:0.30000000000000004"></path><path d="M228.73,208.1a3.23,3.23,0,0,1,.44,3.93,3.46,3.46,0,0,1-3.62,1.72,3.24,3.24,0,1,0,3.18-5.65Z" style="fill:#fff;opacity:0.6000000000000001"></path><g style="opacity:0.30000000000000004"><path d="M227.15,207.89a3,3,0,0,1,1.48.39,3,3,0,0,1-3,5.29,3,3,0,0,1,1.5-5.68m0-.21a3.25,3.25,0,0,0-1.6,6.07,3.16,3.16,0,0,0,1.59.42,3.25,3.25,0,0,0,0-6.49Z" style="fill:#fff"></path></g><path d="M226.37,208.64a2.45,2.45,0,0,0-1.69,2.8c0,.16.32.38.5.21s.39-.57.68-.81a2.59,2.59,0,0,1,.84-.47c.69-.16,1.12-.17,1.39-.77C228.44,208.83,227.69,208.09,226.37,208.64Z" style="fill:#fff;opacity:0.5"></path><path d="M227.82,209.13a.49.49,0,0,1-1,.18.49.49,0,0,1,1-.18Z" style="fill:#fff;opacity:0.30000000000000004"></path><path d="M285.51,244.38a2,2,0,0,1,.16,2.41,2.11,2.11,0,0,1-2.26,1,2,2,0,1,0,2.1-3.36Z" style="fill:#fff;opacity:0.6000000000000001"></path><g style="opacity:0.30000000000000004"><path d="M284.55,244.21a1.79,1.79,0,0,1,.89.28,1.84,1.84,0,0,1,.83,1.15,1.85,1.85,0,0,1-1.89,2.27,1.8,1.8,0,0,1-.9-.28,1.85,1.85,0,0,1,1.07-3.42m0-.13a2,2,0,0,0-1.14,3.66,2,2,0,0,0,1,.3,2,2,0,0,0,1.14-3.66,2,2,0,0,0-1-.3Z" style="fill:#fff"></path></g><path d="M284.06,244.64a1.52,1.52,0,0,0-1.12,1.66c0,.11.19.25.3.15s.26-.34.44-.48a1.54,1.54,0,0,1,.53-.26c.42-.08.68-.07.87-.43S284.87,244.34,284.06,244.64Z" style="fill:#fff;opacity:0.5"></path><path d="M284.92,245a.29.29,0,0,1-.25.34.3.3,0,0,1-.34-.25.31.31,0,0,1,.25-.34A.3.3,0,0,1,284.92,245Z" style="fill:#fff;opacity:0.30000000000000004"></path><path d="M290.15,195.27a2.27,2.27,0,0,1,.3,2.75,2.44,2.44,0,0,1-2.53,1.21,2.27,2.27,0,0,0,2.23-4Z" style="fill:#fff;opacity:0.6000000000000001"></path><g style="opacity:0.30000000000000004"><path d="M289,195.12a2.13,2.13,0,1,1-1.85,1.08,2.13,2.13,0,0,1,1.85-1.08m0-.15a2.28,2.28,0,0,0-1.11,4.26,2.22,2.22,0,0,0,1.11.29,2.27,2.27,0,0,0,1.12-4.25A2.3,2.3,0,0,0,289,195Z" style="fill:#fff"></path></g><path d="M288.49,195.64a1.74,1.74,0,0,0-1.19,2c.05.12.23.27.36.16s.27-.4.47-.57a1.77,1.77,0,0,1,.6-.33c.48-.12.77-.12,1-.54S289.41,195.26,288.49,195.64Z" style="fill:#fff;opacity:0.5"></path><path d="M289.5,196a.33.33,0,0,1-.27.4.34.34,0,1,1-.13-.67A.33.33,0,0,1,289.5,196Z" style="fill:#fff;opacity:0.30000000000000004"></path><path d="M212.22,244.48a4.61,4.61,0,0,1,.63,5.58,4.93,4.93,0,0,1-5.14,2.44,4.6,4.6,0,1,0,4.51-8Z" style="fill:#fff;opacity:0.6000000000000001"></path><g style="opacity:0.30000000000000004"><path d="M210,244.18a4.37,4.37,0,0,1,2.11.55,4.3,4.3,0,0,1,2,2.6,4.2,4.2,0,0,1-.39,3.27,4.31,4.31,0,1,1-3.75-6.42m0-.3a4.61,4.61,0,0,0-2.27,8.62,4.53,4.53,0,0,0,2.26.6,4.6,4.6,0,0,0,2.26-8.62,4.49,4.49,0,0,0-2.25-.6Z" style="fill:#fff"></path></g><path d="M208.87,245.24c-1.79.75-2.91,2.51-2.41,4,.08.24.47.55.72.31s.55-.8,1-1.15a3.56,3.56,0,0,1,1.2-.67c1-.23,1.58-.23,2-1.09C211.81,245.52,210.73,244.46,208.87,245.24Z" style="fill:#fff;opacity:0.5"></path><path d="M210.92,245.94a.7.7,0,1,1-1.37.26.7.7,0,0,1,.55-.81A.71.71,0,0,1,210.92,245.94Z" style="fill:#fff;opacity:0.30000000000000004"></path><path d="M304.5,226.3a3.8,3.8,0,0,1-1.27,4.46,4.06,4.06,0,0,1-4.69.27,3.8,3.8,0,0,0,6-4.73Z" style="fill:#fff;opacity:0.6000000000000001"></path><g style="opacity:0.30000000000000004"><path d="M301.52,225.1a3.56,3.56,0,0,1,2.21,6.35,3.48,3.48,0,0,1-2.21.77,3.56,3.56,0,0,1,0-7.12m0-.24a3.8,3.8,0,1,0,3,1.44,3.78,3.78,0,0,0-3-1.44Z" style="fill:#fff"></path></g><path d="M301.69,225.84c-1.59,0-3,1-3.08,2.29,0,.21.19.56.46.46s.67-.45,1.09-.58a2.73,2.73,0,0,1,1.13-.14c.81.12,1.28.31,1.84-.22C303.86,227,303.36,225.82,301.69,225.84Z" style="fill:#fff;opacity:0.5"></path><path d="M303,227a.57.57,0,1,1-1.12-.22A.57.57,0,1,1,303,227Z" style="fill:#fff;opacity:0.30000000000000004"></path><path d="M280.61,223.21a2.66,2.66,0,0,1-.88,3.12,2.86,2.86,0,0,1-3.29.19,2.66,2.66,0,1,0,4.17-3.31Z" style="fill:#fff;opacity:0.6000000000000001"></path><g style="opacity:0.30000000000000004"><path d="M278.53,222.37a2.49,2.49,0,0,1,1.55,4.44,2.47,2.47,0,0,1-3.5-.4,2.49,2.49,0,0,1,1.95-4m0-.17a2.66,2.66,0,1,0,0,5.32,2.61,2.61,0,0,0,1.65-.57,2.65,2.65,0,0,0,.43-3.74,2.62,2.62,0,0,0-2.08-1Z" style="fill:#fff"></path></g><path d="M278.65,222.88a2,2,0,0,0-2.16,1.61c0,.14.14.39.32.32s.47-.31.77-.41a1.91,1.91,0,0,1,.79-.09c.57.08.89.21,1.29-.16S279.82,222.87,278.65,222.88Z" style="fill:#fff;opacity:0.5"></path><path d="M279.59,223.71a.4.4,0,0,1-.47.31.39.39,0,0,1-.31-.47.4.4,0,1,1,.78.16Z" style="fill:#fff;opacity:0.30000000000000004"></path><path d="M251.82,199.13a2.65,2.65,0,0,1-.88,3.12,2.85,2.85,0,0,1-3.29.19,2.66,2.66,0,1,0,4.17-3.31Z" style="fill:#fff;opacity:0.6000000000000001"></path><g style="opacity:0.30000000000000004"><path d="M249.74,198.29a2.48,2.48,0,0,1,1.95.94,2.49,2.49,0,0,1-1.95,4.05,2.5,2.5,0,0,1,0-5m0-.17a2.67,2.67,0,0,0-2.09,4.32,2.67,2.67,0,0,0,2.09,1,2.67,2.67,0,0,0,0-5.33Z" style="fill:#fff"></path></g><path d="M249.86,198.81a2,2,0,0,0-2.16,1.6c0,.14.13.39.32.32s.47-.31.77-.41a1.91,1.91,0,0,1,.79-.09c.57.08.89.21,1.29-.16S251,198.79,249.86,198.81Z" style="fill:#fff;opacity:0.5"></path><path d="M250.8,199.63a.4.4,0,1,1-.31-.47A.39.39,0,0,1,250.8,199.63Z" style="fill:#fff;opacity:0.30000000000000004"></path><path d="M255.2,221.16a1.4,1.4,0,0,1,.19,1.68,1.49,1.49,0,0,1-1.55.74,1.39,1.39,0,0,0,1.36-2.42Z" style="fill:#fff;opacity:0.6000000000000001"></path><g style="opacity:0.30000000000000004"><path d="M254.52,221.07a1.33,1.33,0,0,1,.64.17,1.3,1.3,0,0,1-.64,2.43,1.33,1.33,0,0,1-.64-.17,1.29,1.29,0,0,1-.61-.78,1.32,1.32,0,0,1,.12-1,1.29,1.29,0,0,1,1.13-.66m0-.09a1.41,1.41,0,0,0-1.21.71,1.39,1.39,0,0,0,.53,1.89,1.41,1.41,0,0,0,.68.18,1.39,1.39,0,0,0,0-2.78Z" style="fill:#fff"></path></g><path d="M254.19,221.39a1,1,0,0,0-.72,1.2c0,.07.14.16.21.09s.17-.24.29-.35a1.27,1.27,0,0,1,.36-.2c.3-.07.48-.07.6-.33S254.75,221.16,254.19,221.39Z" style="fill:#fff;opacity:0.5"></path><path d="M254.81,221.6a.21.21,0,0,1-.17.25.21.21,0,0,1-.24-.17.21.21,0,0,1,.41-.08Z" style="fill:#fff;opacity:0.30000000000000004"></path><path d="M236.26,255.32a1.4,1.4,0,0,1,.19,1.68,1.49,1.49,0,0,1-1.55.74,1.39,1.39,0,1,0,1.36-2.42Z" style="fill:#fff;opacity:0.6000000000000001"></path><g style="opacity:0.30000000000000004"><path d="M235.58,255.23a1.33,1.33,0,0,1,.64.17,1.3,1.3,0,0,1-.64,2.43,1.33,1.33,0,0,1-.64-.17,1.29,1.29,0,0,1-.61-.78,1.27,1.27,0,0,1,.12-1,1.29,1.29,0,0,1,1.13-.66m0-.09a1.39,1.39,0,1,0,.68.18,1.41,1.41,0,0,0-.68-.18Z" style="fill:#fff"></path></g><path d="M235.25,255.55a1.07,1.07,0,0,0-.73,1.2c0,.07.14.16.22.09s.17-.24.29-.35a1,1,0,0,1,.36-.2c.29-.07.48-.07.59-.33S235.81,255.31,235.25,255.55Z" style="fill:#fff;opacity:0.5"></path><path d="M235.87,255.76a.22.22,0,0,1-.17.25.21.21,0,0,1-.24-.17.2.2,0,0,1,.16-.24A.21.21,0,0,1,235.87,255.76Z" style="fill:#fff;opacity:0.30000000000000004"></path><path d="M271.89,201.9a1.4,1.4,0,0,1,.19,1.68,1.49,1.49,0,0,1-1.55.74,1.39,1.39,0,1,0,1.36-2.42Z" style="fill:#fff;opacity:0.6000000000000001"></path><g style="opacity:0.30000000000000004"><path d="M271.21,201.81a1.27,1.27,0,0,1,.63.17,1.3,1.3,0,0,1,.5,1.77,1.32,1.32,0,0,1-1.13.66,1.3,1.3,0,0,1-1.13-1.94,1.31,1.31,0,0,1,1.13-.66m0-.09a1.39,1.39,0,0,0,0,2.78,1.39,1.39,0,0,0,0-2.78Z" style="fill:#fff"></path></g><path d="M270.88,202.13a1.07,1.07,0,0,0-.73,1.2c0,.07.14.16.22.09s.16-.24.29-.35a1.15,1.15,0,0,1,.36-.2c.29-.07.48-.07.59-.32S271.44,201.9,270.88,202.13Z" style="fill:#fff;opacity:0.5"></path><path d="M271.49,202.34a.2.2,0,0,1-.16.25.21.21,0,0,1-.25-.17.21.21,0,0,1,.17-.24A.2.2,0,0,1,271.49,202.34Z" style="fill:#fff;opacity:0.30000000000000004"></path><path d="M224.89,187.86a1.37,1.37,0,0,1,.19,1.68,1.49,1.49,0,0,1-1.55.74,1.39,1.39,0,0,0,1.36-2.42Z" style="fill:#fff;opacity:0.6000000000000001"></path><g style="opacity:0.30000000000000004"><path d="M224.22,187.77a1.27,1.27,0,0,1,.63.17,1.3,1.3,0,0,1,.5,1.76,1.32,1.32,0,0,1-1.14.67,1.27,1.27,0,0,1-.63-.17,1.3,1.3,0,0,1,.64-2.43m0-.09a1.36,1.36,0,0,0-1.21.71,1.37,1.37,0,0,0,1.2,2.06,1.38,1.38,0,0,0,.68-2.59,1.35,1.35,0,0,0-.67-.18Z" style="fill:#fff"></path></g><path d="M223.88,188.09a1.06,1.06,0,0,0-.72,1.2c0,.07.14.16.21.09s.17-.24.29-.35a1.11,1.11,0,0,1,.37-.2c.29-.07.47-.07.59-.33S224.45,187.85,223.88,188.09Z" style="fill:#fff;opacity:0.5"></path><path d="M224.5,188.3a.22.22,0,0,1-.17.25.21.21,0,0,1-.24-.17.22.22,0,0,1,.17-.25A.21.21,0,0,1,224.5,188.3Z" style="fill:#fff;opacity:0.30000000000000004"></path><path d="M210.64,226.78a1.38,1.38,0,0,1,.19,1.69,1.48,1.48,0,0,1-1.55.73,1.39,1.39,0,0,0,1.36-2.42Z" style="fill:#fff;opacity:0.6000000000000001"></path><g style="opacity:0.30000000000000004"><path d="M210,226.69a1.28,1.28,0,0,1,.64.17,1.3,1.3,0,0,1-.64,2.43,1.32,1.32,0,0,1-1.25-.95,1.29,1.29,0,0,1,.12-1,1.31,1.31,0,0,1,1.13-.67m0-.08a1.38,1.38,0,0,0-.68,2.59,1.41,1.41,0,0,0,.68.18,1.36,1.36,0,0,0,1.21-.71,1.38,1.38,0,0,0-1.21-2.06Z" style="fill:#fff"></path></g><path d="M209.63,227a1.07,1.07,0,0,0-.72,1.2c0,.07.14.17.21.09s.17-.24.29-.34a1.11,1.11,0,0,1,.37-.2c.29-.07.47-.08.59-.33S210.2,226.78,209.63,227Z" style="fill:#fff;opacity:0.5"></path><path d="M210.25,227.23a.21.21,0,1,1-.24-.17A.2.2,0,0,1,210.25,227.23Z" style="fill:#fff;opacity:0.30000000000000004"></path></g><path d="M327.84,251.4a10.34,10.34,0,0,0-.68-3.29l-34.81-78.78H279.26c7.27,17.62,15.11,36.68,19.45,47.49,7.12,17.75,16.06,44.31,8.47,60.39l.36-.18c11.53-6.23,18.16-14.1,19.87-22.21a.15.15,0,0,1,0-.08,9.73,9.73,0,0,0,.41-3.27A0,0,0,0,0,327.84,251.4Z" style="opacity:0.30000000000000004"></path><path d="M269.53,154.49c-12.11-2.31-26-.84-35.45,4.41-13.15,7.3-13.15,19.12,0,26.42s34.83,7.29,48.44,0,13.6-19.12,0-26.42a45.74,45.74,0,0,0-13-4.41" style="fill:#F9A8D4"></path><path d="M269.53,154.49c-12.11-2.31-26-.84-35.45,4.41-13.15,7.3-13.15,19.12,0,26.42s34.83,7.29,48.44,0,13.6-19.12,0-26.42a45.74,45.74,0,0,0-13-4.41" style="opacity:0.2"></path><path d="M269.13,188.14c-5.34.39-13.8.71-18.15-3a5.21,5.21,0,0,1-1.9-4.94c.31-1.33,1.27-2.5,1.26-3.86a3.78,3.78,0,0,0-2.21-3.11,10.9,10.9,0,0,0-3.88-.9l-6-.65a6.82,6.82,0,0,1-3.3-1c-3.17-2.31,1.1-7.67,2.8-9.57a28.79,28.79,0,0,1,9.1-6.67,43.18,43.18,0,0,0-12.77,4.41c-13.16,7.29-13.16,19.12,0,26.42s34.83,7.29,48.44,0a29.34,29.34,0,0,0,4.24-2.77C282.07,186.27,274.94,187.71,269.13,188.14ZM246.1,177a6.24,6.24,0,0,1-5-.47,1.12,1.12,0,0,1-.5-.83,1,1,0,0,1,.5-.83,2.43,2.43,0,0,1,1-.32c1.12-.18,4.73-.33,4.68,1.46A1.26,1.26,0,0,1,246.1,177Z" style="fill:#fff;mix-blend-mode:hard-light;opacity:0.2"></path><path d="M258.09,180.15a4.67,4.67,0,0,0-3.06.55c-.71.45-1.53,1.41-.72,2.24a1.74,1.74,0,0,0,1.06.43,5.11,5.11,0,0,0,4.11-1.07C260.34,181.42,259.44,180.35,258.09,180.15Zm3.64,3a.52.52,0,0,0-.14.38.53.53,0,0,0,.4.38,1.61,1.61,0,0,0,1.14-.09.71.71,0,0,0,.42-.62C263.49,182.27,262.09,182.71,261.73,183.18Z" style="fill:#fff;mix-blend-mode:hard-light;opacity:0.2"></path><polygon points="273.2 92.11 276.12 91.2 275.85 127.77 309.58 216.26 273.2 128.56 273.2 92.11" style="fill:#fff;opacity:0.2"></polygon><path d="M251.29,132.66l-.08-42.84a43,43,0,0,1-8.88-1.94v40.68L187.48,244.45c-3.51,7.84-2.17,13.38,2,19,3.36,4.57,10.32,11.87,15.71,15,7.79,4.56,16.73,9.14,32.64,11.78,0,0-22.52-11.78-27-20.64-3.32-6.59-3.33-18.48,4.5-42.77S251.29,132.66,251.29,132.66Z" style="fill:#fff;mix-blend-mode:hard-light;opacity:0.2"></path><path d="M278.64,96.45V83l-40.34.09v13.4a20.09,20.09,0,0,0,2.54,1.72c9.73,5.62,25.52,5.62,35.25,0A22.2,22.2,0,0,0,278.64,96.45Z" style="fill:#F9A8D4;opacity:0.30000000000000004"></path><path d="M237.45,75.52c0-3.1,2.05-6.21,6.16-8.57,8.2-4.74,21.51-4.74,29.71,0,4.11,2.36,6.16,5.47,6.16,8.57h0V84.6h0c0,3.1-2.05,6.21-6.16,8.58-8.2,4.74-21.51,4.74-29.71,0-4.11-2.37-6.16-5.48-6.16-8.58h0V75.52Z" style="fill:#F9A8D4"></path><path d="M237.45,75.52c0-3.1,2.05-6.21,6.16-8.57,8.2-4.74,21.51-4.74,29.71,0,4.11,2.36,6.16,5.47,6.16,8.57h0V84.6h0c0,3.1-2.05,6.21-6.16,8.58-8.2,4.74-21.51,4.74-29.71,0-4.11-2.37-6.16-5.48-6.16-8.58h0V75.52Z" style="fill:#fff;opacity:0.5"></path><path d="M242.24,92.3C248.4,95.13,259.89,96.56,266,94c6.48-2.73,9.7-5.5,9.7-11.76V68.62c2.5,2.07,3.76,4.48,3.76,6.9h0V84.6h0c0,3.1-2.05,6.21-6.16,8.58-8.2,4.74-21.51,4.74-29.71,0C243.12,92.9,242.67,92.6,242.24,92.3Z" style="fill:#F9A8D4;opacity:0.30000000000000004"></path><path d="M273.32,84.1c-8.2,4.74-21.51,4.74-29.71,0s-8.21-12.42,0-17.15,21.51-4.74,29.71,0S281.53,79.37,273.32,84.1Z" style="fill:#F9A8D4"></path><path d="M273.32,84.1c-8.2,4.74-21.51,4.74-29.71,0s-8.21-12.42,0-17.15,21.51-4.74,29.71,0S281.53,79.37,273.32,84.1Z" style="fill:#fff;opacity:0.7000000000000001"></path><path d="M269.45,67.57c8,2,10.63,7.56,7.13,11.92s-10.12,7.92-22,6.47-14.39-7.38-14.39-8.79Z" style="fill:#fff;opacity:0.7000000000000001"></path><path d="M271.43,82.47c-7.22,3.86-18.93,3.86-26.15,0s-7.22-10.12,0-14,18.93-3.87,26.15,0S278.65,78.61,271.43,82.47Z" style="fill:#F9A8D4"></path><path d="M271.43,82.47c-7.22,3.86-18.93,3.86-26.15,0s-7.22-10.12,0-14,18.93-3.87,26.15,0S278.65,78.61,271.43,82.47Z" style="fill:#fff;opacity:0.4"></path><path d="M271.43,80.58a14.82,14.82,0,0,1,1.53,1,16.75,16.75,0,0,1-1.53.94c-7.22,3.86-18.93,3.86-26.15,0-.55-.3-1.05-.62-1.53-.94a17.33,17.33,0,0,1,1.53-1C252.5,76.72,264.21,76.72,271.43,80.58Z" style="fill:#fff;opacity:0.4"></path></g></g><g id="freepik--flask-1--inject-16"><g id="freepik--round-bottomed-flask--inject-16"><path d="M69.9,333.3c18.67-11,48.94-11,67.62,0s18.67,28.91,0,39.93-49,11-67.62,0S51.22,344.33,69.9,333.3Z" style="fill:#F9A8D4"></path><g style="opacity:0.30000000000000004"><path d="M69.9,333.3c18.67-11,48.94-11,67.62,0s18.67,28.91,0,39.93-49,11-67.62,0S51.22,344.33,69.9,333.3Z" style="fill:#fff"></path></g><path d="M124.56,227.71V159.45l-41.7.09v68.17C52.3,236.92,30,265.8,30,300c0,41.63,33,75.39,73.71,75.39s73.7-33.76,73.7-75.39C177.41,265.79,155.1,236.91,124.56,227.71Z" style="fill:#F9A8D4"></path><path d="M124.56,227.71V159.45l-41.7.09v68.17C52.3,236.92,30,265.8,30,300c0,41.63,33,75.39,73.71,75.39s73.7-33.76,73.7-75.39C177.41,265.79,155.1,236.91,124.56,227.71Z" style="fill:#fff;opacity:0.7000000000000001"></path><path d="M103.71,375.41c40.7,0,73.7-33.76,73.7-75.39,0-34.23-22.31-63.11-52.85-72.31V159.45l-11.74,0v78.68s27.38,6.81,41.82,37.52c5,10.69,7.28,34,.94,54.23C147.91,354.35,123.58,372.63,103.71,375.41Z" style="fill:#F9A8D4;opacity:0.30000000000000004"></path><polygon points="120.53 228.31 121.89 164.93 118.88 165.89 118.88 228.31 120.53 228.31" style="fill:#fff;opacity:0.2"></polygon><path d="M168.74,300c0,36.72-29.12,66.5-65,66.5s-65-29.78-65-66.5A67.32,67.32,0,0,1,44,273.63c2.57-6.24,8-12.16,16.24-17,24-14.17,62.91-14.17,86.92,0,8.25,4.87,13.65,10.79,16.24,17A67.68,67.68,0,0,1,168.74,300Z" style="fill:#F9A8D4"></path><path d="M168.74,300c0,36.72-29.12,66.5-65,66.5s-65-29.78-65-66.5A67.32,67.32,0,0,1,44,273.63c2.57-6.24,8-12.16,16.24-17,24-14.17,62.91-14.17,86.92,0,8.25,4.87,13.65,10.79,16.24,17A67.68,67.68,0,0,1,168.74,300Z" style="opacity:0.1"></path><path d="M168.74,300a67.67,67.67,0,0,0-5.21-26.09c-5.07,9-20.28,36.12-20.28,36.12,0,24.19-17,56.47-39.55,56.47C139.62,366.53,168.74,336.75,168.74,300Z" style="opacity:0.1"></path><path d="M147.17,307.93c-24,14.18-62.93,14.18-86.92,0-15.76-9.3-21.18-22.4-16.24-34.3,2.57-6.24,8-12.16,16.24-17,24-14.17,62.91-14.17,86.92,0,8.25,4.87,13.65,10.79,16.24,17C168.33,285.53,162.91,298.63,147.17,307.93Z" style="fill:#F9A8D4"></path><path d="M144.35,309.49a82.58,82.58,0,0,1-22.75.59c-2.84-.32-6.3-1.38-6.74-4.21,0-7.2-11.2-7.35-16-7.83a19.58,19.58,0,0,1-7.2-1.66c-2.19-1.14-4-3.37-3.9-5.85.1-2.11,1.5-3.88,2.59-5.69s1.87-4.17.75-6a6.24,6.24,0,0,0-3-2.15c-6.78-3-13.94-2.89-21-4.69-2.18-.56-4.54-1.54-5.43-3.6a6.66,6.66,0,0,1,.05-4.51c1.39-4.75,4.82-8.69,8.82-11.6.67-.49,1.36-.94,2.06-1.38a68.76,68.76,0,0,0-12.37,5.65c-8.25,4.87-13.67,10.79-16.24,17-4.94,11.9.48,25,16.24,34.3C83.33,321.57,120.21,322.08,144.35,309.49Z" style="fill:#fff;mix-blend-mode:hard-light;opacity:0.1"></path><path d="M84,283.65a2.83,2.83,0,0,0,1.75-.44c3.33-2.78-6.83-5.41-8.9-4.55-2.45,1-2.41,3.06-.12,4.1S81.63,283.72,84,283.65Z" style="fill:#F9A8D4"></path><path d="M118.62,298.53a3.88,3.88,0,0,0-2.25,1.19,1,1,0,0,0-.32.89,1.09,1.09,0,0,0,.35.5,4.57,4.57,0,0,0,2.79,1.06,7.61,7.61,0,0,0,3-.55,2.68,2.68,0,0,0,1-.52,1.16,1.16,0,0,0,.41-1,1.36,1.36,0,0,0-.59-.88A6,6,0,0,0,118.62,298.53Z" style="fill:#fff;mix-blend-mode:hard-light;opacity:0.1"></path><path d="M103.23,237.54V163.91a50.14,50.14,0,0,1-14-1.81v69.14c-31.59,6-54.83,35.5-54.83,67.45,0,37.05,23.43,71.59,69.36,71.59C41.58,349.47,39.93,261.3,103.23,237.54Z" style="fill:#fff;mix-blend-mode:hard-light;opacity:0.2"></path><path d="M124.55,173.7V159.45l-41.7.09v14.17a21.63,21.63,0,0,0,2.63,1.81c10.06,5.95,26.38,5.95,36.44,0A20.6,20.6,0,0,0,124.55,173.7Z" style="fill:#F9A8D4;opacity:0.30000000000000004"></path><path d="M82,151.58c0-3.28,2.12-6.56,6.36-9.07,8.48-5,22.24-5,30.72,0,4.24,2.51,6.36,5.79,6.36,9.07h0v9.6h0c0,3.28-2.12,6.56-6.36,9.07-8.48,5-22.24,5-30.72,0-4.24-2.51-6.36-5.79-6.36-9.07h0v-9.6Z" style="fill:#F9A8D4"></path><path d="M82,151.58c0-3.28,2.12-6.56,6.36-9.07,8.48-5,22.24-5,30.72,0,4.24,2.51,6.36,5.79,6.36,9.07h0v9.6h0c0,3.28-2.12,6.56-6.36,9.07-8.48,5-22.24,5-30.72,0-4.24-2.51-6.36-5.79-6.36-9.07h0v-9.6Z" style="fill:#fff;opacity:0.5"></path><path d="M86.92,169.32c6.38,3,18.25,4.51,24.59,1.78,6.7-2.89,10-5.82,10-12.43V144.28c2.58,2.19,3.88,4.74,3.88,7.3h0v9.6h0c0,3.28-2.12,6.56-6.36,9.07-8.48,5-22.24,5-30.72,0C87.84,170,87.37,169.64,86.92,169.32Z" style="fill:#F9A8D4;opacity:0.30000000000000004"></path><path d="M119.06,160.65c-8.48,5-22.24,5-30.72,0s-8.48-13.13,0-18.14,22.24-5,30.72,0S127.54,155.64,119.06,160.65Z" style="fill:#F9A8D4"></path><path d="M119.06,160.65c-8.48,5-22.24,5-30.72,0s-8.48-13.13,0-18.14,22.24-5,30.72,0S127.54,155.64,119.06,160.65Z" style="fill:#fff;opacity:0.7000000000000001"></path><path d="M115.05,143.17c8.28,2.06,11,8,7.37,12.61s-10.46,8.37-22.78,6.83-14.88-7.8-14.88-9.29Z" style="fill:#fff;opacity:0.7000000000000001"></path><path d="M117.1,158.92c-7.46,4.08-19.56,4.08-27,0s-7.47-10.7,0-14.78,19.56-4.08,27,0S124.57,154.84,117.1,158.92Z" style="fill:#F9A8D4"></path><path d="M117.1,158.92c-7.46,4.08-19.56,4.08-27,0s-7.47-10.7,0-14.78,19.56-4.08,27,0S124.57,154.84,117.1,158.92Z" style="fill:#fff;opacity:0.4"></path><path d="M95.69,154.81a23.47,23.47,0,0,0-5.62,2.12,17.11,17.11,0,0,0-1.58,1c-5.84-4.09-5.31-10,1.58-13.79a28.3,28.3,0,0,1,12.7-3C92.34,142.39,90.87,150.59,95.69,154.81Z" style="fill:#F9A8D4;opacity:0.30000000000000004"></path><path d="M117.1,156.93a14.79,14.79,0,0,1,1.58,1,14.76,14.76,0,0,1-1.58,1c-7.46,4.08-19.56,4.08-27,0a16,16,0,0,1-1.59-1,16,16,0,0,1,1.59-1C97.54,152.85,109.64,152.85,117.1,156.93Z" style="fill:#fff;opacity:0.4"></path><g style="opacity:0.30000000000000004"><path d="M52.35,307.92a3.72,3.72,0,0,1,.51,4.53,4,4,0,0,1-4.18,2,3.74,3.74,0,1,0,3.67-6.52Z" style="fill:#fff;opacity:0.6000000000000001"></path><g style="opacity:0.30000000000000004"><path d="M50.52,307.68a3.49,3.49,0,0,1,3.37,2.56,3.44,3.44,0,0,1-.32,2.66,3.5,3.5,0,0,1-4.77,1.34,3.51,3.51,0,0,1-1.34-4.78,3.51,3.51,0,0,1,3.06-1.78m0-.24a3.74,3.74,0,0,0-1.84,7,3.7,3.7,0,0,0,1.83.49,3.75,3.75,0,0,0,1.84-7,3.68,3.68,0,0,0-1.83-.48Z" style="fill:#fff"></path></g><path d="M49.63,308.54c-1.45.61-2.37,2-2,3.23.07.2.38.44.58.25s.45-.65.78-.93a2.81,2.81,0,0,1,1-.55c.79-.19,1.28-.19,1.6-.88C52,308.77,51.14,307.9,49.63,308.54Z" style="fill:#fff;opacity:0.5"></path><path d="M51.29,309.11a.56.56,0,1,1-.66-.45A.56.56,0,0,1,51.29,309.11Z" style="fill:#fff;opacity:0.30000000000000004"></path><path d="M105.38,347.22a5.31,5.31,0,0,1,.72,6.44,5.71,5.71,0,0,1-5.94,2.83,5.32,5.32,0,1,0,5.22-9.27Z" style="fill:#fff;opacity:0.6000000000000001"></path><g style="opacity:0.30000000000000004"><path d="M102.78,346.87a5,5,0,1,1-4.35,2.54,5,5,0,0,1,4.35-2.54m0-.34a5.32,5.32,0,1,0,2.6.69,5.25,5.25,0,0,0-2.6-.69Z" style="fill:#fff"></path></g><path d="M101.51,348.1c-2.06.86-3.37,2.9-2.78,4.59.09.27.53.63.82.35s.64-.93,1.11-1.32a3.92,3.92,0,0,1,1.39-.78c1.13-.27,1.83-.27,2.27-1.25C104.9,348.42,103.66,347.2,101.51,348.1Z" style="fill:#fff;opacity:0.5"></path><path d="M103.87,348.91a.8.8,0,1,1-1.57.3.8.8,0,1,1,1.57-.3Z" style="fill:#fff;opacity:0.30000000000000004"></path><path d="M139.38,336.34a5.3,5.3,0,0,1,.43,6.47,5.68,5.68,0,0,1-6.05,2.55,5.31,5.31,0,1,0,5.62-9Z" style="fill:#fff;opacity:0.6000000000000001"></path><g style="opacity:0.30000000000000004"><path d="M136.8,335.88a5,5,0,1,1-.46,9.94,4.86,4.86,0,0,1-2.4-.74,5,5,0,0,1,2.86-9.2m0-.34a5.32,5.32,0,1,0,2.57.8,5.29,5.29,0,0,0-2.57-.8Z" style="fill:#fff"></path></g><path d="M135.48,337.05c-2.1.77-3.49,2.74-3,4.45.08.28.51.66.81.4s.68-.91,1.17-1.28a4,4,0,0,1,1.42-.71c1.14-.22,1.84-.19,2.33-1.15C138.85,337.52,137.67,336.24,135.48,337.05Z" style="fill:#fff;opacity:0.5"></path><path d="M137.8,338a.8.8,0,0,1-1.59.23.8.8,0,1,1,1.59-.23Z" style="fill:#fff;opacity:0.30000000000000004"></path><path d="M114.05,332.83a2.28,2.28,0,0,1,.31,2.79,2.48,2.48,0,0,1-2.57,1.23,2.31,2.31,0,0,0,2.26-4Z" style="fill:#fff;opacity:0.6000000000000001"></path><g style="opacity:0.30000000000000004"><path d="M112.92,332.68A2.1,2.1,0,0,1,114,333a2.15,2.15,0,1,1-1.06-.28m0-.15a2.31,2.31,0,1,0,2,3.44,2.31,2.31,0,0,0-.88-3.14,2.33,2.33,0,0,0-1.13-.3Z" style="fill:#fff"></path></g><path d="M112.37,333.21a1.77,1.77,0,0,0-1.21,2c0,.12.24.27.36.16s.28-.41.49-.58a1.7,1.7,0,0,1,.6-.34c.48-.11.79-.11,1-.54S113.3,332.82,112.37,333.21Z" style="fill:#fff;opacity:0.5"></path><path d="M113.4,333.56a.36.36,0,0,1-.28.41.35.35,0,0,1-.41-.28.35.35,0,0,1,.69-.13Z" style="fill:#fff;opacity:0.30000000000000004"></path><path d="M133.44,324.92a2,2,0,0,1,.16,2.41,2.12,2.12,0,0,1-2.26.95,2,2,0,1,0,2.1-3.36Z" style="fill:#fff;opacity:0.6000000000000001"></path><g style="opacity:0.30000000000000004"><path d="M132.47,324.75a1.8,1.8,0,0,1,.9.28,1.82,1.82,0,0,1,.82,1.15,1.84,1.84,0,0,1-.23,1.41,1.87,1.87,0,0,1-1.66.87,1.9,1.9,0,0,1-.89-.28,1.85,1.85,0,0,1,1.06-3.43m0-.13a2,2,0,0,0-1.14,3.66,1.9,1.9,0,0,0,1,.3,2,2,0,0,0,1.14-3.66,2.12,2.12,0,0,0-1-.3Z" style="fill:#fff"></path></g><path d="M132,325.19a1.5,1.5,0,0,0-1.11,1.66c0,.1.19.24.3.14s.25-.33.43-.47a1.57,1.57,0,0,1,.53-.27c.43-.08.69-.07.87-.43S132.8,324.89,132,325.19Z" style="fill:#fff;opacity:0.5"></path><path d="M132.85,325.53a.3.3,0,1,1-.34-.26A.31.31,0,0,1,132.85,325.53Z" style="fill:#fff;opacity:0.30000000000000004"></path><path d="M64.69,333.24a4.61,4.61,0,0,1,.63,5.58,4.94,4.94,0,0,1-5.14,2.45,4.6,4.6,0,0,0,4.51-8Z" style="fill:#fff;opacity:0.6000000000000001"></path><g style="opacity:0.30000000000000004"><path d="M62.44,332.94a4.32,4.32,0,0,1,4.14,3.15,4.23,4.23,0,0,1-.39,3.28,4.33,4.33,0,0,1-3.76,2.2,4.22,4.22,0,0,1-2.11-.56,4.31,4.31,0,0,1,2.12-8.07m0-.29a4.61,4.61,0,1,0,2.25.59,4.59,4.59,0,0,0-2.25-.59Z" style="fill:#fff"></path></g><path d="M61.34,334c-1.79.74-2.91,2.5-2.41,4,.08.24.47.54.72.31s.55-.81,1-1.15a3.39,3.39,0,0,1,1.2-.67c1-.24,1.58-.24,2-1.09C64.28,334.28,63.2,333.22,61.34,334Z" style="fill:#fff;opacity:0.5"></path><path d="M63.39,334.71a.7.7,0,1,1-.82-.55A.7.7,0,0,1,63.39,334.71Z" style="fill:#fff;opacity:0.30000000000000004"></path><path d="M156.43,316.36a3.8,3.8,0,0,1-1.26,4.46,4.08,4.08,0,0,1-4.69.28,3.8,3.8,0,1,0,6-4.74Z" style="fill:#fff;opacity:0.6000000000000001"></path><g style="opacity:0.30000000000000004"><path d="M153.45,315.17a3.56,3.56,0,1,1-2.78,5.77,3.56,3.56,0,0,1,.57-5,3.54,3.54,0,0,1,2.21-.77m0-.24a3.8,3.8,0,1,0,3,1.43,3.81,3.81,0,0,0-3-1.43Z" style="fill:#fff"></path></g><path d="M153.63,315.9c-1.6,0-3,1-3.08,2.29,0,.21.19.56.45.46s.67-.44,1.09-.58a2.72,2.72,0,0,1,1.13-.13c.82.12,1.28.31,1.85-.23C155.79,317,155.3,315.89,153.63,315.9Z" style="fill:#fff;opacity:0.5"></path><path d="M155,317.08a.58.58,0,0,1-1.13-.23.58.58,0,0,1,1.13.23Z" style="fill:#fff;opacity:0.30000000000000004"></path><path d="M66.35,321a1.38,1.38,0,0,1,.18,1.68,1.48,1.48,0,0,1-1.54.74,1.39,1.39,0,0,0,1.89-.53A1.4,1.4,0,0,0,66.35,321Z" style="fill:#fff;opacity:0.6000000000000001"></path><g style="opacity:0.30000000000000004"><path d="M65.67,321a1.27,1.27,0,0,1,.63.17,1.3,1.3,0,0,1-.64,2.43,1.3,1.3,0,0,1-1.24-.95,1.24,1.24,0,0,1,.11-1,1.32,1.32,0,0,1,1.14-.67m0-.09a1.39,1.39,0,0,0-.68,2.6,1.35,1.35,0,0,0,.67.18,1.39,1.39,0,1,0,0-2.78Z" style="fill:#fff"></path></g><path d="M65.34,321.27a1.07,1.07,0,0,0-.73,1.2c0,.07.14.16.22.09s.16-.24.29-.34a.86.86,0,0,1,.36-.2c.29-.08.47-.08.59-.33S65.9,321,65.34,321.27Z" style="fill:#fff;opacity:0.5"></path><path d="M66,321.48a.2.2,0,0,1-.16.25.21.21,0,0,1-.25-.17.21.21,0,0,1,.17-.24A.21.21,0,0,1,66,321.48Z" style="fill:#fff;opacity:0.30000000000000004"></path><path d="M86.4,332.42a1.38,1.38,0,0,1,.18,1.68,1.49,1.49,0,0,1-1.55.74,1.39,1.39,0,0,0,1.37-2.42Z" style="fill:#fff;opacity:0.6000000000000001"></path><g style="opacity:0.30000000000000004"><path d="M85.72,332.33a1.27,1.27,0,0,1,.63.17,1.29,1.29,0,0,1,.5,1.76,1.32,1.32,0,0,1-1.14.67,1.27,1.27,0,0,1-.63-.17,1.34,1.34,0,0,1-.62-.78,1.3,1.3,0,0,1,1.26-1.65m0-.09a1.36,1.36,0,0,0-1.21.71,1.37,1.37,0,0,0,1.2,2.06,1.39,1.39,0,0,0,.69-2.59,1.41,1.41,0,0,0-.68-.18Z" style="fill:#fff"></path></g><path d="M85.38,332.65a1.06,1.06,0,0,0-.72,1.2c0,.07.14.16.22.09s.16-.24.28-.35a1.11,1.11,0,0,1,.37-.2c.29-.07.47-.07.59-.33S86,332.41,85.38,332.65Z" style="fill:#fff;opacity:0.5"></path><path d="M86,332.86a.21.21,0,0,1-.41.08.21.21,0,0,1,.17-.25A.21.21,0,0,1,86,332.86Z" style="fill:#fff;opacity:0.30000000000000004"></path><path d="M163.2,305a1.38,1.38,0,0,1,.19,1.68,1.48,1.48,0,0,1-1.55.74A1.39,1.39,0,0,0,163.2,305Z" style="fill:#fff;opacity:0.6000000000000001"></path><g style="opacity:0.30000000000000004"><path d="M162.52,305a1.33,1.33,0,0,1,.64.17,1.31,1.31,0,0,1,.49,1.77,1.29,1.29,0,0,1-1.13.66,1.37,1.37,0,0,1-.63-.16,1.3,1.3,0,0,1,.63-2.44m0-.08a1.38,1.38,0,0,0-.68,2.59,1.41,1.41,0,0,0,.68.18,1.36,1.36,0,0,0,1.21-.71,1.38,1.38,0,0,0-1.21-2.06Z" style="fill:#fff"></path></g><path d="M162.19,305.27a1,1,0,0,0-.72,1.2c0,.07.14.17.21.09s.17-.24.29-.34a1.17,1.17,0,0,1,.36-.2c.3-.07.48-.07.6-.33S162.75,305,162.19,305.27Z" style="fill:#fff;opacity:0.5"></path><path d="M162.81,305.49a.21.21,0,1,1-.25-.17A.21.21,0,0,1,162.81,305.49Z" style="fill:#fff;opacity:0.30000000000000004"></path></g></g></g><g id="freepik--test-tubes--inject-16"><g id="freepik--test-tubes--inject-16"><path d="M161.09,309.65h0l1.8-1v3.06a5.28,5.28,0,0,1-1,3.07,6.39,6.39,0,0,1-.76.92v13.19a10.42,10.42,0,0,0-2.32-1.78c-5.49-3.17-14.41-3.17-19.9,0a10.57,10.57,0,0,0-2.48,1.93v-5.1Z" style="fill:#fafafa"></path><path d="M190.62,311.93c-5.49-3.17-14.41-3.17-19.91,0a8.08,8.08,0,0,0-3.83,4.13c-.91-2.59.36-5.37,3.83-7.37,5.5-3.18,14.42-3.18,19.91,0,3.47,2,4.75,4.79,3.84,7.37A8.06,8.06,0,0,0,190.62,311.93Z" style="fill:#263238"></path><path d="M222.47,293.54c-5.49-3.17-14.41-3.17-19.91,0a8.08,8.08,0,0,0-3.83,4.13c-.91-2.59.36-5.37,3.83-7.37,5.5-3.18,14.42-3.18,19.91,0,3.47,2,4.75,4.79,3.84,7.37A8.1,8.1,0,0,0,222.47,293.54Z" style="fill:#263238"></path><path d="M254.32,275.16c-5.49-3.18-14.41-3.18-19.91,0a8,8,0,0,0-3.83,4.12c-.91-2.58.36-5.37,3.83-7.37,5.5-3.17,14.42-3.17,19.91,0,3.47,2,4.75,4.8,3.84,7.37A8,8,0,0,0,254.32,275.16Z" style="fill:#263238"></path><path d="M158.76,330.32c-5.49-3.18-14.41-3.18-19.91,0a8.07,8.07,0,0,0-3.83,4.12c-.91-2.59.37-5.37,3.83-7.37,5.5-3.17,14.42-3.17,19.91,0,3.47,2,4.75,4.79,3.84,7.37A8,8,0,0,0,158.76,330.32Z" style="fill:#263238"></path><path d="M254.32,271.91c-5.5-3.18-14.41-3.18-19.9,0a10.55,10.55,0,0,0-2.36,1.81v-5.05l18.28-10.55,6.42,3.7v12A10.16,10.16,0,0,0,254.32,271.91Z" style="fill:#fafafa"></path><path d="M224.6,273h0l0,0,.24-.14h0l1.79-1v3a5.36,5.36,0,0,1-1,3.07,7,7,0,0,1-.76.9v13.34a10.48,10.48,0,0,0-2.4-1.85c-5.5-3.18-14.41-3.18-19.9,0a10.2,10.2,0,0,0-2.4,1.85v-5.07Z" style="fill:#fafafa"></path><path d="M192.59,291.46h0l2.18-1.27v3.07a5.25,5.25,0,0,1-1,3.07,7,7,0,0,1-.75.91h0V310.5a10.35,10.35,0,0,0-2.36-1.82c-5.49-3.17-14.41-3.17-19.9,0a10.91,10.91,0,0,0-2.44,1.89v-5.08Z" style="fill:#fafafa"></path><path d="M257,281.26a.5.5,0,0,0-.07.08A.5.5,0,0,1,257,281.26Z" style="fill:#e0e0e0"></path><path d="M256.91,281.34a7.57,7.57,0,0,1-.63.64A7.57,7.57,0,0,0,256.91,281.34Z" style="fill:#e0e0e0"></path><path d="M190.62,385.47c-5.49-3.18-14.41-3.18-19.91,0a8.08,8.08,0,0,0-3.83,4.13c-.91-2.59.36-5.37,3.83-7.37,5.5-3.18,14.42-3.18,19.91,0,3.47,2,4.75,4.79,3.84,7.37A8.06,8.06,0,0,0,190.62,385.47Z" style="fill:#263238"></path><path d="M222.47,367.08c-5.49-3.17-14.41-3.17-19.91,0a8.08,8.08,0,0,0-3.83,4.13c-.91-2.59.36-5.37,3.83-7.37,5.5-3.18,14.42-3.18,19.91,0,3.47,2,4.75,4.79,3.84,7.37A8.1,8.1,0,0,0,222.47,367.08Z" style="fill:#263238"></path><path d="M254.32,348.7c-5.49-3.18-14.41-3.18-19.91,0a8,8,0,0,0-3.83,4.12c-.91-2.58.36-5.37,3.83-7.37,5.5-3.17,14.42-3.17,19.91,0,3.47,2,4.75,4.79,3.84,7.37A8,8,0,0,0,254.32,348.7Z" style="fill:#263238"></path><path d="M158.76,403.85c-5.49-3.17-14.41-3.17-19.91,0A8.12,8.12,0,0,0,135,408c-.91-2.59.37-5.37,3.83-7.37,5.5-3.17,14.42-3.17,19.91,0,3.47,2,4.75,4.79,3.84,7.37A8.06,8.06,0,0,0,158.76,403.85Z" style="fill:#263238"></path><path d="M254.32,345.45c-5.5-3.18-14.41-3.18-19.9,0a10.55,10.55,0,0,0-2.36,1.81v-5.05l18.28-10.56,6.42,3.71v12A10.16,10.16,0,0,0,254.32,345.45Z" style="fill:#fafafa"></path><path d="M222.47,363.83c-5.5-3.17-14.41-3.17-19.9,0a10.76,10.76,0,0,0-2.4,1.85v-5.06l24.7-14.26v19.33A10.5,10.5,0,0,0,222.47,363.83Z" style="fill:#fafafa"></path><path d="M190.62,382.22c-5.49-3.17-14.41-3.17-19.9,0a10.63,10.63,0,0,0-2.44,1.89V379L193,364.77V384A10.35,10.35,0,0,0,190.62,382.22Z" style="fill:#fafafa"></path><path d="M158.77,400.61c-5.49-3.17-14.41-3.17-19.9,0a10.57,10.57,0,0,0-2.48,1.93v-5.1l24.7-14.26v19.21A10.42,10.42,0,0,0,158.77,400.61Z" style="fill:#fafafa"></path><g id="freepik--test-tube--inject-16"><path d="M232,257.81c0-1.83,1.21-3.65,3.62-5,4.82-2.79,12.64-2.79,17.46,0,2.41,1.39,3.62,3.21,3.62,5V368h0a12.35,12.35,0,0,1-24.7,0h0Z" style="fill:#F9A8D4"></path><path d="M232,257.81c0-1.83,1.21-3.65,3.62-5,4.82-2.79,12.64-2.79,17.46,0,2.41,1.39,3.62,3.21,3.62,5V368h0a12.35,12.35,0,0,1-24.7,0h0Z" style="fill:#fff;opacity:0.7000000000000001"></path><path d="M235.74,278.55c0-1.28.85-2.56,2.54-3.53a13.52,13.52,0,0,1,12.23,0c1.68,1,2.53,2.25,2.53,3.53v89h0a8.65,8.65,0,0,1-17.3,0h0Z" style="fill:#F9A8D4"></path><g style="opacity:0.1"><path d="M244.39,376.24a8.63,8.63,0,0,1-8.62-8.21,6,6,0,0,0,11.82-1.66h0V273.91a10.73,10.73,0,0,1,2.92,1.11c1.68,1,2.53,2.25,2.53,3.53v89h0A8.65,8.65,0,0,1,244.39,376.24Z"></path></g><path d="M235.74,278.55c0,2.75,3.87,5,8.65,5s8.65-2.24,8.65-5-3.87-5-8.65-5S235.74,275.79,235.74,278.55Z" style="fill:#F9A8D4"></path><g style="opacity:0.30000000000000004"><path d="M235.74,278.55c0,2.75,3.87,5,8.65,5s8.65-2.24,8.65-5-3.87-5-8.65-5S235.74,275.79,235.74,278.55Z" style="fill:#fff"></path></g><g style="opacity:0.5"><path d="M235.74,278.55c0-1.37,1-2.62,2.53-3.52-.23.21-3.72,4.25,1.76,6.52,5.89,2.44,11.24,0,12.69-1.69-1,2.12-4.34,3.68-8.33,3.68C239.61,283.54,235.74,281.3,235.74,278.55Z" style="fill:#fff"></path></g><path d="M236.79,371.43c0,1.22-.73,1.81-1.59,1.25a4.36,4.36,0,0,1-1.5-3.31V254.26a9.16,9.16,0,0,1,2-1.49,10.86,10.86,0,0,1,1.13-.57Z" style="fill:#fff;opacity:0.4"></path><path d="M239.17,374.48l-.07,0a1.24,1.24,0,0,1-.85-1.14V251.63c.57-.19,1.17-.35,1.78-.49V373.81A.66.66,0,0,1,239.17,374.48Z" style="fill:#fff;opacity:0.4"></path><path d="M235.13,264.69a8.45,8.45,0,0,1-3.09-2.85v-4a4.35,4.35,0,0,1,.22-1.32,8.84,8.84,0,0,1,2.87-2.49c4.76-2.75,12.27-2.94,17.41-.57v-1l.13.07.45.24a8.6,8.6,0,0,1,2.47,2,5.19,5.19,0,0,1,.92,1.64,4.27,4.27,0,0,1,.23,1.36v4.82h0v14.3h0v91.13A12.34,12.34,0,0,1,233.09,373c2.17,4.23,8,6,13,4.65h.06a7,7,0,0,0,5-6.75V265.79C246.15,267.57,239.49,267.21,235.13,264.69Z" style="fill:#F9A8D4;opacity:0.2"></path><path d="M245.65,380.31h0c7.69-1.44,9-7.68,9-11.4V253.85l.16.14a6.36,6.36,0,0,1,1.38,1.73l.06.1c.06.12.11.25.16.37a1.12,1.12,0,0,1,0,.13,4.46,4.46,0,0,1,.24.92s0,.07,0,.11a3.44,3.44,0,0,1,0,.46v4.82h0v14.29h0V368h0A12.35,12.35,0,0,1,245.65,380.31Z" style="fill:#F9A8D4;opacity:0.30000000000000004"></path><path d="M230.25,250.32c0-2.09,1.38-4.18,4.14-5.77,5.53-3.19,14.48-3.19,20,0,2.76,1.59,4.14,3.68,4.14,5.77h0v6.1h0c0,2.09-1.38,4.18-4.14,5.77-5.52,3.19-14.47,3.19-20,0-2.76-1.59-4.14-3.68-4.14-5.77h0v-6.1Z" style="fill:#F9A8D4"></path><path d="M230.25,250.32c0-2.09,1.38-4.18,4.14-5.77,5.53-3.19,14.48-3.19,20,0,2.76,1.59,4.14,3.68,4.14,5.77h0v6.1h0c0,2.09-1.38,4.18-4.14,5.77-5.52,3.19-14.47,3.19-20,0-2.76-1.59-4.14-3.68-4.14-5.77h0v-6.1Z" style="fill:#fff;opacity:0.5"></path><path d="M233.47,261.61c4.15,1.9,11.88,2.86,16,1.13,4.37-1.84,6.53-3.71,6.53-7.91v-9.16a6.13,6.13,0,0,1,2.53,4.65h0v6.1h0c0,2.09-1.38,4.18-4.14,5.77-5.52,3.19-14.47,3.19-20,0C234.07,262,233.76,261.81,233.47,261.61Z" style="fill:#F9A8D4;opacity:0.30000000000000004"></path><path d="M254.39,256.09c-5.52,3.19-14.47,3.19-20,0s-5.52-8.36,0-11.54,14.48-3.19,20,0S259.91,252.9,254.39,256.09Z" style="fill:#F9A8D4"></path><path d="M254.39,256.09c-5.52,3.19-14.47,3.19-20,0s-5.52-8.36,0-11.54,14.48-3.19,20,0S259.91,252.9,254.39,256.09Z" style="fill:#fff;opacity:0.7000000000000001"></path><path d="M250.57,245.56c4.46,1.17,5.92,4.55,4,7.17s-5.64,4.77-12.28,3.89-8-4.44-8-5.29Z" style="fill:#fff;opacity:0.7000000000000001"></path><path d="M251.67,254.52a16,16,0,0,1-14.56,0c-4-2.32-4-6.09,0-8.41a16.1,16.1,0,0,1,14.56,0C255.7,248.43,255.7,252.2,251.67,254.52Z" style="fill:#F9A8D4"></path><path d="M251.67,254.52a16,16,0,0,1-14.56,0c-4-2.32-4-6.09,0-8.41a16.1,16.1,0,0,1,14.56,0C255.7,248.43,255.7,252.2,251.67,254.52Z" style="fill:#fff;opacity:0.4"></path><path d="M251.67,253.39a9.16,9.16,0,0,1,.86.57c-.27.19-.55.38-.86.56a16,16,0,0,1-14.56,0,9.63,9.63,0,0,1-.85-.56,7.86,7.86,0,0,1,.85-.57A16.1,16.1,0,0,1,251.67,253.39Z" style="fill:#fff;opacity:0.4"></path></g><g id="freepik--test-tube--inject-16"><path d="M200.16,276.22c0-1.82,1.21-3.64,3.62-5,4.82-2.78,12.64-2.78,17.46,0,2.41,1.4,3.62,3.22,3.62,5V386.44h0a12.35,12.35,0,0,1-24.7,0h0Z" style="fill:#F9A8D4"></path><path d="M200.16,276.22c0-1.82,1.21-3.64,3.62-5,4.82-2.78,12.64-2.78,17.46,0,2.41,1.4,3.62,3.22,3.62,5V386.44h0a12.35,12.35,0,0,1-24.7,0h0Z" style="fill:#fff;opacity:0.7000000000000001"></path><path d="M203.86,297c0-1.27.85-2.55,2.54-3.53a13.52,13.52,0,0,1,12.23,0c1.68,1,2.53,2.26,2.53,3.53v89h0a8.65,8.65,0,0,1-17.3,0h0Z" style="fill:#F9A8D4"></path><g style="opacity:0.1"><path d="M212.51,394.65a8.63,8.63,0,0,1-8.62-8.21,6,6,0,0,0,11.82-1.65h0V292.33a10.71,10.71,0,0,1,2.92,1.1c1.68,1,2.53,2.26,2.53,3.53v89h0A8.65,8.65,0,0,1,212.51,394.65Z"></path></g><path d="M203.86,297c0,2.76,3.87,5,8.65,5s8.65-2.23,8.65-5-3.87-5-8.65-5S203.86,294.21,203.86,297Z" style="fill:#F9A8D4"></path><g style="opacity:0.30000000000000004"><path d="M203.86,297c0,2.76,3.87,5,8.65,5s8.65-2.23,8.65-5-3.87-5-8.65-5S203.86,294.21,203.86,297Z" style="fill:#fff"></path></g><g style="opacity:0.5"><path d="M203.86,297c0-1.37,1-2.61,2.53-3.52-.22.22-3.72,4.26,1.76,6.53,5.88,2.43,11.25,0,12.69-1.69-1,2.12-4.34,3.67-8.33,3.67C207.73,302,203.86,299.72,203.86,297Z" style="fill:#fff"></path></g><path d="M204.91,389.84c0,1.23-.73,1.82-1.59,1.26a4.38,4.38,0,0,1-1.5-3.32V272.67a9.5,9.5,0,0,1,2-1.49c.36-.2.74-.39,1.13-.57Z" style="fill:#fff;opacity:0.4"></path><path d="M207.29,392.9l-.07,0a1.24,1.24,0,0,1-.85-1.14V270.05a16.61,16.61,0,0,1,1.78-.49V392.22A.66.66,0,0,1,207.29,392.9Z" style="fill:#fff;opacity:0.4"></path><path d="M203.25,283.11a8.45,8.45,0,0,1-3.09-2.85v-4a4.24,4.24,0,0,1,.22-1.31,8.86,8.86,0,0,1,2.87-2.5c4.76-2.75,12.27-2.93,17.41-.57v-1l.13.07.45.23a8.6,8.6,0,0,1,2.47,2,5.3,5.3,0,0,1,.92,1.64,4.31,4.31,0,0,1,.23,1.36v4.83h0v14.29h0v91.13a12.35,12.35,0,0,1-23.65,5c2.17,4.22,8,6,13,4.65l.06,0a7,7,0,0,0,5-6.75V284.21C214.27,286,207.61,285.62,203.25,283.11Z" style="fill:#F9A8D4;opacity:0.2"></path><path d="M213.77,398.73h0c7.69-1.44,9-7.69,9-11.4V272.27a1.07,1.07,0,0,1,.16.14,6.45,6.45,0,0,1,1.39,1.73l.05.1c.06.12.11.24.16.37a.5.5,0,0,1,.05.13,4.37,4.37,0,0,1,.24.91s0,.08,0,.11a3.67,3.67,0,0,1,0,.46v4.83h0v14.29h0v91.1h0A12.36,12.36,0,0,1,213.77,398.73Z" style="fill:#F9A8D4;opacity:0.30000000000000004"></path><path d="M198.37,268.73c0-2.09,1.38-4.17,4.14-5.77,5.53-3.19,14.48-3.19,20,0,2.76,1.6,4.14,3.68,4.14,5.77h0v6.11h0c0,2.09-1.38,4.18-4.14,5.77-5.52,3.19-14.47,3.19-20,0-2.76-1.59-4.14-3.68-4.14-5.77h0v-6.11Z" style="fill:#F9A8D4"></path><path d="M198.37,268.73c0-2.09,1.38-4.17,4.14-5.77,5.53-3.19,14.48-3.19,20,0,2.76,1.6,4.14,3.68,4.14,5.77h0v6.11h0c0,2.09-1.38,4.18-4.14,5.77-5.52,3.19-14.47,3.19-20,0-2.76-1.59-4.14-3.68-4.14-5.77h0v-6.11Z" style="fill:#fff;opacity:0.5"></path><path d="M201.59,280c4.15,1.9,11.88,2.87,16,1.13,4.37-1.84,6.53-3.7,6.53-7.91v-9.15a6.12,6.12,0,0,1,2.53,4.64h0v6.11h0c0,2.09-1.38,4.18-4.14,5.77-5.52,3.19-14.47,3.19-20,0C202.19,280.42,201.88,280.22,201.59,280Z" style="fill:#F9A8D4;opacity:0.30000000000000004"></path><path d="M222.51,274.5c-5.52,3.19-14.47,3.19-20,0s-5.52-8.36,0-11.55,14.48-3.19,20,0S228,271.32,222.51,274.5Z" style="fill:#F9A8D4"></path><path d="M222.51,274.5c-5.52,3.19-14.47,3.19-20,0s-5.52-8.36,0-11.55,14.48-3.19,20,0S228,271.32,222.51,274.5Z" style="fill:#fff;opacity:0.7000000000000001"></path><path d="M218.69,264c4.46,1.17,5.92,4.54,4,7.17S217,275.91,210.38,275s-8-4.44-8-5.29Z" style="fill:#fff;opacity:0.7000000000000001"></path><path d="M219.79,272.94a16.1,16.1,0,0,1-14.56,0c-4-2.32-4-6.09,0-8.41a16.1,16.1,0,0,1,14.56,0C223.82,266.85,223.82,270.62,219.79,272.94Z" style="fill:#F9A8D4"></path><path d="M219.79,272.94a16.1,16.1,0,0,1-14.56,0c-4-2.32-4-6.09,0-8.41a16.1,16.1,0,0,1,14.56,0C223.82,266.85,223.82,270.62,219.79,272.94Z" style="fill:#fff;opacity:0.4"></path><path d="M219.79,271.81c.31.18.59.37.86.56a9.16,9.16,0,0,1-.86.57,16.1,16.1,0,0,1-14.56,0,7.86,7.86,0,0,1-.85-.57,9.63,9.63,0,0,1,.85-.56A16,16,0,0,1,219.79,271.81Z" style="fill:#fff;opacity:0.4"></path></g><g id="freepik--test-tube--inject-16"><path d="M168.28,294.64c0-1.82,1.21-3.65,3.62-5,4.82-2.78,12.64-2.78,17.46,0,2.41,1.39,3.62,3.22,3.62,5V404.86h0a12.35,12.35,0,0,1-24.7,0h0Z" style="fill:#F9A8D4"></path><path d="M168.28,294.64c0-1.82,1.21-3.65,3.62-5,4.82-2.78,12.64-2.78,17.46,0,2.41,1.39,3.62,3.22,3.62,5V404.86h0a12.35,12.35,0,0,1-24.7,0h0Z" style="fill:#fff;opacity:0.7000000000000001"></path><path d="M172,315.38c0-1.28.85-2.56,2.54-3.53a13.52,13.52,0,0,1,12.23,0c1.68,1,2.53,2.25,2.53,3.53v89h0a8.65,8.65,0,0,1-17.3,0h0Z" style="fill:#F9A8D4"></path><g style="opacity:0.1"><path d="M180.63,413.07a8.64,8.64,0,0,1-8.62-8.21,6,6,0,0,0,11.82-1.66h0V310.74a10.73,10.73,0,0,1,2.92,1.11c1.68,1,2.53,2.25,2.53,3.53v89h0A8.65,8.65,0,0,1,180.63,413.07Z"></path></g><path d="M172,315.38c0,2.75,3.87,5,8.65,5s8.65-2.24,8.65-5-3.87-5-8.65-5S172,312.63,172,315.38Z" style="fill:#F9A8D4"></path><g style="opacity:0.30000000000000004"><path d="M172,315.38c0,2.75,3.87,5,8.65,5s8.65-2.24,8.65-5-3.87-5-8.65-5S172,312.63,172,315.38Z" style="fill:#fff"></path></g><g style="opacity:0.5"><path d="M172,315.38c0-1.37,1-2.62,2.53-3.52-.22.21-3.72,4.25,1.76,6.52,5.88,2.44,11.25,0,12.69-1.68-1,2.11-4.34,3.67-8.33,3.67C175.85,320.37,172,318.13,172,315.38Z" style="fill:#fff"></path></g><path d="M173,408.26c0,1.22-.73,1.81-1.59,1.25a4.36,4.36,0,0,1-1.5-3.31V291.09a9.16,9.16,0,0,1,2-1.49A10.86,10.86,0,0,1,173,289Z" style="fill:#fff;opacity:0.4"></path><path d="M175.41,411.31h-.07a1.27,1.27,0,0,1-.85-1.15V288.46a16.59,16.59,0,0,1,1.78-.48V410.64A.66.66,0,0,1,175.41,411.31Z" style="fill:#fff;opacity:0.4"></path><path d="M171.37,301.52a8.45,8.45,0,0,1-3.09-2.85v-4a4.35,4.35,0,0,1,.22-1.32,9,9,0,0,1,2.87-2.49c4.76-2.75,12.27-2.94,17.41-.57v-1l.13.08a4.73,4.73,0,0,1,.45.23,8.6,8.6,0,0,1,2.47,2,5.3,5.3,0,0,1,.92,1.64,4.27,4.27,0,0,1,.23,1.36v4.83h0v14.29h0v91.13a12.34,12.34,0,0,1-23.65,4.95c2.17,4.23,8,6.05,13,4.66l.06,0a7,7,0,0,0,5-6.75V302.63C182.39,304.4,175.73,304,171.37,301.52Z" style="fill:#F9A8D4;opacity:0.2"></path><path d="M181.89,417.14h0c7.69-1.44,9-7.68,9-11.4V290.68l.16.15a6.42,6.42,0,0,1,1.39,1.72.31.31,0,0,0,.05.1l.16.37a1.12,1.12,0,0,1,0,.13,4.46,4.46,0,0,1,.24.92s0,.07,0,.11a3.44,3.44,0,0,1,0,.46v4.83h0v14.29h0v91.1h0A12.34,12.34,0,0,1,181.89,417.14Z" style="fill:#F9A8D4;opacity:0.30000000000000004"></path><path d="M166.49,287.15c0-2.09,1.38-4.18,4.14-5.77,5.53-3.19,14.48-3.19,20,0,2.76,1.59,4.14,3.68,4.14,5.77h0v6.1h0c0,2.09-1.38,4.18-4.14,5.78-5.52,3.18-14.47,3.18-20,0-2.76-1.6-4.14-3.69-4.14-5.78h0v-6.1Z" style="fill:#F9A8D4"></path><path d="M166.49,287.15c0-2.09,1.38-4.18,4.14-5.77,5.53-3.19,14.48-3.19,20,0,2.76,1.59,4.14,3.68,4.14,5.77h0v6.1h0c0,2.09-1.38,4.18-4.14,5.78-5.52,3.18-14.47,3.18-20,0-2.76-1.6-4.14-3.69-4.14-5.78h0v-6.1Z" style="fill:#fff;opacity:0.5"></path><path d="M169.71,298.44c4.15,1.9,11.88,2.86,16,1.13,4.37-1.84,6.53-3.71,6.53-7.91V282.5a6.15,6.15,0,0,1,2.53,4.65h0v6.1h0c0,2.09-1.38,4.18-4.14,5.78-5.52,3.18-14.47,3.18-20,0C170.31,298.84,170,298.64,169.71,298.44Z" style="fill:#F9A8D4;opacity:0.30000000000000004"></path><path d="M190.63,292.92c-5.52,3.19-14.47,3.19-20,0s-5.52-8.36,0-11.54,14.48-3.19,20,0S196.15,289.73,190.63,292.92Z" style="fill:#F9A8D4"></path><path d="M190.63,292.92c-5.52,3.19-14.47,3.19-20,0s-5.52-8.36,0-11.54,14.48-3.19,20,0S196.15,289.73,190.63,292.92Z" style="fill:#fff;opacity:0.7000000000000001"></path><path d="M186.81,282.39c4.46,1.17,5.92,4.55,4,7.18s-5.64,4.76-12.28,3.88-8-4.43-8-5.29Z" style="fill:#fff;opacity:0.7000000000000001"></path><path d="M187.91,291.35a16,16,0,0,1-14.56,0c-4-2.32-4-6.08,0-8.41a16.1,16.1,0,0,1,14.56,0C191.94,285.27,191.94,289,187.91,291.35Z" style="fill:#F9A8D4"></path><path d="M187.91,291.35a16,16,0,0,1-14.56,0c-4-2.32-4-6.08,0-8.41a16.1,16.1,0,0,1,14.56,0C191.94,285.27,191.94,289,187.91,291.35Z" style="fill:#fff;opacity:0.4"></path><path d="M187.91,290.22a8,8,0,0,1,.86.57,9.84,9.84,0,0,1-.86.56,16,16,0,0,1-14.56,0,9.63,9.63,0,0,1-.85-.56,7.86,7.86,0,0,1,.85-.57A16.1,16.1,0,0,1,187.91,290.22Z" style="fill:#fff;opacity:0.4"></path></g><g id="freepik--test-tube--inject-16"><path d="M136.4,313.06c0-1.83,1.21-3.65,3.62-5.05,4.82-2.78,12.64-2.78,17.46,0,2.41,1.4,3.62,3.22,3.62,5.05V423.27h0a12.35,12.35,0,0,1-24.7,0h0Z" style="fill:#F9A8D4"></path><path d="M136.4,313.06c0-1.83,1.21-3.65,3.62-5.05,4.82-2.78,12.64-2.78,17.46,0,2.41,1.4,3.62,3.22,3.62,5.05V423.27h0a12.35,12.35,0,0,1-24.7,0h0Z" style="fill:#fff;opacity:0.7000000000000001"></path><path d="M140.1,333.8c0-1.28.85-2.56,2.54-3.54a13.58,13.58,0,0,1,12.23,0c1.68,1,2.53,2.26,2.53,3.54v89h0a8.65,8.65,0,0,1-17.3,0h0Z" style="fill:#F9A8D4"></path><g style="opacity:0.1"><path d="M148.75,431.48a8.64,8.64,0,0,1-8.62-8.21A6,6,0,0,0,152,421.62h0V329.16a10.71,10.71,0,0,1,2.92,1.1c1.68,1,2.53,2.26,2.53,3.54v89h0A8.64,8.64,0,0,1,148.75,431.48Z"></path></g><path d="M140.1,333.8c0,2.75,3.88,5,8.65,5s8.65-2.23,8.65-5-3.87-5-8.65-5S140.1,331,140.1,333.8Z" style="fill:#F9A8D4"></path><g style="opacity:0.30000000000000004"><path d="M140.1,333.8c0,2.75,3.88,5,8.65,5s8.65-2.23,8.65-5-3.87-5-8.65-5S140.1,331,140.1,333.8Z" style="fill:#fff"></path></g><g style="opacity:0.5"><path d="M140.1,333.8c0-1.38,1-2.62,2.53-3.52-.22.21-3.72,4.25,1.76,6.52,5.89,2.43,11.25,0,12.69-1.69-1,2.12-4.34,3.67-8.33,3.67C144,338.78,140.1,336.55,140.1,333.8Z" style="fill:#fff"></path></g><path d="M141.15,426.67c0,1.23-.73,1.82-1.59,1.26a4.38,4.38,0,0,1-1.5-3.32V309.5a9.5,9.5,0,0,1,2-1.49c.36-.2.74-.39,1.13-.57Z" style="fill:#fff;opacity:0.4"></path><path d="M143.53,429.73l-.07,0a1.25,1.25,0,0,1-.85-1.14V306.88a16.61,16.61,0,0,1,1.78-.49V429.05A.66.66,0,0,1,143.53,429.73Z" style="fill:#fff;opacity:0.4"></path><path d="M139.49,319.94a8.45,8.45,0,0,1-3.09-2.85v-4a4.25,4.25,0,0,1,.22-1.32,8.86,8.86,0,0,1,2.87-2.5c4.76-2.74,12.27-2.93,17.41-.57v-1l.13.07.45.23a8.77,8.77,0,0,1,2.47,2,5.3,5.3,0,0,1,.92,1.64,4.33,4.33,0,0,1,.23,1.37v4.82h0v14.29h0V423.3a12.34,12.34,0,0,1-23.65,5c2.17,4.22,8,6,13,4.65l.06,0a7,7,0,0,0,5-6.75V321C150.51,322.82,143.85,322.45,139.49,319.94Z" style="fill:#F9A8D4;opacity:0.2"></path><path d="M150,435.56h0c7.69-1.44,9-7.69,9-11.4V309.1a1.07,1.07,0,0,1,.16.14,6.61,6.61,0,0,1,1.39,1.73l.05.1c.06.12.11.24.16.37a.69.69,0,0,1,0,.13,4.3,4.3,0,0,1,.24.92s0,.07,0,.1a3.71,3.71,0,0,1,0,.47v4.82h0v14.29h0v91.11h0A12.35,12.35,0,0,1,150,435.56Z" style="fill:#F9A8D4;opacity:0.30000000000000004"></path><path d="M134.61,305.56c0-2.09,1.38-4.17,4.14-5.77,5.53-3.19,14.48-3.19,20,0,2.76,1.6,4.14,3.68,4.14,5.77h0v6.11h0c0,2.09-1.38,4.18-4.14,5.77-5.52,3.19-14.47,3.19-20,0-2.76-1.59-4.14-3.68-4.14-5.77h0v-6.11Z" style="fill:#F9A8D4"></path><path d="M134.61,305.56c0-2.09,1.38-4.17,4.14-5.77,5.53-3.19,14.48-3.19,20,0,2.76,1.6,4.14,3.68,4.14,5.77h0v6.11h0c0,2.09-1.38,4.18-4.14,5.77-5.52,3.19-14.47,3.19-20,0-2.76-1.59-4.14-3.68-4.14-5.77h0v-6.11Z" style="fill:#fff;opacity:0.5"></path><path d="M137.83,316.85c4.15,1.9,11.88,2.87,16,1.13,4.37-1.84,6.53-3.7,6.53-7.91v-9.15a6.13,6.13,0,0,1,2.53,4.64h0v6.11h0c0,2.09-1.38,4.18-4.14,5.77-5.52,3.19-14.47,3.19-20,0C138.43,317.25,138.12,317.05,137.83,316.85Z" style="fill:#F9A8D4;opacity:0.30000000000000004"></path><path d="M158.75,311.34c-5.52,3.18-14.47,3.18-20,0s-5.52-8.36,0-11.55,14.48-3.19,20,0S164.27,308.15,158.75,311.34Z" style="fill:#F9A8D4"></path><path d="M158.75,311.34c-5.52,3.18-14.47,3.18-20,0s-5.52-8.36,0-11.55,14.48-3.19,20,0S164.27,308.15,158.75,311.34Z" style="fill:#fff;opacity:0.7000000000000001"></path><path d="M154.93,300.81c4.46,1.17,5.92,4.54,4,7.17s-5.64,4.76-12.28,3.89-8-4.44-8-5.29Z" style="fill:#fff;opacity:0.7000000000000001"></path><path d="M156,309.77a16.1,16.1,0,0,1-14.56,0c-4-2.32-4-6.09,0-8.41a16.1,16.1,0,0,1,14.56,0C160.06,303.68,160.06,307.45,156,309.77Z" style="fill:#F9A8D4"></path><path d="M156,309.77a16.1,16.1,0,0,1-14.56,0c-4-2.32-4-6.09,0-8.41a16.1,16.1,0,0,1,14.56,0C160.06,303.68,160.06,307.45,156,309.77Z" style="fill:#fff;opacity:0.4"></path><path d="M156,308.64a9.84,9.84,0,0,1,.86.56,8,8,0,0,1-.86.57,16.1,16.1,0,0,1-14.56,0,7.86,7.86,0,0,1-.85-.57,9.63,9.63,0,0,1,.85-.56A16.1,16.1,0,0,1,156,308.64Z" style="fill:#fff;opacity:0.4"></path></g><polygon points="142.85 352.36 114.98 336.27 114.98 339.51 142.85 355.61 278.21 277.45 278.21 274.21 142.85 352.36" style="fill:#e0e0e0"></polygon><polygon points="142.85 352.36 114.98 336.27 114.98 339.51 142.85 355.61 278.21 277.45 278.21 274.21 142.85 352.36" style="opacity:0.30000000000000004"></polygon><polygon points="142.85 355.61 142.85 352.36 278.21 274.21 278.21 277.45 142.85 355.61" style="fill:#e0e0e0"></polygon><path d="M115,336.27l27.87,16.09,135.36-78.15-21.44-12.38h0v12c2.88,3.07,2.06,7-2.44,9.59-5.49,3.18-14.4,3.18-19.9,0-4.55-2.63-5.32-6.6-2.35-9.68v-5.05l-5.41,3.13v3a5.36,5.36,0,0,1-1,3.07,7,7,0,0,1-.76.9v13.34c2.91,3.08,2.12,7-2.4,9.64-5.5,3.17-14.41,3.17-19.91,0-4.52-2.61-5.31-6.56-2.39-9.65v-5.06l-5.4,3.11v3.07a5.25,5.25,0,0,1-1,3.07,7,7,0,0,1-.75.91V310.5c3,3.09,2.18,7.06-2.35,9.67-5.5,3.18-14.42,3.18-19.92,0-4.5-2.59-5.3-6.51-2.43-9.6v-5.08l-5.39,3.12v3.06a5.28,5.28,0,0,1-1,3.07,7.05,7.05,0,0,1-.76.93v13.18c3,3.09,2.24,7.08-2.32,9.71-5.49,3.18-14.4,3.18-19.9,0-4.49-2.59-5.31-6.49-2.48-9.56v-5.09Z" style="fill:#f0f0f0"></path><polygon points="142.85 425.9 278.21 347.75 278.21 350.99 142.85 429.14 114.98 413.05 114.98 409.81 142.85 425.9" style="fill:#e0e0e0"></polygon><polygon points="142.85 425.9 278.21 347.75 278.21 350.99 142.85 429.14 114.98 413.05 114.98 409.81 142.85 425.9" style="opacity:0.30000000000000004"></polygon><polygon points="278.21 347.74 142.85 425.9 142.85 429.14 278.21 350.99 278.21 347.74" style="fill:#e0e0e0"></polygon><path d="M136.39,397.44v5.1c-2.83,3.07-2,7,2.48,9.56,5.49,3.18,14.41,3.18,19.9,0,4.56-2.63,5.33-6.62,2.32-9.71V383.18l7.19-4.15v5.08c-2.88,3.08-2.07,7,2.44,9.61,5.49,3.17,14.41,3.17,19.9,0,4.54-2.63,5.32-6.59,2.36-9.68V364.77l7.19-4.15v5.06c-2.92,3.09-2.13,7,2.4,9.65,5.49,3.17,14.41,3.17,19.9,0,4.52-2.61,5.32-6.56,2.4-9.64V346.36l7.19-4.15v5.05c-3,3.09-2.19,7.06,2.36,9.68,5.49,3.17,14.4,3.17,19.9,0,4.5-2.6,5.31-6.52,2.44-9.6v-12h0l21.43,12.37L142.85,425.9,115,409.81Z" style="fill:#f0f0f0"></path></g></g><g id="freepik--petri-dish--inject-16"><g id="freepik--petri-dish--inject-16"><path d="M334.66,416a39.87,39.87,0,0,0-13.28-11.7c-23.26-13.43-61-13.43-84.25,0A39.87,39.87,0,0,0,223.85,416h-4.17v12.13h0c-.22,9,5.56,18,17.41,24.81,23.26,13.44,61,13.44,84.25,0,11.85-6.84,17.63-15.84,17.41-24.81h0V416Z" style="fill:#F9A8D4"></path><path d="M334.66,416a39.87,39.87,0,0,0-13.28-11.7c-23.26-13.43-61-13.43-84.25,0A39.87,39.87,0,0,0,223.85,416h-4.17v12.13h0c-.22,9,5.56,18,17.41,24.81,23.26,13.44,61,13.44,84.25,0,11.85-6.84,17.63-15.84,17.41-24.81h0V416Z" style="fill:#fff;opacity:0.4"></path><path d="M321.38,452.89c1.58-.91,3-1.86,4.4-2.84a95.07,95.07,0,0,1-36.69,9.53c-28.26,1.13-44.52-6-54.2-12.79s-13.2-17-13.2-22l0-8.86h-2v12.13h0c-.22,9,5.56,18,17.41,24.81C260.39,466.33,298.12,466.33,321.38,452.89Z" style="fill:#F9A8D4;opacity:0.5"></path><path d="M237.13,440.27c-23.27-13.43-23.27-35.21,0-48.64s61-13.43,84.25,0,23.27,35.21,0,48.64S260.4,453.7,237.13,440.27Z" style="fill:#F9A8D4"></path><path d="M237.13,440.27c-23.27-13.43-23.27-35.21,0-48.64s61-13.43,84.25,0,23.27,35.21,0,48.64S260.4,453.7,237.13,440.27Z" style="fill:#fff;opacity:0.7000000000000001"></path><path d="M241.4,437.8c-20.9-12.07-20.9-31.63,0-43.7s54.8-12.07,75.71,0,20.9,31.64,0,43.71S262.31,449.87,241.4,437.8Z" style="fill:#F9A8D4"></path><path d="M241.4,437.8c-20.9-12.07-20.9-31.63,0-43.7s54.8-12.07,75.71,0,20.9,31.64,0,43.71S262.31,449.87,241.4,437.8Z" style="fill:#fff;opacity:0.4"></path><path d="M298.3,401c-19.08-4.16-41.5-1.87-56.91,7-7.33,4.22-12,9.44-14.23,14.91-4-10,.75-21,14.23-28.77-6.71,4.42-8.33,12.31-3.48,11.44S267.79,390.27,298.3,401Z" style="fill:#F9A8D4;opacity:0.4"></path><path d="M317.11,408c-20.91-12.07-54.8-12.07-75.71,0-7.37,4.25-12.08,9.45-14.26,14.91,2.18,5.46,6.89,10.66,14.26,14.91,20.91,12.07,54.8,12.07,75.71,0,7.37-4.25,12.09-9.45,14.26-14.91C329.2,417.43,324.48,412.23,317.11,408Z" style="fill:#fff;opacity:0.4"></path><path d="M331.35,422.89a15.41,15.41,0,0,1-.93,2c-2.49-4.66-6.9-9.07-13.3-12.74-20.93-12.11-54.8-12.11-75.73,0-6.4,3.67-10.81,8.08-13.3,12.74a15.41,15.41,0,0,1-.93-2c2.18-5.47,6.9-10.69,14.23-14.91,20.93-12.05,54.8-12.05,75.73,0C324.45,412.2,329.17,417.42,331.35,422.89Z" style="fill:#F9A8D4;opacity:0.1"></path><path d="M317.11,437.81c-9.69,5.81-21,8.61-32.23,9.38a87.34,87.34,0,0,1-33.54-4.08,55.58,55.58,0,0,1-15.05-8c-4.48-3.46-8.46-8-10.18-13.54a20.14,20.14,0,0,1-.6-8.56,21.37,21.37,0,0,1,3.2-7.92c3.15-4.8,7.79-8.33,12.69-11-4.78,2.91-9.21,6.64-12.05,11.43a21.08,21.08,0,0,0-2.95,7.66,19.17,19.17,0,0,0,.7,8.11c1.71,5.25,5.58,9.53,10,12.82a54.5,54.5,0,0,0,14.77,7.53,86,86,0,0,0,33,4.51C295.94,445.45,307.14,443.08,317.11,437.81Z" style="fill:#fff"></path><path d="M248.62,423.1c.3-.56-.17-1.26-1.12-1.48a2.79,2.79,0,0,0-3,1.36.8.8,0,0,0,.47,1.18,2.94,2.94,0,0,0,1.45.07A3,3,0,0,0,248.62,423.1Zm-1.94,4.8c-.92,2.06.87,6.1,5.87,4.19,1.58-.61,2.33-1.8,2-2.89C253.92,426.84,248.11,424.72,246.68,427.9ZM308.26,414c-2.16-4-8.62-6.23-15.64-6.09-5,.1-10.32.83-15.25.5-1.9-.13-3.75-.47-5.66-.53-6.74-.23-13.27,1.58-17.34,4.64-2.77,2.08-3.9,5.34-2.63,7.88a14.86,14.86,0,0,0,3.64,4.06,17,17,0,0,1,4,4.35c.73,1.43.76,2.95,1.37,4.4,1.05,2.5,3.91,4.74,7.75,6.06a28.24,28.24,0,0,0,12.93,1A24.38,24.38,0,0,0,292,436.18c3.21-2.33,5-5.26,7.41-7.85,2.66-2.8,6.56-5.33,8.48-8.34A5.74,5.74,0,0,0,308.26,414Z" style="fill:#F9A8D4"></path><path d="M248.62,423.1c.3-.56-.17-1.26-1.12-1.48a2.79,2.79,0,0,0-3,1.36.8.8,0,0,0,.47,1.18,2.94,2.94,0,0,0,1.45.07A3,3,0,0,0,248.62,423.1Zm-1.94,4.8c-.92,2.06.87,6.1,5.87,4.19,1.58-.61,2.33-1.8,2-2.89C253.92,426.84,248.11,424.72,246.68,427.9ZM308.26,414c-2.16-4-8.62-6.23-15.64-6.09-5,.1-10.32.83-15.25.5-1.9-.13-3.75-.47-5.66-.53-6.74-.23-13.27,1.58-17.34,4.64-2.77,2.08-3.9,5.34-2.63,7.88a14.86,14.86,0,0,0,3.64,4.06,17,17,0,0,1,4,4.35c.73,1.43.76,2.95,1.37,4.4,1.05,2.5,3.91,4.74,7.75,6.06a28.24,28.24,0,0,0,12.93,1A24.38,24.38,0,0,0,292,436.18c3.21-2.33,5-5.26,7.41-7.85,2.66-2.8,6.56-5.33,8.48-8.34A5.74,5.74,0,0,0,308.26,414Z" style="fill:#fff;opacity:0.9500000000000001"></path><path d="M293.29,434.27c-4.88,3.29-10.38,4.3-16.26,4.37s-11.42-2-13.89-7.73a36.58,36.58,0,0,0-1.6-3.87c-1.09-1.92-3.06-2.84-4.79-4.21s-3.67-2.45-4.56-4.47a4.76,4.76,0,0,1-.16-3.14,5.61,5.61,0,0,0-.29,5.22,14.86,14.86,0,0,0,3.64,4.06,17,17,0,0,1,4,4.35c.73,1.43.76,2.95,1.37,4.4,1.05,2.5,3.91,4.74,7.75,6.06a28.24,28.24,0,0,0,12.93,1A24.38,24.38,0,0,0,292,436.18a23.48,23.48,0,0,0,4.16-4A21.15,21.15,0,0,1,293.29,434.27Zm-45.44-10.66a2.73,2.73,0,0,1-1.89,0,1.09,1.09,0,0,1-.74-1.08,1.11,1.11,0,0,1,.25-.48l.12-.12a2.43,2.43,0,0,0-1.1,1.07.8.8,0,0,0,.47,1.18,2.94,2.94,0,0,0,1.45.07,3.63,3.63,0,0,0,2-.85A3.88,3.88,0,0,1,247.85,423.61Zm2.62,7.51a4,4,0,0,1-1.47-.63,3.4,3.4,0,0,1-1.19-2.74,2.38,2.38,0,0,1,.29-1.21,2.58,2.58,0,0,0-1.42,1.36c-.92,2.06.87,6.1,5.87,4.19a3.63,3.63,0,0,0,1.67-1.2A5.54,5.54,0,0,1,250.47,431.12Z" style="fill:#F9A8D4;opacity:0.15"></path></g></g><g id="freepik--Beaker--inject-16"><g id="freepik--beaker--inject-16"><path d="M453,364.57h0V248.28H317.82V364.57h0c-.05,10,6.54,20.06,19.79,27.72,26.41,15.24,69.22,15.24,95.63,0C446.5,384.63,453.09,374.6,453,364.57Z" style="fill:#F9A8D4"></path><path d="M453,364.57h0V248.28H317.82V364.57h0c-.05,10,6.54,20.06,19.79,27.72,26.41,15.24,69.22,15.24,95.63,0C446.5,384.63,453.09,374.6,453,364.57Z" style="fill:#fff;opacity:0.6000000000000001"></path><path d="M433.25,392.29c13.25-7.66,19.84-17.69,19.79-27.72h0V248.28h-.88c-2.2,6.25-9.65,22.91-28.71,31.29,0,63.14,4.28,122.08-43.83,122.08A109.58,109.58,0,0,1,350,397.91C376,407.2,410.65,405.34,433.25,392.29Z" style="fill:#F9A8D4;opacity:0.30000000000000004"></path><path d="M326.5,305.43v58.92h.17c0,8.68,5.74,17.36,17.21,24,22.95,13.25,60.16,13.25,83.1,0,11.48-6.62,17.21-15.3,17.21-24V305.43Z" style="fill:#37474f"></path><path d="M444.19,364.35V305.43H423.56c.07,42.77-1.63,79.72-24.69,91.94,10.3-1.39,20.08-4.4,28.11-9C438.46,381.71,444.19,373,444.19,364.35Z" style="fill:#263238"></path><path d="M343.74,329.46c-23-13.27-23-34.78,0-48s60.24-13.27,83.22,0,23,34.78,0,48S366.72,342.73,343.74,329.46Z" style="fill:#455a64"></path><path d="M420.84,327.71a20.75,20.75,0,0,1-1-2.14,7.34,7.34,0,0,0-4.45-3.49,18.85,18.85,0,0,0-5.75-.63c-6.29,0-30.09,3.36-29.66-7.6.16-4.11,7.47-9,2.28-13.28a7,7,0,0,0-2.09-1.08c-9.32-3.43-19.46-.73-28.85-3.85a6.33,6.33,0,0,1-3.23-2,5.81,5.81,0,0,1-.71-4.2c.77-5.62,4.75-10.25,9.32-13.68a66.89,66.89,0,0,0-13,5.65c-23,13.27-23,34.78,0,48C366.41,342.54,403,342.71,426,330l-.41,0C423.61,329.75,421.79,329.14,420.84,327.71ZM418.18,318a1.8,1.8,0,0,0,.6,1.1c1.82,1.89,4.74,2.17,7.35,1.91a7.46,7.46,0,0,0,3.22-.89,2.4,2.4,0,0,0,1.32-2.12C430.25,313.56,417.89,314.21,418.18,318Z" style="fill:#fff;opacity:0.1"></path><polygon points="449.8 260.76 449.8 365.63 446.6 372.89 446.6 264.34 449.8 260.76" style="fill:#fff;opacity:0.7000000000000001"></polygon><path d="M323.81,263.27v98.14c0,13.3,17.92,36.31,61.54,37.07a107.48,107.48,0,0,1-31.57-11.92,31.31,31.31,0,0,1-15.41-27.06V270.68Z" style="fill:#fff;opacity:0.30000000000000004"></path><g id="freepik--Ring--inject-16"><path d="M431,210.91a67,67,0,0,1-8.26.23c-4.08-.21-7.83-1.46-11.75-2.44a105.85,105.85,0,0,0-25.86-3.11c-17.37,0-33.81,4-46.31,11.19-13.93,8-21.6,19.23-21.6,31.5s7.67,23.46,21.6,31.5c12.5,7.22,28.95,11.2,46.31,11.2s33.8-4,46.31-11.2c13.93-8,21.6-19.23,21.6-31.5a30.87,30.87,0,0,0-5.83-17.69c-1.66-2.36-4.05-5.05-5-7.74-1-3.08-1-5.89-1.36-9.06a4.09,4.09,0,0,0-.71-2.17c-.87-1.07-2.44-1.14-3.81-1.07C434.59,210.63,432.8,210.77,431,210.91Z" style="fill:#F9A8D4"></path><path d="M431,210.91a67,67,0,0,1-8.26.23c-4.08-.21-7.83-1.46-11.75-2.44a105.85,105.85,0,0,0-25.86-3.11c-17.37,0-33.81,4-46.31,11.19-13.93,8-21.6,19.23-21.6,31.5s7.67,23.46,21.6,31.5c12.5,7.22,28.95,11.2,46.31,11.2s33.8-4,46.31-11.2c13.93-8,21.6-19.23,21.6-31.5a30.87,30.87,0,0,0-5.83-17.69c-1.66-2.36-4.05-5.05-5-7.74-1-3.08-1-5.89-1.36-9.06a4.09,4.09,0,0,0-.71-2.17c-.87-1.07-2.44-1.14-3.81-1.07C434.59,210.63,432.8,210.77,431,210.91Z" style="fill:#fff;opacity:0.8"></path><path d="M429.89,272.57c-24.71,14.28-64.79,14.28-89.52,0s-24.71-37.42,0-51.69c11.12-6.42,24.06-9.49,36.78-10.42a106.68,106.68,0,0,1,28.37,1.63c5.24,1,10.3,2.54,15.69,2.66,3.08.07,6.17-.19,9.24-.39,1.54-.09,3.09-.18,4.63-.19,1.18,0,2.26.1,2.77,1.34a3.81,3.81,0,0,1,.17,1.68c-.14,2.66-.47,5.48.76,7.85a16.25,16.25,0,0,0,1.42,2.08,75.53,75.53,0,0,1,5.27,8.53,23.18,23.18,0,0,1,2.95,12C448,258.8,439,267.31,429.89,272.57Z" style="fill:#F9A8D4"></path><path d="M448.42,247.61c-.47,11.2-9.41,19.7-18.53,25-1.56.9-3.18,1.76-4.86,2.53-23.17,10.89-56.56,10.9-79.76,0-1.69-.79-3.32-1.65-4.9-2.56-24.71-14.27-24.71-37.42,0-51.69,11.12-6.42,24.06-9.49,36.79-10.42a106.22,106.22,0,0,1,28.36,1.63c5.24,1,10.29,2.54,15.69,2.66,3.09.08,6.16-.2,9.25-.38,1.53-.1,3.07-.19,4.62-.2,1.18,0,2.26.1,2.77,1.35a3.88,3.88,0,0,1,.17,1.67c-.14,2.66-.47,5.49.77,7.85a15.85,15.85,0,0,0,1.41,2.08,76.29,76.29,0,0,1,5.28,8.54A23.12,23.12,0,0,1,448.42,247.61Z" style="fill:#fff;opacity:0.6000000000000001"></path><path d="M440.2,227.12a15.85,15.85,0,0,1-1.41-2.08c-1.24-2.36-.91-5.19-.77-7.85a3.88,3.88,0,0,0-.17-1.67c-.51-1.25-1.59-1.36-2.77-1.35-1.55,0-3.09.1-4.62.2-3.09.18-6.16.46-9.25.38-5.4-.12-10.45-1.62-15.69-2.66a106.22,106.22,0,0,0-28.36-1.63c-11.1.81-22.35,3.25-32.42,8.11,32.42-8.11,61.29,1.25,69.2,8.08s3.6,27.92,8.64,23.5,12.59-10,15.47-5.59c1.7,2.6,1.39,10.56.85,21.44,5.25-4.88,9.21-11.05,9.52-18.39a23.12,23.12,0,0,0-2.94-12A76.29,76.29,0,0,0,440.2,227.12Z" style="fill:#F9A8D4;opacity:0.30000000000000004"></path><path d="M431.45,279.78c10.1-5.83,16.91-13.32,19.89-21.68-1.53,3.73-6.78,14-23.92,21.42-22.55,9.77-57.7,11.42-84.29-.68s-26.16-35.13-22.08-44.9l-.07,0a29.69,29.69,0,0,0-3.75,14.37c0,12.27,7.67,23.46,21.6,31.5,12.5,7.22,28.95,11.2,46.31,11.2S418.94,287,431.45,279.78Z" style="fill:#F9A8D4;opacity:0.1"></path><path d="M431.45,279.78c10.1-5.83,16.91-13.32,19.89-21.68-1.53,3.73-6.78,14-23.92,21.42-22.55,9.77-57.7,11.42-84.29-.68s-26.16-35.13-22.08-44.9l-.07,0a29.69,29.69,0,0,0-3.75,14.37c0,12.27,7.67,23.46,21.6,31.5,12.5,7.22,28.95,11.2,46.31,11.2S418.94,287,431.45,279.78Z" style="fill:#fff;opacity:0.6000000000000001"></path></g><path d="M351.56,277.72c20.58,7.44,46.94,7.4,67.45-.12C398.8,269.45,371.71,269.49,351.56,277.72Z" style="fill:#455a64"></path><path d="M385.14,307.07c-32.32,0-48.53-11.2-57.94-19.69a.87.87,0,0,1-.07-1.23.88.88,0,0,1,1.24-.07c9.36,8.44,25.59,19.63,58.41,19.24a.88.88,0,0,1,.88.86.86.86,0,0,1-.86.88Z" style="fill:#fff"></path><path d="M361.68,320.88a.55.55,0,0,1-.18,0,73.71,73.71,0,0,1-34.3-17.36.87.87,0,1,1,1.17-1.29,72.05,72.05,0,0,0,33.5,17,.87.87,0,0,1-.19,1.72Z" style="fill:#fff"></path><path d="M385.14,339.32c-32.32,0-48.53-11.2-57.94-19.69a.88.88,0,0,1-.07-1.24.89.89,0,0,1,1.24-.06c9.36,8.44,25.64,19.63,58.41,19.23a.89.89,0,0,1,.88.87.87.87,0,0,1-.86.88Z" style="fill:#fff"></path><path d="M361.68,353.13a.55.55,0,0,1-.18,0,73.71,73.71,0,0,1-34.3-17.36.87.87,0,1,1,1.17-1.29,72.05,72.05,0,0,0,33.5,17,.87.87,0,0,1-.19,1.72Z" style="fill:#fff"></path><path d="M385.14,371.57c-32.32,0-48.53-11.2-57.94-19.69a.87.87,0,1,1,1.17-1.3c9.36,8.44,25.64,19.61,58.41,19.23a.88.88,0,0,1,0,1.75Z" style="fill:#fff"></path><path d="M361.68,385.38a.55.55,0,0,1-.18,0A73.71,73.71,0,0,1,327.2,368a.87.87,0,0,1-.07-1.23.88.88,0,0,1,1.24-.07,72.07,72.07,0,0,0,33.5,17,.87.87,0,0,1-.19,1.72Z" style="fill:#fff"></path></g></g><g id="freepik--Molecules--inject-16"><g id="freepik--molecules--inject-16"><path d="M381.89,169a4.52,4.52,0,0,0-3.65,1.84l-10.57-5.19a4.49,4.49,0,0,0-.24-3.1l8.4-5.89a4.55,4.55,0,1,0-1.36-3.24,4.58,4.58,0,0,0,.41,1.89l-8.4,5.88a4.53,4.53,0,0,0-3.19-1.31,4.59,4.59,0,0,0-1.82.38l-7.3-10.81a4.53,4.53,0,1,0-1.37.93l7.3,10.81a4.52,4.52,0,0,0-1,5.09l-14.92,10.27a4.6,4.6,0,1,0,.94,1.37l14.92-10.27a4.54,4.54,0,0,0,6.86-.51l10.57,5.18a4.54,4.54,0,1,0,4.38-3.32Z" style="fill:#f0f0f0"></path><path d="M94.34,61.2a4.55,4.55,0,0,0-2.65,5.86,4.48,4.48,0,0,0,1.06,1.61L87,77.14a4.5,4.5,0,0,0-5,.9L71.3,70.5a4.55,4.55,0,1,0-2.52,2.34,4.43,4.43,0,0,0,1.56-1L81,79.39a4.54,4.54,0,0,0,.89,5.1L71.54,99.37a4.63,4.63,0,1,0,1.36.95L83.24,85.44a4.53,4.53,0,0,0,6.23-2.89l11.75,1.12a4.28,4.28,0,0,0,.25,1.21A4.55,4.55,0,1,0,104.13,79a4.51,4.51,0,0,0-2.76,3L89.62,80.9a4.21,4.21,0,0,0-.25-1.2,4.61,4.61,0,0,0-1.06-1.62l5.8-8.47a4.49,4.49,0,0,0,3.44.1,4.55,4.55,0,0,0-3.21-8.51Z" style="fill:#f0f0f0"></path><path d="M176.45,174.74a3.92,3.92,0,0,1-.29-5.54,3.88,3.88,0,0,1,1.16-.88l-1.7-6.63a3.86,3.86,0,0,1-3.8-2.53l-7.76,1.16a3.87,3.87,0,0,1-1,2.37,4,4,0,1,1,.74-4l7.75-1.16a3.89,3.89,0,0,1,4.37-3.63l5.11-14.74a6.17,6.17,0,0,1-1.26-.87,5.85,5.85,0,0,1-1.9-3.63l-11.16-.13a3.91,3.91,0,1,1-1.18-3.79,3.89,3.89,0,0,1,1.2,2.13l11.15.13a5.91,5.91,0,0,1,1.43-3l-12.91-15.18a3.92,3.92,0,1,1,.78-6.36l8.88-6.41a3.9,3.9,0,1,1,1,1.35l-8.88,6.4a3.9,3.9,0,0,1-.48,3.94l12.91,15.19a5.9,5.9,0,0,1,6.92,9.55l5.85,9.55a3.9,3.9,0,1,1-1.62,1.06,2,2,0,0,1,.21-.2l-5.85-9.54a5.87,5.87,0,0,1-3.48.38l-5.11,14.74a3.84,3.84,0,0,1,.59.43,3.91,3.91,0,0,1-.88,6.42l1.71,6.63a3.92,3.92,0,1,1-2.48,6.83Z" style="fill:#f0f0f0"></path><path d="M351.85,66.12a3.51,3.51,0,0,0-3.21,2.09l-13.1-2.4s0-.09,0-.13a5.31,5.31,0,1,0-8.54,4.2l-5.36,9.84a3.84,3.84,0,0,0-.91-.13,3.54,3.54,0,1,0,2.36.92l5.36-9.84a5.29,5.29,0,0,0,6.78-3.24l13.11,2.41a3.51,3.51,0,1,0,3.5-3.72Z" style="fill:#f0f0f0"></path><path d="M475.74,108.09a3.2,3.2,0,0,0-1.79.33l-6.85-8a4.87,4.87,0,0,0,1.13-2.68,5,5,0,0,0-8.62-3.88L445.91,85a5.14,5.14,0,0,0,.39-1.47,5,5,0,0,0-2.3-4.73l3.77-9a3.33,3.33,0,1,0-1.56-.57l-3.74,9a6,6,0,0,0-.61-.1,4.83,4.83,0,0,0-2.54.41l-6.57-9.88a3.25,3.25,0,0,0,.83-1.86A3.3,3.3,0,1,0,430,69.64a3,3,0,0,0,1.41-.17l6.57,9.88a5,5,0,0,0-.49,6.74L425.72,99.17a3.3,3.3,0,1,0,1.77,3.27,3.2,3.2,0,0,0-.54-2.15l11.73-13.1a5,5,0,0,0,6.33-.84l13.7,8.91a5.14,5.14,0,0,0-.39,1.47,5,5,0,0,0,2.48,4.84l-4.15,11.18a3.34,3.34,0,1,0,1.55.59l4.15-11.2c.14,0,.27,0,.41.06a5,5,0,0,0,3.09-.69l6.85,8a3.25,3.25,0,0,0-.59,1.54,3.3,3.3,0,1,0,3.63-3Z" style="fill:#f0f0f0"></path><path d="M443.79,157.16a5.57,5.57,0,1,1-5.57-5.56A5.57,5.57,0,0,1,443.79,157.16Z" style="fill:#f0f0f0"></path><circle cx="44.25" cy="177.15" r="5.56" style="fill:#f0f0f0"></circle><circle cx="392" cy="42.19" r="5.56" style="fill:#f0f0f0"></circle><circle cx="187.44" cy="50.43" r="5.56" style="fill:#f0f0f0"></circle><circle cx="460.42" cy="188.8" r="2.97" style="fill:#f0f0f0"></circle><circle cx="373.28" cy="109.42" r="2.97" style="fill:#f0f0f0"></circle><circle cx="118.88" cy="111.12" r="2.97" style="fill:#f0f0f0"></circle><path d="M469.33,32.22a3,3,0,1,1-3-3A3,3,0,0,1,469.33,32.22Z" style="fill:#f0f0f0"></path><path d="M37.32,119.84a3,3,0,1,1-3-3A3,3,0,0,1,37.32,119.84Z" style="fill:#f0f0f0"></path><path d="M291.47,37.43a3,3,0,1,1-3-3A3,3,0,0,1,291.47,37.43Z" style="fill:#f0f0f0"></path><path d="M53.14,38.93a3,3,0,1,1-3-3A3,3,0,0,1,53.14,38.93Z" style="fill:#f0f0f0"></path></g></g></svg>
