<svg xmlns="http://www.w3.org/2000/svg" viewBox="0 0 750 500"><g id="freepik--background-complete--inject-18"><g style="opacity:0.6000000000000001"><path d="M656.42,326.59h.31l.59,0,.23,0c.4-.07.81-.15,1.21-.25l.66-.21h0a2.93,2.93,0,0,1,.39-.21.36.36,0,0,1,.11,0l0,0,.44-.42.17-.2c.18-.3.65-.83.65-1.19-.16.39-.19.44-.07.14,0-.12.09-.25.13-.38s.15-.51.21-.78c0,0,0-.05,0-.07-3.74-11-3.2-24.11-1.9-38,9.77-3.82,19.21-7.44,28.22-8.37v0h0a1.51,1.51,0,0,1,.07-.26c.08-.26.16-.52.23-.79s.12-.5.18-.75a.31.31,0,0,1,0-.07h0c0-.43.06-.86,0-1.29,0-.24,0-.46,0-.7,0-.06,0,0,0-.07a.2.2,0,0,1,0-.06c-.08-.43-.17-.85-.27-1.28-.07-.26-.16-.52-.23-.78-9.15.84-18.42,4.13-27.55,7.67q0-.44.09-.87c2.81-27.59,5.71-56.13-20.88-71-11.56-6.46-24.63-7.82-39.94-4.16-9.42,2.26-18.83,6.11-28.52,10.57C570.8,185,570,156.57,539.61,138.9c-20.39-11.89-51.07-5.35-91.2,19.43q-3.93,2.43-7.71,4.93-.66-3.24-1.29-6.45c-5.72-28.84-10.65-53.75-27.67-59.2a3,3,0,1,0-1.85,5.76c13.63,4.36,18.47,28.77,23.59,54.62.59,2.95,1.18,5.92,1.79,8.92a414.46,414.46,0,0,0-40.39,31.56,3,3,0,1,0,4.07,4.46,409.19,409.19,0,0,1,37.67-29.59c6.63,30.76,16.46,61.18,44.43,68.62l.12,0,.09,0c27.56,7.21,54.29-5.64,80.12-18.06l3.76-1.8c.43,24.07,2.94,48,26.63,64.09,21.3,14.46,42.48,8.31,61.59,1.05C652.18,301.22,652,314.93,656.42,326.59Zm-197.13-108c-8.73-12.94-13.49-30.93-17.28-48.9,19.58-13.09,43-25.87,63.69-29.47Zm21.36,17a38.46,38.46,0,0,1-17.41-11.79l50-84.45c8.58-.52,16.52.86,23.32,4.82,1.2.7,2.35,1.42,3.46,2.16Zm30.9,1.1a66.43,66.43,0,0,1-24.66.44l58-87.19A48.53,48.53,0,0,1,557.2,165a3,3,0,0,0-1.29,1.13L512,235.32A2.93,2.93,0,0,0,511.55,236.64Zm47.22-18.12c-12.91,6.2-26,12.51-39.23,16.21l40.38-63.59c4.84,13,5,27.89,5.12,43.27,0,.36,0,.73,0,1.1Zm12.36.8c16.12-7.54,31.63-13.72,46.31-13.12l-40.36,53.39C572,247.59,571.31,233.75,571.13,219.32Zm9,46.23a2.61,2.61,0,0,0,.27-.3l43.78-57.92a2.28,2.28,0,0,0,.21-.3,41.66,41.66,0,0,1,12.21,4.53,38.17,38.17,0,0,1,4.73,3.08l-48.87,64.64A48,48,0,0,1,580.11,265.55Zm31.77,22.7a42.75,42.75,0,0,1-14.46-5.54l48.41-64a35.64,35.64,0,0,1,8.41,15.8l-41.81,51A3,3,0,0,0,611.88,288.25Zm5.54.66,38.22-46.61c1.17,10.48,0,22.26-1.25,34.33-.14,1.32-.27,2.64-.4,4C642,285.24,629.75,289.6,617.42,288.91Z" style="fill:#ebebeb"></path><path d="M76.82,181.12a16.75,16.75,0,1,1,16.75-16.74A16.76,16.76,0,0,1,76.82,181.12Zm0-30.49a13.75,13.75,0,1,0,13.75,13.75A13.77,13.77,0,0,0,76.82,150.63Z" style="fill:#ebebeb"></path><path d="M205.15,134.3a16.75,16.75,0,1,1,16.74-16.75A16.76,16.76,0,0,1,205.15,134.3Zm0-30.49a13.75,13.75,0,1,0,13.74,13.74A13.76,13.76,0,0,0,205.15,103.81Z" style="fill:#ebebeb"></path><path d="M172.65,181.12a13.58,13.58,0,1,1,13.57-13.57A13.59,13.59,0,0,1,172.65,181.12Zm0-24.15a10.58,10.58,0,1,0,10.57,10.58A10.59,10.59,0,0,0,172.65,157Z" style="fill:#ebebeb"></path><path d="M180.37,82.57A13.58,13.58,0,1,1,194,69,13.59,13.59,0,0,1,180.37,82.57Zm0-24.15A10.58,10.58,0,1,0,191,69,10.58,10.58,0,0,0,180.37,58.42Z" style="fill:#ebebeb"></path><path d="M95.21,94.64a13.58,13.58,0,1,1,13.58-13.57A13.59,13.59,0,0,1,95.21,94.64Zm0-24.15a10.58,10.58,0,1,0,10.58,10.58A10.59,10.59,0,0,0,95.21,70.49Z" style="fill:#ebebeb"></path><path d="M137,138.63a24.25,24.25,0,1,1,24.25-24.25A24.27,24.27,0,0,1,137,138.63Zm0-45.5a21.25,21.25,0,1,0,21.25,21.25A21.27,21.27,0,0,0,137,93.13Z" style="fill:#ebebeb"></path><rect x="110.56" y="84.91" width="3" height="18.68" transform="translate(-29.64 131.16) rotate(-54.67)" style="fill:#ebebeb"></rect><rect x="159.54" y="116.05" width="30.36" height="3" style="fill:#ebebeb"></rect><rect x="155.8" y="131.14" width="3" height="29.22" transform="translate(-54.33 111.1) rotate(-33.52)" style="fill:#ebebeb"></rect><rect x="84.06" y="140.57" width="39.8" height="3" transform="translate(-65.27 93.55) rotate(-37.81)" style="fill:#ebebeb"></rect><rect x="148.46" y="86.4" width="28.02" height="3" transform="translate(-15.97 135.68) rotate(-43.4)" style="fill:#ebebeb"></rect><path d="M634.88,141a11.38,11.38,0,1,1,11.38-11.38A11.39,11.39,0,0,1,634.88,141Zm0-19.76a8.38,8.38,0,1,0,8.38,8.38A8.39,8.39,0,0,0,634.88,121.25Z" style="fill:#ebebeb"></path><path d="M570.61,126.26a9.33,9.33,0,1,1,9.33-9.32A9.34,9.34,0,0,1,570.61,126.26Zm0-15.65a6.33,6.33,0,1,0,6.33,6.33A6.34,6.34,0,0,0,570.61,110.61Z" style="fill:#ebebeb"></path><path d="M575.78,76.51a9.33,9.33,0,1,1,9.33-9.32A9.33,9.33,0,0,1,575.78,76.51Zm0-15.65a6.33,6.33,0,1,0,6.33,6.33A6.33,6.33,0,0,0,575.78,60.86Z" style="fill:#ebebeb"></path><path d="M631,84.34A9.33,9.33,0,1,1,640.3,75,9.34,9.34,0,0,1,631,84.34Zm0-15.65A6.33,6.33,0,1,0,637.3,75,6.34,6.34,0,0,0,631,68.69Z" style="fill:#ebebeb"></path><path d="M603.88,112.85a16.25,16.25,0,1,1,16.25-16.24A16.26,16.26,0,0,1,603.88,112.85Zm0-29.49a13.25,13.25,0,1,0,13.25,13.25A13.26,13.26,0,0,0,603.88,83.36Z" style="fill:#ebebeb"></path><rect x="614" y="82.06" width="12.11" height="3" transform="translate(65.85 373.91) rotate(-35.33)" style="fill:#ebebeb"></rect><rect x="576.38" y="107.62" width="16.47" height="3" transform="translate(30.51 325.11) rotate(-31.87)" style="fill:#ebebeb"></rect><rect x="620.57" y="103.87" width="3" height="20.17" transform="translate(92.99 460.4) rotate(-43.6)" style="fill:#ebebeb"></rect><rect x="585.89" y="70.36" width="3" height="18.16" transform="translate(126.01 451.55) rotate(-46.59)" style="fill:#ebebeb"></rect><path d="M348.53,198.25a11.38,11.38,0,1,1,0-22.76h0a11.38,11.38,0,1,1,0,22.76Zm0-19.76a8.38,8.38,0,1,0,8.38,8.38,8.34,8.34,0,0,0-8.38-8.38Z" style="fill:#ebebeb"></path><path d="M335.84,260.46a9.33,9.33,0,1,1,9.32-9.32A9.33,9.33,0,0,1,335.84,260.46Zm0-15.65a6.33,6.33,0,1,0,6.32,6.33A6.34,6.34,0,0,0,335.84,244.81Z" style="fill:#ebebeb"></path><path d="M286.09,255.29a9.33,9.33,0,1,1,9.32-9.33A9.33,9.33,0,0,1,286.09,255.29Zm0-15.65a6.33,6.33,0,1,0,6.32,6.32A6.34,6.34,0,0,0,286.09,239.64Z" style="fill:#ebebeb"></path><path d="M293.91,200.09a9.33,9.33,0,1,1,9.33-9.32A9.33,9.33,0,0,1,293.91,200.09Zm0-15.65a6.33,6.33,0,1,0,6.33,6.33A6.33,6.33,0,0,0,293.91,184.44Z" style="fill:#ebebeb"></path><path d="M315.5,234.11a16.25,16.25,0,1,1,16.25-16.25A16.27,16.27,0,0,1,315.5,234.11Zm0-29.49a13.25,13.25,0,1,0,13.25,13.24A13.26,13.26,0,0,0,315.5,204.62Z" style="fill:#ebebeb"></path><rect x="300.96" y="195.64" width="3" height="12.11" transform="translate(-60.93 212.07) rotate(-35.33)" style="fill:#ebebeb"></rect><rect x="326.52" y="228.9" width="3" height="16.47" transform="translate(-75.76 208.98) rotate(-31.87)" style="fill:#ebebeb"></rect><rect x="322.76" y="198.17" width="20.17" height="3" transform="translate(-45.91 284.54) rotate(-43.59)" style="fill:#ebebeb"></rect><rect x="289.26" y="232.86" width="18.16" height="3" transform="translate(-76.93 290.07) rotate(-46.6)" style="fill:#ebebeb"></rect></g><g style="opacity:0.5"><rect x="64.03" y="229.31" width="12.3" height="245.89" style="fill:#c7c7c7"></rect><rect x="76.33" y="458.37" width="262.43" height="16.83" style="fill:#c7c7c7"></rect><path d="M166,220.16l-.91,200a23.73,23.73,0,1,1-47.45-.21l.91-200Z" style="fill:#ebebeb;opacity:0.7000000000000001"></path><g style="opacity:0.7000000000000001"><path d="M163,268.08,162.38,420a21,21,0,1,1-41.94-.19l.64-151.91Z" style="fill:#dbdbdb"></path></g><path d="M150.78,441.72a18.62,18.62,0,0,1-7.53,1.59c-11.45-.07-20.72-10.7-20.66-23.79l.79-199.58,14.9.1-.8,199.48C137.42,429.66,143,438.31,150.78,441.72Z" style="fill:#fff;opacity:0.4"></path><rect x="112.38" y="202.2" width="58.96" height="31.54" style="fill:#dbdbdb"></rect><g style="opacity:0.1"><rect x="116.32" y="206.63" width="1.93" height="22.68" transform="translate(234.57 435.93) rotate(180)"></rect><rect x="121.78" y="206.63" width="1.93" height="22.68" transform="translate(245.49 435.93) rotate(180)"></rect><rect x="127.25" y="206.63" width="1.93" height="22.68" transform="translate(256.42 435.93) rotate(180)"></rect><rect x="132.71" y="206.63" width="1.93" height="22.68" transform="translate(267.34 435.93) rotate(180)"></rect><rect x="138.17" y="206.63" width="1.93" height="22.68" transform="translate(278.26 435.93) rotate(180)"></rect><rect x="143.63" y="206.63" width="1.93" height="22.68" transform="translate(289.19 435.93) rotate(180)"></rect><rect x="149.09" y="206.63" width="1.93" height="22.68" transform="translate(300.11 435.93) rotate(180)"></rect><rect x="154.55" y="206.63" width="1.93" height="22.68" transform="translate(311.03 435.93) rotate(180)"></rect><rect x="160.01" y="206.63" width="1.93" height="22.68" transform="translate(321.95 435.93) rotate(180)"></rect><rect x="165.48" y="206.63" width="1.93" height="22.68" transform="translate(332.88 435.93) rotate(180)"></rect></g><path d="M239,220.16l-.91,200a23.72,23.72,0,1,1-47.44-.21l.91-200Z" style="fill:#ebebeb;opacity:0.7000000000000001"></path><g style="opacity:0.7000000000000001"><path d="M236,268.08,235.35,420a21,21,0,1,1-41.94-.19l.65-151.91Z" style="fill:#a6a6a6"></path></g><path d="M223.75,441.72a18.58,18.58,0,0,1-7.53,1.59c-11.45-.07-20.72-10.7-20.66-23.79l.8-199.58,14.89.1-.8,199.48C210.4,429.66,215.94,438.31,223.75,441.72Z" style="fill:#fff;opacity:0.4"></path><rect x="185.36" y="202.2" width="58.96" height="31.54" style="fill:#c7c7c7"></rect><g style="opacity:0.1"><rect x="189.3" y="206.63" width="1.93" height="22.68" transform="translate(380.52 435.93) rotate(180)"></rect><rect x="194.76" y="206.63" width="1.93" height="22.68" transform="translate(391.44 435.93) rotate(180)"></rect><rect x="200.22" y="206.63" width="1.93" height="22.68" transform="translate(402.36 435.93) rotate(180)"></rect><rect x="205.68" y="206.63" width="1.93" height="22.68" transform="translate(413.29 435.93) rotate(180)"></rect><rect x="211.14" y="206.63" width="1.93" height="22.68" transform="translate(424.21 435.93) rotate(180)"></rect><rect x="216.6" y="206.63" width="1.93" height="22.68" transform="translate(435.13 435.93) rotate(180)"></rect><rect x="222.06" y="206.63" width="1.93" height="22.68" transform="translate(446.05 435.93) rotate(180)"></rect><rect x="227.53" y="206.63" width="1.93" height="22.68" transform="translate(456.98 435.93) rotate(180)"></rect><rect x="232.99" y="206.63" width="1.93" height="22.68" transform="translate(467.9 435.93) rotate(180)"></rect><rect x="238.45" y="206.63" width="1.93" height="22.68" transform="translate(478.82 435.93) rotate(180)"></rect></g><path d="M312,220.16l-.91,200a23.73,23.73,0,0,1-47.45-.21l.91-200Z" style="fill:#ebebeb;opacity:0.7000000000000001"></path><g style="opacity:0.7000000000000001"><path d="M309,268.08,308.32,420a21,21,0,1,1-41.94-.19L267,267.89Z" style="fill:#dbdbdb"></path></g><path d="M296.73,441.72a18.62,18.62,0,0,1-7.53,1.59c-11.46-.07-20.72-10.7-20.67-23.79l.8-199.58,14.89.1-.79,199.48C283.37,429.66,288.91,438.31,296.73,441.72Z" style="fill:#fff;opacity:0.4"></path><rect x="258.33" y="202.2" width="58.96" height="31.54" style="fill:#dbdbdb"></rect><g style="opacity:0.1"><rect x="262.27" y="206.63" width="1.93" height="22.68" transform="translate(526.46 435.93) rotate(180)"></rect><rect x="267.73" y="206.63" width="1.93" height="22.68" transform="translate(537.39 435.93) rotate(180)"></rect><rect x="273.19" y="206.63" width="1.93" height="22.68" transform="translate(548.31 435.93) rotate(180)"></rect><rect x="278.65" y="206.63" width="1.93" height="22.68" transform="translate(559.23 435.93) rotate(180)"></rect><rect x="284.12" y="206.63" width="1.93" height="22.68" transform="translate(570.16 435.93) rotate(180)"></rect><rect x="289.58" y="206.63" width="1.93" height="22.68" transform="translate(581.08 435.93) rotate(180)"></rect><rect x="295.04" y="206.63" width="1.93" height="22.68" transform="translate(592 435.93) rotate(180)"></rect><rect x="300.5" y="206.63" width="1.93" height="22.68" transform="translate(602.92 435.93) rotate(180)"></rect><rect x="305.96" y="206.63" width="1.93" height="22.68" transform="translate(613.85 435.93) rotate(180)"></rect><rect x="311.42" y="206.63" width="1.93" height="22.68" transform="translate(624.77 435.93) rotate(180)"></rect></g><path d="M338.76,305.33l-.06,22.47H76.34V305.33H119v7.52c0,3.72,10.48,6.71,23.38,6.71s23.36-3,23.36-6.71v-7.52h26.38v7.52c0,3.72,10.45,6.71,23.36,6.71s23.36-3,23.36-6.71v-7.52h26.39v7.52c0,3.72,10.45,6.71,23.36,6.71s23.36-3,23.36-6.71v-7.52Z" style="fill:#c7c7c7"></path><rect x="76.33" y="327.81" width="262.43" height="9.05" style="fill:#c7c7c7"></rect><rect x="338.76" y="229.31" width="12.3" height="245.89" style="fill:#c7c7c7"></rect></g><g style="opacity:0.6000000000000001"><polygon points="591.12 474.86 482.18 474.86 501.36 450.05 501.36 54.04 571.94 54.04 571.94 450.05 591.12 474.86" style="fill:#ebebeb"></polygon><path d="M591.12,474.86c-.43,0-109,.23-109.35.21l.25-.34,19.14-24.84c.32.27-1.14-397,.2-396.34l70.58.05h.45V54c-.06,98.72-.22,297.32-.39,396-.07-.12,19.13,24.81,19.12,24.81Zm0,0s-19.26-24.79-19.24-24.81c.3-97.76-1.2-300,.06-395.57l-70.58.05.49-.49c-.07,0-.12,396.15-.29,396.17L482.35,475l-.17-.33,108.94.2Z" style="fill:#a6a6a6"></path><rect x="493.71" y="39.75" width="85.89" height="14.29" style="fill:#ebebeb"></rect><polygon points="571.94 57.3 501.36 60.56 501.36 54.04 571.94 54.04 571.94 57.3" style="fill:#dbdbdb"></polygon></g><polygon points="574.12 467.19 499.18 467.19 511.36 450.05 511.36 173.9 561.94 173.9 561.94 450.05 574.12 467.19" style="fill:#dbdbdb"></polygon><g style="opacity:0.6000000000000001"><rect x="507.67" y="54.04" width="17.31" height="401.63" style="fill:#fff"></rect><polygon points="507.67 455.67 524.99 455.67 511.02 475.2 493.71 475.2 507.67 455.67" style="fill:#fff"></polygon></g><polygon points="558.43 54.04 558.43 452.21 571.94 474.86 591.12 474.86 571.94 450.05 571.94 54.04 558.43 54.04" style="opacity:0.1"></polygon><path d="M511.06,224.41a41,41,0,0,1,16.41,0,36.24,36.24,0,0,1-8.2.83A36.91,36.91,0,0,1,511.06,224.41Z" style="fill:#c7c7c7"></path><path d="M511.06,173.9a40.49,40.49,0,0,1,16.41,0,41,41,0,0,1-16.41,0Z" style="fill:#c7c7c7"></path><path d="M511.06,262.29a13.52,13.52,0,0,1,4.93-.83,13.37,13.37,0,0,1,4.94.83,13.37,13.37,0,0,1-4.94.83A13.52,13.52,0,0,1,511.06,262.29Z" style="fill:#c7c7c7"></path><path d="M511.06,249.66a13.74,13.74,0,0,1,4.93-.83,13.58,13.58,0,0,1,4.94.83,15.09,15.09,0,0,1-9.87,0Z" style="fill:#c7c7c7"></path><path d="M511.06,237a15.09,15.09,0,0,1,9.87,0,14.92,14.92,0,0,1-9.87,0Z" style="fill:#c7c7c7"></path><path d="M511.06,211.78A13.52,13.52,0,0,1,516,211a13.37,13.37,0,0,1,4.94.83,13.37,13.37,0,0,1-4.94.83A13.74,13.74,0,0,1,511.06,211.78Z" style="fill:#c7c7c7"></path><path d="M511.06,199.15a13.74,13.74,0,0,1,4.93-.83,13.37,13.37,0,0,1,4.94.83A13.37,13.37,0,0,1,516,200,13.52,13.52,0,0,1,511.06,199.15Z" style="fill:#c7c7c7"></path><path d="M511.06,186.52a13.74,13.74,0,0,1,4.93-.83,13.58,13.58,0,0,1,4.94.83,15.09,15.09,0,0,1-9.87,0Z" style="fill:#c7c7c7"></path><path d="M511.06,161.27a15.09,15.09,0,0,1,9.87,0,13.58,13.58,0,0,1-4.94.83A13.74,13.74,0,0,1,511.06,161.27Z" style="fill:#c7c7c7"></path><path d="M511.06,148.64a13.52,13.52,0,0,1,4.93-.83,13.37,13.37,0,0,1,4.94.83,13.37,13.37,0,0,1-4.94.83A13.52,13.52,0,0,1,511.06,148.64Z" style="fill:#c7c7c7"></path><path d="M511.06,136a13.74,13.74,0,0,1,4.93-.83,13.37,13.37,0,0,1,4.94.83,13.37,13.37,0,0,1-4.94.83A13.52,13.52,0,0,1,511.06,136Z" style="fill:#c7c7c7"></path><path d="M511.06,123.38a36.91,36.91,0,0,1,8.21-.83,36.24,36.24,0,0,1,8.2.83,41,41,0,0,1-16.41,0Z" style="fill:#c7c7c7"></path><path d="M511.06,72.87a36.91,36.91,0,0,1,8.21-.83,36.24,36.24,0,0,1,8.2.83,35.68,35.68,0,0,1-8.2.83A36.33,36.33,0,0,1,511.06,72.87Z" style="fill:#c7c7c7"></path><path d="M511.06,110.76a14.92,14.92,0,0,1,9.87,0,15.09,15.09,0,0,1-9.87,0Z" style="fill:#c7c7c7"></path><path d="M511.06,98.13a15.09,15.09,0,0,1,9.87,0A13.58,13.58,0,0,1,516,99,13.74,13.74,0,0,1,511.06,98.13Z" style="fill:#c7c7c7"></path><path d="M511.06,85.5a13.52,13.52,0,0,1,4.93-.83,13.37,13.37,0,0,1,4.94.83,13.37,13.37,0,0,1-4.94.83A13.52,13.52,0,0,1,511.06,85.5Z" style="fill:#c7c7c7"></path><path d="M511.06,375.94a36.91,36.91,0,0,1,8.21-.83,35.68,35.68,0,0,1,8.2.83,35.68,35.68,0,0,1-8.2.83A36.33,36.33,0,0,1,511.06,375.94Z" style="fill:#c7c7c7"></path><path d="M511.06,325.43a36.33,36.33,0,0,1,8.21-.83,35.68,35.68,0,0,1,8.2.83,35.68,35.68,0,0,1-8.2.83A36.33,36.33,0,0,1,511.06,325.43Z" style="fill:#c7c7c7"></path><path d="M511.06,413.83a14.92,14.92,0,0,1,9.87,0,15.09,15.09,0,0,1-9.87,0Z" style="fill:#c7c7c7"></path><path d="M511.06,401.2a15.09,15.09,0,0,1,9.87,0A13.58,13.58,0,0,1,516,402,13.74,13.74,0,0,1,511.06,401.2Z" style="fill:#c7c7c7"></path><path d="M511.06,388.57a13.52,13.52,0,0,1,4.93-.83,13.37,13.37,0,0,1,4.94.83,13.37,13.37,0,0,1-4.94.83A13.52,13.52,0,0,1,511.06,388.57Z" style="fill:#c7c7c7"></path><path d="M511.06,363.31a13.74,13.74,0,0,1,4.93-.83,13.58,13.58,0,0,1,4.94.83,15.09,15.09,0,0,1-9.87,0Z" style="fill:#c7c7c7"></path><path d="M511.06,350.69a14.92,14.92,0,0,1,9.87,0,15.09,15.09,0,0,1-9.87,0Z" style="fill:#c7c7c7"></path><path d="M511.06,338.06a15.09,15.09,0,0,1,9.87,0,13.58,13.58,0,0,1-4.94.83A13.74,13.74,0,0,1,511.06,338.06Z" style="fill:#c7c7c7"></path><path d="M511.06,312.8A13.74,13.74,0,0,1,516,312a13.58,13.58,0,0,1,4.94.83,13.37,13.37,0,0,1-4.94.83A13.52,13.52,0,0,1,511.06,312.8Z" style="fill:#c7c7c7"></path><path d="M511.06,300.17a13.74,13.74,0,0,1,4.93-.83,13.58,13.58,0,0,1,4.94.83,15.09,15.09,0,0,1-9.87,0Z" style="fill:#c7c7c7"></path><path d="M511.06,287.55a15.09,15.09,0,0,1,9.87,0,13.58,13.58,0,0,1-4.94.83A13.74,13.74,0,0,1,511.06,287.55Z" style="fill:#c7c7c7"></path><path d="M511.06,274.92a36.33,36.33,0,0,1,8.21-.83,35.68,35.68,0,0,1,8.2.83,35.68,35.68,0,0,1-8.2.83A36.91,36.91,0,0,1,511.06,274.92Z" style="fill:#c7c7c7"></path></g><g id="freepik--Floor--inject-18"><path d="M61.75,475.2c200.69-.62,425.81-.62,626.5,0-200.69.61-425.81.61-626.5,0Z" style="fill:#263238"></path></g><g id="freepik--flask-2--inject-18"><g style="opacity:0.6000000000000001"><path d="M509.9,369c0,1.13,0,2.26,0,3.39,0,.12,0,.25,0,.37,0,1-.07,2.07-.13,3.1h0c-.06,1-.12,2.06-.2,3.09,0,.32-.05.65-.08,1-.16,2.09-.37,4.17-.65,6.23-.44,3.37-1,6.7-1.67,10-.45,2.19-1,4.35-1.5,6.49-.3,1.09-.59,2.16-.9,3.24-.6,2.12-1.25,4.24-2,6.32-.3.91-.62,1.82-1,2.72s-.66,1.8-1,2.69-.7,1.79-1.08,2.67-.61,1.47-.92,2.21-.65,1.45-1,2.18c-.42.91-.83,1.82-1.27,2.71s-1,2-1.46,2.93l-1.14,2.17c-1.16,2.15-2.37,4.27-3.63,6.34-.57.93-1.15,1.85-1.73,2.76s-1.18,1.81-1.79,2.7-1.22,1.79-1.85,2.67-1.12,1.56-1.71,2.33c-.7,1-1.44,1.91-2.17,2.85-1.34,1.68-2.7,3.35-4.12,5,0,0,0,0,0,0-.71.81-1.42,1.61-2.15,2.4s-1.34,1.47-2,2.19-1.62,1.67-2.43,2.48c-1.53,1.53-3.09,3-4.68,4.46-.8.72-1.61,1.43-2.43,2.15-1.62,1.4-3.27,2.75-5,4.07H291.77c-.26-.21-.54-.42-.8-.64-.49-.38-1-.79-1.48-1.2-.22-.17-.44-.35-.64-.53-.59-.48-1.18-1-1.75-1.48-.23-.18-.46-.37-.67-.56-.76-.67-1.52-1.34-2.25-2s-1.57-1.44-2.35-2.18-1.8-1.75-2.67-2.63c-.65-.65-1.29-1.3-1.91-2s-1.31-1.39-2-2.09l-.56-.63c-.57-.63-1.11-1.25-1.65-1.87a6.66,6.66,0,0,1-.44-.51c-.45-.52-.89-1-1.32-1.56l-.83-1c-.52-.64-1-1.27-1.54-1.92a2,2,0,0,1-.19-.24c-.66-.84-1.3-1.69-1.94-2.54s-1.28-1.74-1.91-2.62-1.13-1.61-1.68-2.42c-1.4-2.08-2.76-4.19-4-6.35-.39-.64-.77-1.28-1.14-1.93-.09-.14-.17-.3-.25-.45-.47-.82-.94-1.65-1.39-2.48a1.41,1.41,0,0,1-.13-.24c-.47-.87-.93-1.73-1.38-2.61l-.14-.26c-.37-.74-.75-1.49-1.11-2.24q-2.21-4.51-4.06-9.19c-.19-.47-.36-.93-.53-1.4-.26-.64-.51-1.3-.74-2a3.17,3.17,0,0,1-.17-.49c-.29-.77-.56-1.53-.82-2.3-.13-.38-.26-.76-.38-1.13-.22-.63-.42-1.25-.61-1.88-.13-.37-.24-.75-.34-1.12-.18-.57-.35-1.13-.51-1.71s-.33-1.09-.47-1.65c-.07-.24-.14-.47-.2-.7-.22-.8-.43-1.59-.63-2.4s-.44-1.78-.64-2.68-.48-2.09-.69-3.14-.41-2-.59-3.07c-.1-.54-.19-1.06-.27-1.59s-.2-1.07-.27-1.61-.15-1-.22-1.5-.19-1.24-.26-1.86-.12-1-.18-1.46-.1-.78-.14-1.18c-.1-.84-.18-1.69-.26-2.54,0-.11,0-.21,0-.32-.09-.95-.17-1.9-.23-2.84s-.13-2-.18-3.07-.08-2.06-.1-3.09,0-2.27,0-3.41a135.71,135.71,0,0,1,3.67-31.1c.43-1.82.89-3.62,1.4-5.41a135.19,135.19,0,0,1,61.92-79.81c1.56-.91,3.15-1.79,4.75-2.65.81-.43,1.61-.85,2.42-1.26q2.44-1.22,4.93-2.36a130,130,0,0,1,12.81-5c2.63-.87,5.28-1.68,8-2.4l.39-143.14V73.81H411V97h0l-.43,141.53a132.91,132.91,0,0,1,25.65,9.91c3.09,1.57,6.12,3.25,9.08,5.07l.67.42,1.89,1.19.24.16c.73.46,1.45.93,2.17,1.42q2,1.35,4,2.81l.71.51c.44.33.88.66,1.32,1s.65.49,1,.75c.58.43,1.14.87,1.7,1.32.71.55,1.42,1.13,2.11,1.69l2.06,1.76c1.37,1.16,2.7,2.37,4,3.6s2.62,2.49,3.88,3.77c.63.64,1.26,1.29,1.88,1.94s1.23,1.31,1.84,2,1.2,1.32,1.8,2l2,2.31c.47.58,1,1.15,1.43,1.74l1.77,2.23c1.1,1.41,2.18,2.86,3.22,4.33h0C486,292,487,293.44,488,295c.61.92,1.2,1.85,1.79,2.8l1,1.58c.65,1.09,1.3,2.18,1.91,3.29s1.19,2.13,1.75,3.2l.46.87q1.25,2.42,2.4,4.88v0q1.15,2.47,2.21,5c1.41,3.38,2.7,6.82,3.83,10.33.57,1.75,1.11,3.51,1.61,5.3.55,2,1,3.91,1.5,5.9q.57,2.46,1.06,5c.35,1.85.67,3.7.95,5.57s.52,3.74.71,5.64c.11.94.2,1.89.28,2.84s.13,1.73.19,2.6l0,.53c.05.68.08,1.37.11,2.06s.06,1.36.08,2.05.05,1.37.06,2.06C509.89,367.28,509.9,368.13,509.9,369Z" style="fill:#fff"></path><path d="M509.9,369a134.91,134.91,0,0,1-44.21,99.71c-1.63,1.59-5.67,4.78-7.4,6.25,0,.09-166.47.12-166.52.16A115.42,115.42,0,0,1,281.2,466a135.69,135.69,0,0,1-33.35-51.22c-25.54-69.61,11-147.95,80.71-173.32,3.15-1.17,8-2.56,11.29-3.55-1-23.54.33-98,.06-122.95L340,73.81v-.36h.36l70.59.06h.3v.29c.08,8.2-.51,150.12-.56,164.75,31.25,7.78,61.08,30.55,77.73,57A135,135,0,0,1,509.9,369Zm0,0a135,135,0,0,0-99.41-130.27c-.3-14.84.38-155.87.17-164.9l.29.29-70.59.07.35-.36c0,20.61-.06,61.71-.09,82.29l-.15,82.28v.37l-.37.11c-3.2,1-8.08,2.32-11.2,3.52-69.32,25.07-105.76,102.9-80.46,172.18a135.18,135.18,0,0,0,33.11,51.06c3,3.14,7.42,6.5,10.22,9,0,0,166.69.12,166.39.16,1.73-1.45,5.83-4.73,7.4-6.22A134.85,134.85,0,0,0,509.9,369Z" style="fill:#263238"></path><rect x="332.05" y="59.52" width="85.89" height="14.29" style="fill:#fff"></rect><path d="M418.45,74.31h-86.9V59h86.9Zm-85.9-1h84.9V60h-84.9Z" style="fill:#263238"></path><polygon points="410.95 77.07 340.37 80.33 340.37 73.81 410.95 73.81 410.95 77.07" style="fill:#dbdbdb"></polygon></g><path d="M489.19,371.69a113.16,113.16,0,0,1-33.51,80.52h-160A113.61,113.61,0,0,1,267.55,337H483.78A113.24,113.24,0,0,1,489.19,371.69Z" style="fill:#455a64"></path><path d="M489.19,371.69a113.16,113.16,0,0,1-33.51,80.52h-160A113.61,113.61,0,0,1,267.55,337H484.87C488.39,347.93,489.19,359.58,489.19,371.69Z" style="fill:#455a64"></path><path d="M461,337a10.15,10.15,0,1,1-10.14-10.15A10.15,10.15,0,0,1,461,337Z" style="fill:#455a64"></path><path d="M415.48,337a6.55,6.55,0,1,1-6.55-6.54A6.54,6.54,0,0,1,415.48,337Z" style="fill:#455a64"></path><path d="M318.49,320.08a6.55,6.55,0,1,1-6.54-6.54A6.54,6.54,0,0,1,318.49,320.08Z" style="fill:#455a64"></path><path d="M430.49,306.47a5,5,0,1,1-5-5A5,5,0,0,1,430.49,306.47Z" style="fill:#455a64"></path><path d="M292.74,326.85a5,5,0,1,1-5-5A5,5,0,0,1,292.74,326.85Z" style="fill:#455a64"></path><path d="M463.08,320.08A2.05,2.05,0,1,1,461,318,2,2,0,0,1,463.08,320.08Z" style="fill:#455a64"></path><g style="opacity:0.2"><path d="M323.3,363.34a10.15,10.15,0,1,1-10.15-10.15A10.14,10.14,0,0,1,323.3,363.34Z" style="fill:#fff"></path><path d="M390.21,415.49a6.54,6.54,0,1,1-6.54-6.55A6.54,6.54,0,0,1,390.21,415.49Z" style="fill:#fff"></path><path d="M414,364.36a5,5,0,1,1-5-5A5,5,0,0,1,414,364.36Z" style="fill:#fff"></path><path d="M297.91,394.81a5,5,0,1,1-5-5A5,5,0,0,1,297.91,394.81Z" style="fill:#fff"></path><path d="M462.11,401.61a5,5,0,1,1-5-5A5,5,0,0,1,462.11,401.61Z" style="fill:#fff"></path><path d="M431.19,385.34a2.05,2.05,0,1,1-2.05-2A2.05,2.05,0,0,1,431.19,385.34Z" style="fill:#fff"></path></g><path d="M368.49,73.86V245.51c-35.59,14.28-63.09,66.88-63.09,126.34,0,40,22.6,77.18,48.12,103H313.73c-22.2-19.73-44.25-52.05-44.25-103,0-93.22,81.59-129.92,81.59-129.92V73.86Z" style="fill:#fff;opacity:0.6000000000000001"></path><g style="opacity:0.1"><path d="M509.89,369c0,1.12,0,2.25,0,3.37,0,.12,0,.25,0,.37,0,1-.07,2.07-.13,3.1h0c-.06,1-.12,2.06-.2,3.09,0,.32-.05.65-.08,1q-.26,3.13-.65,6.23c-.44,3.37-1,6.7-1.67,10-.45,2.19-1,4.35-1.5,6.49-.3,1.09-.59,2.16-.9,3.24-.61,2.12-1.26,4.24-2,6.32-.3.91-.62,1.82-1,2.72s-.66,1.8-1,2.69-.7,1.79-1.08,2.67-.61,1.47-.92,2.21-.65,1.45-1,2.18c-.42.91-.83,1.82-1.27,2.71s-1,2-1.46,2.93l-1.14,2.17c-1.16,2.15-2.37,4.27-3.63,6.34-.57.93-1.15,1.85-1.73,2.76s-1.18,1.81-1.79,2.7-1.22,1.79-1.85,2.67-1.12,1.56-1.71,2.33c-.7,1-1.44,1.91-2.17,2.85-1.34,1.68-2.7,3.35-4.12,5,0,0,0,0,0,0-.71.81-1.42,1.61-2.15,2.4s-1.34,1.47-2,2.19-1.62,1.67-2.43,2.48c-1.53,1.53-3.09,3-4.68,4.46-.8.72-1.61,1.43-2.43,2.15-1.62,1.4-3.27,2.75-5,4.07H405.08c31.72-18.93,62.24-57,62.33-103,.13-60.85-34.86-108.75-74.8-125.55l.23-168.41v-4L411,74V97h0l-.43,141.53v0a134.16,134.16,0,0,1,25.65,9.89q4.63,2.37,9.08,5.07l.67.42,1.89,1.19.24.16c.73.46,1.45.93,2.17,1.42,1.36.92,2.7,1.85,4,2.81l.71.51c.44.33.88.66,1.32,1s.65.49,1,.75c.58.43,1.14.87,1.7,1.32.71.55,1.42,1.13,2.11,1.69l2.06,1.76q2,1.76,4,3.6c1.33,1.24,2.62,2.49,3.88,3.77.63.64,1.26,1.29,1.88,1.94s1.23,1.31,1.84,2,1.2,1.32,1.8,2l2,2.31c.47.58,1,1.15,1.43,1.74l1.77,2.23c1.09,1.42,2.17,2.87,3.22,4.33h0c1,1.47,2.06,2.95,3,4.47.61.92,1.2,1.85,1.79,2.8l1,1.58c.65,1.09,1.3,2.18,1.91,3.29s1.19,2.13,1.75,3.2l.46.87q1.25,2.42,2.4,4.88v0q1.15,2.47,2.21,5c1.41,3.38,2.7,6.82,3.83,10.33.58,1.75,1.11,3.52,1.61,5.3.55,2,1,3.91,1.5,5.9q.57,2.46,1.06,5c.35,1.85.67,3.7.95,5.57s.51,3.74.71,5.64c.11.94.2,1.89.28,2.84s.13,1.73.19,2.6l0,.53c.05.68.08,1.37.11,2.06s.06,1.36.08,2.05.05,1.37.06,2.06C509.89,367.29,509.89,368.14,509.89,369Z"></path></g></g><g id="freepik--flask-3--inject-18"><g style="opacity:0.6000000000000001"><rect x="458.19" y="231.52" width="178.51" height="243.34" transform="translate(1094.89 706.37) rotate(180)" style="fill:#fff"></rect><path d="M458.19,474.86c-.12,0,179.83-.7,178.2,0l-.19-243.33.5.49c.12,0-180.05.28-178.15-.49l-.36,243.34Zm0,0c0-.36-.36-243.37-.36-243.7s178.71.07,178.87-.14h.5v.5c.08.19-.26,243.44-.2,243.64-.18.25-178.57-.48-178.81-.3Z" style="fill:#263238"></path><path d="M454.73,213.27h196.8a2.16,2.16,0,0,1,.94.22l4.36,2.1a2.15,2.15,0,0,1-.07,3.91l-20.06,12h-182Z" style="fill:#fff"></path><path d="M636.83,232H454.23V212.77h197.3a2.53,2.53,0,0,1,1.15.27l4.36,2.09A2.66,2.66,0,0,1,657,220Zm-181.6-1H636.56l19.94-12a1.65,1.65,0,0,0,1-1.52,1.6,1.6,0,0,0-.94-1.51l-4.36-2.1a1.62,1.62,0,0,0-.72-.17H455.23Z" style="fill:#263238"></path><polygon points="458.19 234.26 636.7 237 636.7 231.51 458.19 231.51 458.19 234.26" style="fill:#dbdbdb"></polygon><path d="M654.88,216.24c-63.22.65-134.13.66-197.35,0,63.22-.65,134.13-.65,197.35,0Z" style="fill:#dbdbdb"></path></g><rect x="473.2" y="352.73" width="148.48" height="106.54" style="fill:#F9A8D4"></rect><path d="M551,356.36a8.46,8.46,0,1,1-8.46-8.46A8.46,8.46,0,0,1,551,356.36Z" style="fill:#F9A8D4"></path><path d="M511.13,338a5.46,5.46,0,1,1-5.45-5.46A5.45,5.45,0,0,1,511.13,338Z" style="fill:#F9A8D4"></path><circle cx="575.93" cy="340.62" r="4.18" style="fill:#F9A8D4"></circle><g style="opacity:0.30000000000000004"><path d="M587.41,409.42a8.46,8.46,0,1,1,8.46,8.46A8.46,8.46,0,0,1,587.41,409.42Z" style="fill:#fff"></path><path d="M571,390.34a5.46,5.46,0,1,1,5.46,5.45A5.47,5.47,0,0,1,571,390.34Z" style="fill:#fff"></path><path d="M490.56,379.43a5.46,5.46,0,1,1,5.45,5.45A5.45,5.45,0,0,1,490.56,379.43Z" style="fill:#fff"></path><path d="M522.83,423.09a4.18,4.18,0,1,1,4.18,4.18A4.18,4.18,0,0,1,522.83,423.09Z" style="fill:#fff"></path><path d="M505.68,407.71a1.71,1.71,0,1,1,1.71,1.71A1.7,1.7,0,0,1,505.68,407.71Z" style="fill:#fff"></path><path d="M569.78,420.53a1.71,1.71,0,1,1,1.71,1.71A1.72,1.72,0,0,1,569.78,420.53Z" style="fill:#fff"></path></g><path d="M604.33,356.36a1.71,1.71,0,1,1-1.71-1.71A1.71,1.71,0,0,1,604.33,356.36Z" style="fill:#F9A8D4"></path><rect x="490.73" y="231.52" width="33.32" height="243.34" style="fill:#fff;opacity:0.6000000000000001"></rect><polygon points="544.18 376.34 534.08 392.19 534.08 231.51 544.18 231.51 544.18 376.34" style="fill:#fff;opacity:0.6000000000000001"></polygon><polygon points="636.7 474.86 603.38 474.86 613.28 231.51 654.88 220.62 636.7 231.51 636.7 474.86" style="opacity:0.1"></polygon><path d="M487.53,410.82a67.88,67.88,0,0,1,20.91,0,67.88,67.88,0,0,1-20.91,0Z" style="fill:#263238"></path><path d="M487.53,361.73a60.44,60.44,0,0,1,10.46-.81,59.36,59.36,0,0,1,10.45.81,59.34,59.34,0,0,1-10.45.8A60.43,60.43,0,0,1,487.53,361.73Z" style="fill:#263238"></path><path d="M487.53,447.64a22.27,22.27,0,0,1,6.29-.81,21.85,21.85,0,0,1,6.28.81,24.79,24.79,0,0,1-12.57,0Z" style="fill:#263238"></path><path d="M487.53,435.37a21.92,21.92,0,0,1,6.29-.81,21.5,21.5,0,0,1,6.28.81,21.84,21.84,0,0,1-6.28.8A22.26,22.26,0,0,1,487.53,435.37Z" style="fill:#263238"></path><path d="M487.53,423.09a24.79,24.79,0,0,1,12.57,0,21.85,21.85,0,0,1-6.28.81A22.27,22.27,0,0,1,487.53,423.09Z" style="fill:#263238"></path><path d="M487.53,398.55a22.27,22.27,0,0,1,6.29-.81,21.85,21.85,0,0,1,6.28.81,21.84,21.84,0,0,1-6.28.8A22.26,22.26,0,0,1,487.53,398.55Z" style="fill:#263238"></path><path d="M487.53,386.27a22.26,22.26,0,0,1,6.29-.8,21.84,21.84,0,0,1,6.28.8,21.85,21.85,0,0,1-6.28.81A22.27,22.27,0,0,1,487.53,386.27Z" style="fill:#263238"></path><path d="M487.53,374a24.79,24.79,0,0,1,12.57,0,24.79,24.79,0,0,1-12.57,0Z" style="fill:#263238"></path><path d="M487.53,349.45a22.26,22.26,0,0,1,6.29-.8,21.84,21.84,0,0,1,6.28.8,21.85,21.85,0,0,1-6.28.81A22.27,22.27,0,0,1,487.53,349.45Z" style="fill:#263238"></path><path d="M487.53,337.18a24.79,24.79,0,0,1,12.57,0,21.85,21.85,0,0,1-6.28.81A22.27,22.27,0,0,1,487.53,337.18Z" style="fill:#263238"></path><path d="M487.53,324.91a22.27,22.27,0,0,1,6.29-.81,21.85,21.85,0,0,1,6.28.81,24.79,24.79,0,0,1-12.57,0Z" style="fill:#263238"></path><path d="M487.53,312.64a59.47,59.47,0,0,1,10.46-.81,58.42,58.42,0,0,1,10.45.81,59.34,59.34,0,0,1-10.45.8A60.43,60.43,0,0,1,487.53,312.64Z" style="fill:#263238"></path><path d="M487.53,263.54a60.43,60.43,0,0,1,10.46-.8,59.34,59.34,0,0,1,10.45.8,59.36,59.36,0,0,1-10.45.81A60.44,60.44,0,0,1,487.53,263.54Z" style="fill:#263238"></path><path d="M487.53,300.36a24.79,24.79,0,0,1,12.57,0,21.85,21.85,0,0,1-6.28.81A22.27,22.27,0,0,1,487.53,300.36Z" style="fill:#263238"></path><path d="M487.53,288.09a24.79,24.79,0,0,1,12.57,0,24.79,24.79,0,0,1-12.57,0Z" style="fill:#263238"></path><path d="M487.53,275.82a22.27,22.27,0,0,1,6.29-.81,21.5,21.5,0,0,1,6.28.81,21.84,21.84,0,0,1-6.28.8A22.26,22.26,0,0,1,487.53,275.82Z" style="fill:#263238"></path></g><g id="freepik--flask-1--inject-18"><g style="opacity:0.6000000000000001"><path d="M329.81,474.86h-243s90.63-198.66,90.63-201.31V182.38h62.18v91.17C239.63,276.33,329.81,474.86,329.81,474.86Z" style="fill:#fff"></path><path d="M329.81,474.86l-243.5.33c26.77-58.86,54.12-119,80.52-178.12,3.39-7.82,7.08-15.62,10.14-23.53,0,0,0-.07,0-.07v-.91c0-6.09,0-82,0-90.18v-.45h.45l62.18.06H240v.39c0,6.54-.05,83.26-.07,87.69,0,.48,0,2.61,0,3a3.84,3.84,0,0,0,.42,1.64c17,40.12,71,158.64,89.44,200.11Zm0,0c-28.93-63.78-62.41-136-90-199.88a4.65,4.65,0,0,1-.47-1.87c0-.6,0-2.45,0-3v-9.75l0-77.94.39.39-62.18.06.45-.45c0,9.28,0,83.63,0,90.78a4.44,4.44,0,0,1-.51,1.93c-3.1,7.52-6.46,14.91-9.75,22.35-26.57,58.15-53.78,121.07-80.85,177.09l243,.33Z" style="fill:#263238"></path><rect x="170.62" y="168.36" width="75.39" height="14.02" style="fill:#fff"></rect><path d="M246.51,182.88H170.12v-15h76.39Zm-75.39-1h74.39v-13H171.12Z" style="fill:#263238"></path><polygon points="239.63 185.58 177.45 188.78 177.45 182.38 239.63 182.38 239.63 185.58" style="fill:#dbdbdb"></polygon></g><polygon points="305.87 462.56 110.76 462.56 151.3 371.53 264.29 371.53 305.87 462.56" style="fill:#F9A8D4"></polygon><path d="M208.31,371.53a8.71,8.71,0,1,1-8.7-8.71A8.7,8.7,0,0,1,208.31,371.53Z" style="fill:#F9A8D4"></path><path d="M177.72,347.32a5.62,5.62,0,1,1-5.62-5.61A5.62,5.62,0,0,1,177.72,347.32Z" style="fill:#F9A8D4"></path><circle cx="233.97" cy="355.8" r="4.3" style="fill:#F9A8D4"></circle><g style="opacity:0.30000000000000004"><path d="M177.32,424.81a8.71,8.71,0,1,1-8.7-8.71A8.7,8.7,0,0,1,177.32,424.81Z" style="fill:#fff"></path><path d="M200.63,450.05a5.62,5.62,0,1,1-5.61-5.61A5.62,5.62,0,0,1,200.63,450.05Z" style="fill:#fff"></path><path d="M285.58,449.44a5.62,5.62,0,1,1-5.61-5.61A5.61,5.61,0,0,1,285.58,449.44Z" style="fill:#fff"></path><path d="M252.47,419a4.3,4.3,0,1,1-4.3-4.3A4.3,4.3,0,0,1,252.47,419Z" style="fill:#fff"></path><path d="M261.42,426.57a1.76,1.76,0,1,1-1.76-1.76A1.76,1.76,0,0,1,261.42,426.57Z" style="fill:#fff"></path><path d="M158.88,436.7a1.76,1.76,0,1,1-1.76-1.76A1.76,1.76,0,0,1,158.88,436.7Z" style="fill:#fff"></path></g><path d="M247.39,336.84a1.76,1.76,0,1,1-1.76-1.76A1.76,1.76,0,0,1,247.39,336.84Z" style="fill:#F9A8D4"></path><polygon points="116.97 474.86 135.47 474.86 203.16 273.63 203.16 182.38 188.71 182.38 189.05 273.83 116.97 474.86" style="fill:#fff;opacity:0.6000000000000001"></polygon><g style="opacity:0.1"><path d="M329.81,474.86H271.75L226.83,273.55l-.3-91.17h13.1v91.17C239.63,276.33,329.81,474.86,329.81,474.86Z"></path></g><path d="M173.5,409A70.16,70.16,0,0,1,195,409a62,62,0,0,1-10.76.83A62.84,62.84,0,0,1,173.5,409Z" style="fill:#263238"></path><path d="M173.5,358.46a69.34,69.34,0,0,1,21.52,0,62,62,0,0,1-10.76.83A62.84,62.84,0,0,1,173.5,358.46Z" style="fill:#263238"></path><path d="M173.5,446.85A23.13,23.13,0,0,1,180,446a22.39,22.39,0,0,1,6.46.83,22.39,22.39,0,0,1-6.46.83A22.77,22.77,0,0,1,173.5,446.85Z" style="fill:#263238"></path><path d="M173.5,434.22a23.13,23.13,0,0,1,6.47-.83,22.74,22.74,0,0,1,6.46.83,25.59,25.59,0,0,1-12.93,0Z" style="fill:#263238"></path><path d="M173.5,421.6a25.3,25.3,0,0,1,12.93,0,25.59,25.59,0,0,1-12.93,0Z" style="fill:#263238"></path><path d="M173.5,396.34a22.77,22.77,0,0,1,6.47-.83,22.39,22.39,0,0,1,6.46.83,22.39,22.39,0,0,1-6.46.83A22.77,22.77,0,0,1,173.5,396.34Z" style="fill:#263238"></path><path d="M173.5,383.71a23.13,23.13,0,0,1,6.47-.83,22.74,22.74,0,0,1,6.46.83,22.39,22.39,0,0,1-6.46.83A22.77,22.77,0,0,1,173.5,383.71Z" style="fill:#263238"></path><path d="M173.5,371.08a23.13,23.13,0,0,1,6.47-.83,22.74,22.74,0,0,1,6.46.83,25.59,25.59,0,0,1-12.93,0Z" style="fill:#263238"></path><path d="M173.5,345.83A22.77,22.77,0,0,1,180,345a22.39,22.39,0,0,1,6.46.83,22.74,22.74,0,0,1-6.46.83A23.13,23.13,0,0,1,173.5,345.83Z" style="fill:#263238"></path><path d="M173.5,333.2a22.77,22.77,0,0,1,6.47-.83,22.39,22.39,0,0,1,6.46.83A22.39,22.39,0,0,1,180,334,22.77,22.77,0,0,1,173.5,333.2Z" style="fill:#263238"></path><path d="M173.5,320.57a23.13,23.13,0,0,1,6.47-.83,22.74,22.74,0,0,1,6.46.83,25.59,25.59,0,0,1-12.93,0Z" style="fill:#263238"></path></g></svg>
