<svg id="visual" viewBox="0 0 900 600" width="900" height="600" xmlns="http://www.w3.org/2000/svg" xmlns:xlink="http://www.w3.org/1999/xlink" version="1.1"><g transform="translate(21.82832109236942 588.0911773806131)"><path d="M96.3 -156.8C120 -115.2 131.4 -80.8 154.9 -42.3C178.5 -3.8 214.3 38.7 219.1 85.8C224 132.9 197.8 184.6 156.1 221C114.4 257.5 57.2 278.7 8.5 267C-40.2 255.3 -80.3 210.6 -126.9 175.7C-173.5 140.8 -226.6 115.9 -249.6 74.2C-272.6 32.5 -265.7 -25.8 -236.6 -65C-207.5 -104.3 -156.4 -124.6 -113.3 -159.9C-70.1 -195.2 -35.1 -245.6 0.6 -246.4C36.2 -247.2 72.5 -198.4 96.3 -156.8" fill="#60a5fa"></path></g></svg>